<svg width="1512" height="1205" viewBox="0 0 1512 1205" fill="none" xmlns="http://www.w3.org/2000/svg">
<path d="M502.067 115.871C502.067 51.8662 454.23 0 395.196 0H107.002C47.9684 0 0.130865 51.8662 0.130865 115.871C0.130865 164.877 28.1775 206.729 67.7971 223.65C67.307 224.508 66.8546 225.367 66.4023 226.225C65.9122 227.083 65.4599 227.982 64.9698 228.841C64.4798 229.699 63.9897 230.598 63.5373 231.457C63.0473 232.315 62.5949 233.214 62.1048 234.072C61.6148 234.931 61.1624 235.83 60.6724 236.688C60.1823 237.546 59.6922 238.446 59.2399 239.304C58.7498 240.162 58.2974 241.061 57.8074 241.92C57.3173 242.778 56.8273 243.677 56.3749 244.536C55.8848 245.394 55.4325 246.293 54.9424 247.151C54.4523 248.01 53.9623 248.909 53.5099 249.767C53.0198 250.625 52.5675 251.525 52.0774 252.383C51.5874 253.241 51.0973 254.14 50.6449 254.999C50.1549 255.857 49.7025 256.756 49.2124 257.615C48.7224 258.473 48.2324 259.372 47.78 260.23C47.2899 261.089 46.8375 261.988 46.3475 262.846C45.8574 263.704 45.3673 264.604 44.915 265.462C44.4249 266.32 43.9725 267.219 43.4825 268.078C42.9924 268.936 42.5024 269.835 42.05 270.693C41.56 271.552 41.1076 272.451 40.6175 273.309C40.1275 274.168 39.6374 275.067 39.185 275.925C38.6949 276.783 38.2426 277.683 37.7526 278.541C37.2625 279.399 36.7724 280.298 36.3201 281.157C35.83 282.015 35.3776 282.914 34.8875 283.772C34.3975 284.631 33.9075 285.53 33.4551 286.388C32.965 287.246 32.5127 288.146 32.0226 289.004C31.5325 289.862 31.0424 290.761 30.5901 291.661C30.1 292.519 29.6477 293.418 29.1576 294.276C28.6676 295.135 28.2152 296.034 27.7251 296.892C27.2351 297.75 26.745 298.65 26.2926 299.508C25.8026 300.366 25.3502 301.265 24.8602 302.124C24.3701 302.982 23.88 303.881 23.4277 304.74C22.9376 305.598 22.4852 306.497 21.9952 307.355C21.5051 308.214 21.0151 309.113 20.5627 309.971C20.0727 310.829 19.6203 311.729 19.1302 312.587C18.6401 313.445 18.1501 314.344 17.6977 315.203C17.2076 316.061 16.7553 316.96 16.2653 317.818C15.7752 318.677 15.2851 319.576 14.8327 320.434C4.80533 338.091 -1 358.854 -1 381.129C-1 445.134 46.8375 497 105.871 497C145.378 497 179.833 473.744 198.342 439.207C198.832 438.349 199.322 437.45 199.775 436.592C200.265 435.733 200.717 434.834 201.207 433.976C201.697 433.118 202.187 432.218 202.639 431.36C203.129 430.502 203.582 429.603 204.072 428.744C204.562 427.886 205.052 426.987 205.504 426.128C205.994 425.27 206.447 424.371 206.937 423.513C207.427 422.654 207.917 421.755 208.369 420.897C208.859 420.039 209.312 419.14 209.802 418.281C210.292 417.423 210.782 416.524 211.234 415.665C211.724 414.807 212.177 413.908 212.667 413.05C213.157 412.191 213.647 411.292 214.099 410.393C214.589 409.535 215.042 408.635 215.532 407.777C216.022 406.919 216.512 406.02 216.964 405.161C217.454 404.303 217.907 403.404 218.397 402.546C218.887 401.687 219.377 400.788 219.829 399.93C220.319 399.071 220.772 398.172 221.262 397.314C221.752 396.456 222.242 395.556 222.694 394.698C223.184 393.84 223.637 392.941 224.127 392.082C224.617 391.224 225.107 390.325 225.559 389.467C226.049 388.608 226.502 387.709 226.992 386.851C227.482 385.993 227.934 385.093 228.424 384.235C228.914 383.377 229.404 382.478 229.857 381.619C230.347 380.761 230.799 379.862 231.289 379.003C231.779 378.145 232.269 377.246 232.722 376.388C233.212 375.529 233.664 374.63 234.154 373.772C234.644 372.914 235.134 372.014 235.587 371.156C236.077 370.298 236.529 369.399 237.019 368.54C237.509 367.682 237.999 366.783 238.452 365.925C238.942 365.066 239.394 364.167 239.884 363.309C239.922 363.227 239.997 363.104 240.035 363.023L217.304 319.167C214.853 314.426 216.399 308.459 220.772 305.802C225.145 303.146 230.648 304.821 233.099 309.562L257.112 355.911C257.489 356.647 257.903 357.382 258.28 358.077C258.733 358.976 259.223 359.835 259.713 360.693C260.203 361.592 260.655 362.45 261.145 363.309C261.598 364.208 262.088 365.066 262.578 365.925C263.068 366.824 263.52 367.682 264.01 368.54C264.463 369.439 264.953 370.298 265.443 371.156C265.933 372.055 266.385 372.914 266.875 373.772C267.328 374.671 267.818 375.529 268.308 376.388C268.798 377.287 269.25 378.145 269.74 379.003C270.193 379.903 270.683 380.761 271.173 381.619C271.663 382.518 272.115 383.377 272.605 384.235C273.057 385.134 273.548 385.993 274.038 386.851C274.528 387.75 274.98 388.608 275.47 389.467C275.96 390.366 276.413 391.224 276.903 392.082C277.355 392.982 277.845 393.84 278.335 394.698C278.825 395.597 279.277 396.456 279.768 397.314C280.22 398.213 280.71 399.071 281.2 399.93C281.69 400.829 282.142 401.687 282.633 402.546C283.085 403.445 283.575 404.303 284.065 405.161C284.555 406.06 285.007 406.919 285.498 407.777C285.95 408.676 286.44 409.535 286.93 410.393C287.42 411.292 287.872 412.15 288.363 413.05C288.815 413.949 289.305 414.807 289.795 415.665C290.285 416.565 290.737 417.423 291.227 418.281C291.68 419.18 292.17 420.039 292.66 420.897C293.15 421.796 293.602 422.654 294.092 423.513C294.545 424.412 295.035 425.27 295.525 426.128C296.015 427.028 296.467 427.886 296.957 428.744C297.41 429.644 297.9 430.502 298.39 431.36C298.88 432.259 299.332 433.118 299.822 433.976C300.275 434.875 300.765 435.733 301.255 436.592C301.745 437.491 302.197 438.349 302.687 439.207C321.197 473.744 355.652 497 395.158 497C454.192 497 502.029 445.134 502.029 381.129C502.029 358.854 496.224 338.091 486.197 320.434C485.707 319.535 485.254 318.677 484.764 317.818C484.312 316.919 483.822 316.061 483.332 315.203C482.842 314.304 482.389 313.445 481.899 312.587C481.447 311.688 480.957 310.829 480.467 309.971C479.977 309.072 479.524 308.214 479.034 307.355C478.582 306.456 478.092 305.598 477.602 304.74C477.112 303.84 476.659 302.982 476.169 302.124C475.717 301.225 475.227 300.366 474.737 299.508C474.247 298.609 473.794 297.75 473.304 296.892C472.852 295.993 472.362 295.135 471.872 294.276C471.382 293.377 470.929 292.519 470.439 291.661C469.949 290.761 469.497 289.903 469.007 289.004C468.554 288.105 468.064 287.246 467.574 286.388C467.084 285.489 466.632 284.631 466.142 283.772C465.689 282.873 465.199 282.015 464.709 281.157C464.219 280.257 463.767 279.399 463.277 278.541C462.824 277.642 462.334 276.783 461.844 275.925C461.354 275.026 460.902 274.168 460.412 273.309C459.959 272.41 459.469 271.552 458.979 270.693C458.489 269.794 458.037 268.936 457.547 268.078C457.094 267.178 456.604 266.32 456.114 265.462C455.624 264.563 455.172 263.704 454.682 262.846C454.23 261.947 453.739 261.089 453.249 260.23C452.759 259.331 452.307 258.473 451.817 257.615C451.365 256.715 450.874 255.857 450.384 254.999C449.894 254.099 449.442 253.241 448.952 252.383C448.5 251.484 448.009 250.625 447.519 249.767C447.029 248.868 446.577 248.01 446.087 247.151C445.635 246.252 445.145 245.394 444.654 244.536C444.164 243.636 443.712 242.778 443.222 241.92C442.77 241.02 442.28 240.162 441.789 239.304C441.299 238.405 440.847 237.546 440.357 236.688C439.905 235.789 439.415 234.931 438.924 234.072C438.434 233.173 437.982 232.315 437.492 231.457C437.002 230.557 436.55 229.699 436.06 228.841C435.607 227.942 435.117 227.083 434.627 226.225C434.25 225.489 433.835 224.794 433.458 224.059C473.606 207.383 502.105 165.244 502.105 115.871H502.067Z" fill="#E3EAEC"/>
<path opacity="0.7" d="M1079.7 656.127C1052.84 664.512 1021.04 692.885 1006.45 718.392C988.138 750.398 997.262 777.582 999.061 812.733C1002.6 881.567 971.045 952.917 1006.71 1017.7C1033.82 1066.96 1102 1115.53 1147.56 1145.16C1193.82 1175.35 1284.74 1233.14 1339.68 1188.91C1361.79 1171.16 1359.02 1122.1 1375.99 1093.52C1409.4 1037.05 1484.32 1050.47 1503.47 988.067C1529.63 902.881 1489.14 801.621 1468.84 717.902C1448.41 633.485 1431.57 550.744 1341.74 527.543C1281.53 512.029 1235.52 530.059 1190.67 569.403C1155.65 600.011 1106.75 615.665 1079.7 656.127Z" fill="#91DBE5"/>
<path opacity="0.4" d="M583.392 94.6626C575.045 91.8899 566.353 91.8188 559.688 100.018C553.239 107.934 547.048 120.754 545.733 131.324C542.627 155.994 562.621 166.848 582.81 163.34C602.502 159.928 612.294 131.513 606.32 111.275C604.508 105.161 599.375 102.27 594.457 99.6393C591.006 97.7671 587.231 95.9186 583.37 94.6626H583.392Z" fill="#D46F34"/>
<path opacity="0.4" d="M531.792 93.6861C523.445 90.9134 514.753 90.8423 508.088 99.0419C501.639 106.957 495.449 119.778 494.133 130.347C491.027 155.017 511.022 165.871 531.21 162.364C550.902 158.951 560.695 130.537 554.72 110.299C552.908 104.184 547.775 101.293 542.857 98.6627C539.406 96.7905 535.632 94.9421 531.771 93.6861H531.792Z" fill="#D46F34"/>
</svg>
