<svg width="1512" height="1257" viewBox="0 0 1512 1257" fill="none" xmlns="http://www.w3.org/2000/svg">
<path d="M656 887.738C656 803.452 588.12 735.152 505.449 735.152H328.011C326.373 735.529 292.195 743.817 292.195 775.949C292.195 783.107 286.543 788.866 279.517 788.866C272.492 788.866 266.839 783.107 266.839 775.949C266.839 733.322 303.13 714.161 322.305 710.017C322.358 710.017 322.411 710.017 322.464 710.017V538.323C322.464 454.037 255.429 383.584 172.706 383.584C89.9819 383.584 23 454.037 23 538.323V883.432C23 967.718 92.3062 1040.27 175.03 1040.27H503.917C586.641 1040.27 655.947 972.024 655.947 887.738H656Z" fill="#FAE884"/>
<path d="M-1 318.171C49.8348 329.779 107.976 340.167 150.483 310.724C202.339 274.805 206.581 195.333 259.83 161.385C274.443 152.061 291.501 147.149 307.383 140.047C335.123 127.625 360.385 106.912 370.695 78.9718C381.004 51.0313 372.707 15.7067 346.794 0H-1V318.171Z" fill="#FEF8E8"/>
<path d="M1512 674.003C1448.72 656.108 1376.4 640.141 1323.44 685.485C1258.92 740.762 1253.61 863.174 1187.38 915.433C1169.18 929.807 1147.95 937.351 1128.16 948.289C1093.66 967.44 1062.19 999.29 1049.37 1042.33C1036.52 1085.33 1046.84 1139.77 1079.11 1163.95H1511.96V674.003H1512Z" fill="#FEF8E8"/>
<path d="M1155.57 691.03C1158.29 693.779 1161.09 696.454 1163.95 698.98C1166.52 701.283 1169.46 703.066 1172.4 704.849C1175.34 706.706 1178.43 708.341 1181.51 710.049C1184.89 711.907 1188.35 713.541 1191.8 715.25C1195.18 716.884 1198.63 718.147 1202.16 719.336C1205.54 720.45 1208.99 721.268 1212.37 722.233C1215.61 723.125 1218.77 724.016 1222 724.759C1229.57 726.617 1237.28 727.731 1245 728.771C1251.69 729.663 1258.45 730.183 1265.21 730.257C1270.35 730.257 1275.57 730.554 1280.71 730.554C1285.71 730.554 1290.7 730.628 1295.63 730.554C1300.33 730.554 1305.03 730.406 1309.73 730.183C1310.25 730.183 1310.84 730.108 1311.42 730.034C1311.57 730.034 1311.72 730.034 1311.86 730.034C1311.94 730.034 1312.01 730.034 1312.09 730.034C1313.33 729.96 1314.58 729.811 1315.83 729.737C1322.08 729.291 1328.32 728.845 1334.5 728.251C1337.73 727.954 1340.96 727.582 1344.12 726.84C1347.87 725.948 1351.54 724.834 1355.22 723.496C1354.7 723.719 1354.12 723.868 1353.6 724.091C1357.13 722.902 1360.8 721.713 1364.18 720.153C1367.34 718.816 1370.5 717.404 1373.44 715.621C1376.6 713.615 1379.47 711.535 1382.11 708.935C1383.58 707.449 1384.9 705.815 1386.23 704.329C1387.33 703.066 1388.43 701.877 1389.39 700.54C1391.52 697.717 1393.43 694.894 1395.19 691.848C1397.25 688.207 1399.08 684.492 1400.85 680.704C1403.93 674.24 1406.36 667.405 1408.78 660.719C1411.21 653.958 1412.53 646.9 1413.63 639.842C1414.59 633.825 1415.4 627.733 1415.47 621.641C1415.47 618.223 1415.47 614.88 1415.62 611.462C1415.76 607.896 1415.91 604.256 1415.98 600.69C1416.13 593.261 1415.18 585.831 1414.15 578.551C1413.63 575.133 1413.12 571.716 1412.31 568.373C1411.58 565.104 1410.4 561.909 1409.37 558.714C1408.27 555.371 1407.39 552.028 1406.43 548.611C1405.18 544.45 1403.79 540.364 1402.24 536.204C1399.89 529.814 1397.03 523.648 1393.57 517.779C1391.59 514.287 1389.09 511.093 1386.59 507.898C1384.46 505.223 1382.33 502.549 1379.91 500.097C1377.56 497.646 1375.13 495.268 1372.85 492.742C1370.65 490.291 1368.44 487.913 1366.02 485.684C1363.08 483.01 1360.21 480.558 1356.98 478.255C1353.75 475.952 1350.22 474.02 1346.62 472.386C1345 471.569 1343.31 470.826 1341.62 470.083C1339.93 469.34 1338.17 468.82 1336.41 468.226C1333.1 467.185 1329.87 466.145 1326.49 465.328C1319.58 463.545 1312.6 462.208 1305.55 461.391C1298.49 460.573 1291.44 460.425 1284.31 460.425C1280.71 460.425 1277.18 460.648 1273.66 460.945C1270.42 461.168 1267.19 461.539 1264.03 462.134C1262.41 462.431 1260.87 462.802 1259.25 463.248C1253.96 464.66 1248.82 466.665 1243.9 468.894C1241.1 470.157 1238.39 471.42 1235.67 472.832C1231.99 474.392 1228.47 476.026 1224.94 477.884C1218.62 481.227 1212.3 484.793 1206.42 488.879C1203.34 490.959 1200.25 493.114 1197.24 495.343C1194.59 497.274 1191.95 499.131 1189.45 501.286C1186.66 503.738 1184.3 506.635 1181.88 509.384C1179.6 511.984 1177.47 514.659 1175.27 517.333C1173.43 519.562 1171.52 521.717 1169.98 524.242C1169.09 525.803 1168.07 527.363 1167.18 528.997C1165.42 532.266 1163.66 535.535 1161.89 538.804C1158.44 545.49 1154.69 552.102 1151.68 559.012C1148.89 565.327 1146.54 571.864 1144.11 578.328C1143.08 581.077 1142.13 583.825 1141.25 586.649C1140.36 589.397 1139.92 592.295 1139.34 595.118C1138.16 600.839 1136.98 606.559 1136.47 612.428C1136.25 615.029 1136.18 617.629 1136.03 620.229C1135.88 622.904 1135.59 625.652 1135.37 628.327C1134.85 633.75 1134.93 639.099 1135.29 644.597C1135.81 651.209 1136.62 657.821 1138.75 664.136C1139.92 667.628 1141.1 671.12 1142.72 674.463C1144.33 677.955 1146.46 681.149 1148.96 684.047C1151.02 686.498 1153.44 688.727 1155.72 691.03H1155.57ZM1383.07 685.607L1383.58 684.938L1383.8 684.641C1383.51 685.161 1383.29 685.607 1382.99 686.127C1382.99 685.978 1382.99 685.755 1382.99 685.607H1383.07Z" fill="#5BA58C"/>
<path d="M996.856 1220.61C997.256 1221.11 997.736 1221.58 998.136 1222.08C998.824 1222.89 999.552 1223.69 1000.31 1224.43C1000.39 1224.54 1000.46 1224.61 1000.54 1224.72C1000.97 1225.3 1001.37 1225.93 1001.84 1226.5C1002.39 1227.18 1003.14 1227.78 1003.83 1228.32L1004.14 1228.57C1004.14 1228.57 1004.26 1228.67 1004.33 1228.74C1004.74 1229.14 1005.17 1229.58 1005.56 1230.04C1006.77 1231.45 1008.27 1232.52 1009.77 1233.59C1010.99 1234.49 1012.1 1235.61 1013.44 1236.33C1015.01 1237.19 1016.73 1237.86 1018.38 1238.56C1019.97 1239.24 1021.49 1239.94 1023.18 1240.39C1024.88 1240.85 1026.67 1241.04 1028.42 1241.24C1031.44 1241.59 1034.46 1241.81 1037.49 1241.79C1038.34 1241.76 1039.17 1241.79 1039.99 1241.82C1041.13 1241.83 1042.32 1241.73 1043.45 1241.6C1045.11 1241.43 1046.72 1241.23 1048.38 1240.91C1051.98 1240.19 1055.57 1239.42 1059.07 1238.41C1061.05 1237.85 1062.93 1237.13 1064.87 1236.59C1065.87 1236.32 1066.91 1236.05 1067.88 1235.71C1068.85 1235.36 1069.82 1235.02 1070.78 1234.68C1070.78 1234.68 1070.74 1234.69 1070.7 1234.7C1070.78 1234.68 1070.86 1234.65 1070.95 1234.62C1071.15 1234.55 1071.39 1234.46 1071.59 1234.39C1071.55 1234.4 1071.47 1234.43 1071.43 1234.45C1074.61 1233.28 1077.7 1232 1080.86 1230.79C1084.18 1229.52 1087.42 1228.14 1090.72 1226.79C1093.93 1225.47 1097.16 1224.19 1100.21 1222.52C1102.94 1221 1105.73 1219.51 1108.36 1217.8C1110.68 1216.24 1113.01 1214.73 1115.34 1213.22C1117.71 1211.69 1120.25 1210.24 1122.24 1208.25C1124.09 1206.41 1125.67 1204.29 1127.21 1202.19C1127.94 1201.15 1128.71 1200.1 1129.31 1198.97C1129.85 1197.9 1130.39 1196.84 1130.89 1195.8C1131.78 1193.92 1132.66 1192.01 1133.13 1189.96C1133.41 1188.81 1133.72 1187.6 1133.85 1186.41C1133.85 1186.27 1133.85 1186.13 1133.88 1185.98C1133.92 1185.83 1134 1185.67 1134.05 1185.55C1134.53 1184.06 1134.8 1182.59 1134.99 1181.19C1135.07 1180.89 1135.09 1180.56 1135.13 1180.27C1135.13 1180.27 1135.13 1180.27 1135.11 1180.23C1135.16 1179.85 1135.17 1179.48 1135.22 1179.09C1135.25 1178.67 1135.33 1178.23 1135.35 1177.76C1135.36 1177.39 1135.32 1177.04 1135.33 1176.67C1135.16 1169.63 1132.5 1162.96 1129.95 1156.53C1129.55 1155.48 1128.98 1154.49 1128.37 1153.52C1127.84 1152.65 1127.34 1151.73 1126.84 1150.8C1125.77 1148.75 1124.58 1146.75 1123.36 1144.79C1122.14 1142.84 1120.93 1140.93 1119.57 1139.08C1119.24 1138.65 1118.85 1138.19 1118.48 1137.77C1118.03 1137.24 1117.63 1136.74 1117.24 1136.14C1116.73 1135.45 1116.22 1134.76 1115.73 1134.02C1114.06 1131.54 1112.35 1129.08 1110.7 1126.54C1109.73 1125.05 1108.82 1123.59 1107.89 1122.08C1106.98 1120.62 1105.94 1119.2 1104.96 1117.81C1103.94 1116.29 1102.9 1114.73 1101.73 1113.31C1100.79 1112.18 1099.8 1111.15 1098.8 1110.09C1097.72 1108.91 1096.52 1107.82 1095.36 1106.68C1094.19 1105.53 1093.06 1104.37 1091.92 1103.17C1090.91 1102.07 1089.81 1100.99 1088.68 1099.97C1087.29 1098.67 1085.87 1097.34 1084.36 1096.23C1082.82 1095.07 1081.09 1094.27 1079.38 1093.5C1077.92 1092.82 1076.41 1092.26 1074.94 1091.68C1071.87 1090.52 1068.77 1089.28 1065.65 1088.28C1062.6 1087.3 1059.5 1086.6 1056.27 1086.42C1054.56 1086.34 1052.82 1086.4 1051.13 1086.5C1049.21 1086.58 1047.36 1086.87 1045.48 1087.35C1043.57 1087.84 1041.7 1088.46 1039.9 1089.15C1039.17 1089.4 1038.44 1089.66 1037.75 1090C1036.84 1090.41 1035.94 1090.82 1035.11 1091.3C1034.95 1091.36 1034.82 1091.49 1034.67 1091.59C1034.59 1091.62 1034.51 1091.65 1034.43 1091.68C1034.31 1091.72 1034.15 1091.78 1034.02 1091.82C1030.53 1093.38 1027.13 1094.95 1024.07 1097.23C1021.62 1099.06 1019.26 1101.03 1016.98 1103.08C1015.74 1104.21 1014.69 1105.5 1013.59 1106.76C1012.28 1108.23 1010.85 1109.6 1009.73 1111.19C1007.7 1113.97 1005.67 1116.76 1003.76 1119.63C1002.74 1121.14 1002.01 1122.82 1001.32 1124.48C1000.57 1126.26 999.812 1128 999.121 1129.8C998.509 1131.44 998.047 1133.11 997.53 1134.76C997.012 1136.41 996.576 1138.03 996.113 1139.71C995.202 1143.1 994.59 1146.57 993.883 1150.03C993.529 1151.76 993.161 1153.45 992.848 1155.16C992.886 1155.01 992.911 1154.82 992.949 1154.67C992.862 1155.2 992.749 1155.79 992.662 1156.33C991.971 1159.97 991.021 1163.51 990.385 1167.17C990.098 1168.83 989.851 1170.48 989.659 1172.15C989.426 1173.84 989.154 1175.54 988.975 1177.25C988.619 1180.68 988.601 1184.03 988.65 1187.45C988.706 1191.28 988.897 1195.11 989.304 1198.9C989.618 1201.91 990.513 1204.89 991.34 1207.81C992.28 1211.05 993.489 1214.15 994.859 1217.19C995.403 1218.38 996.041 1219.43 996.895 1220.46L996.856 1220.61ZM1083.38 1108.21C1083.38 1108.21 1083.71 1108.51 1083.85 1108.65C1083.61 1108.5 1083.34 1108.37 1083.07 1108.23C1083.07 1108.23 1083.14 1108.16 1083.16 1108.11C1083.23 1108.18 1083.29 1108.2 1083.35 1108.27L1083.38 1108.21Z" fill="#91DBE5"/>
<path d="M203.375 775.359C201.718 760.97 190.657 749.356 187.222 735.261C183.641 720.578 189.05 704.715 198.649 693.125C208.248 681.536 221.623 673.703 235.437 667.785C250.25 661.45 266.256 656.809 278.34 646.103C290.4 635.397 296.954 615.901 287.476 602.813C279.047 591.199 262.577 589.799 248.276 590.02C226.081 590.389 203.521 592.255 182.886 600.53C152.895 612.562 129.75 636.944 107.579 660.615C94.4719 674.685 80.7555 689.811 77.0767 708.742C75.1276 718.76 76.1752 729.073 77.4665 739.19C81.4133 769.859 90.1353 819.68 124.512 830.656C157.036 841.043 207.76 813.075 203.375 775.334V775.359Z" fill="#3860BF"/>
</svg>
