<svg width="1512" height="1188" viewBox="0 0 1512 1188" fill="none" xmlns="http://www.w3.org/2000/svg">
<path d="M1407.76 641.252C1350.34 641.252 1303.85 700.359 1303.85 770.534C1303.85 770.758 1303.85 770.982 1303.85 770.534H1280.72C1280.72 770.982 1280.72 770.758 1280.72 770.534C1280.72 700.359 1234.19 641.252 1176.81 641.252C1119.42 641.252 1072.9 699.911 1072.9 770.086V1057.42C1072.9 1127.59 1121 1188 1178.42 1188H1406.7C1464.12 1188 1512 1124.99 1512 1054.82L1511.74 770.086C1511.74 699.911 1465.22 641.252 1407.83 641.252H1407.76Z" fill="#FEF8E8"/>
<path d="M334.49 778.97C337.648 776.453 341.21 773.853 346.158 774.695C350.839 775.484 355.577 779.169 359.886 782.704C370.653 791.547 381.202 800.721 391.503 810.196C395.815 814.159 400.427 818.711 401.815 823.713C403.369 829.296 400.364 833.338 397.471 836.725C298.642 952.498 194.914 1063.69 86.4626 1170.07C90.0975 1166.51 28.2765 1118.24 22.5107 1110.84C8.15747 1092.47 8.91704 1080.73 16.2074 1066.93C37.1109 1027.38 84.183 998.224 115.901 968.318C185.981 902.246 258.889 839.096 334.483 778.963L334.49 778.97Z" fill="#DD5353"/>
<path d="M1257.21 22.8919C1257.53 22.8919 1257.85 22.8918 1258.17 22.8791C1258.71 22.8791 1259.26 22.7897 1259.78 22.713C1260.32 22.6236 1260.87 22.5342 1261.4 22.4064C1261.73 22.317 1262.06 22.2148 1262.38 22.0871C1262.62 21.9976 1262.85 21.8571 1263.08 21.7294L1263.19 21.6655C1263.73 21.3461 1264.31 21.014 1264.85 20.5924C1265.14 20.3753 1265.39 20.0815 1265.65 19.8132L1265.77 19.6727C1266.04 19.3916 1266.28 19.0851 1266.53 18.7657C1266.98 18.1908 1267.31 17.5393 1267.57 16.7346C1267.7 16.3385 1267.81 15.9298 1267.89 15.5082C1268.02 14.8184 1268.05 14.0902 1268 13.3365C1267.95 12.6978 1267.88 11.9314 1267.69 11.2032C1267.36 9.93854 1267.03 8.67386 1266.74 7.39642C1266.58 6.73215 1266.42 6.13175 1266.24 5.58244C1266.12 5.22476 1266.02 4.8543 1265.91 4.49661L1265.7 3.79402C1265.52 3.19362 1265.27 2.58044 1264.93 1.8523C1264.81 1.60958 1264.68 1.36687 1264.56 1.12415C1264.41 0.843115 1264.23 0.549302 1264.01 0.344911C1263.76 0.11497 1263.46 0 1263.13 0C1262.93 0 1262.75 0.0383234 1262.59 0.127745C1261.73 0.549302 1261.07 1.39242 1260.42 2.20998L1260.26 2.41437C1259.9 2.86148 1259.6 3.38523 1259.31 3.89621C1258.95 4.52216 1258.6 5.12256 1258.28 5.73574C1257.97 6.37446 1257.67 7.01318 1257.38 7.67746C1257.31 7.83075 1257.25 7.99682 1257.17 8.16289C1256.68 7.46029 1256.17 6.77047 1255.64 6.1062C1255.18 5.53135 1254.73 4.95649 1254.25 4.41997L1254.11 4.26667C1254 4.13893 1253.89 4.01118 1253.78 3.88344C1253.5 3.58963 1253.16 3.39801 1252.7 3.29581C1252.61 3.28304 1252.54 3.27026 1252.45 3.27026C1252.09 3.27026 1251.74 3.42356 1251.51 3.5513C1251.04 3.80679 1250.67 4.305 1250.4 4.701C1250.18 5.03314 1250.02 5.42915 1249.85 5.79961L1249.78 5.97845C1249.59 6.41278 1249.45 6.87266 1249.34 7.26867C1249.22 7.74133 1249.11 8.22676 1249.01 8.71219L1248.94 9.08265C1248.79 9.81079 1248.69 10.4623 1248.62 11.0882C1248.53 12.0335 1248.59 12.9916 1248.69 13.8986C1248.76 14.5884 1248.83 15.3294 1249 16.0447C1249.21 16.9389 1249.46 17.6671 1249.8 18.3569C1250 18.7529 1250.27 19.0978 1250.52 19.4044C1250.76 19.711 1251.01 20.0304 1251.28 20.3242C1251.77 20.8607 1252.19 21.2695 1252.64 21.6016C1253.15 21.9721 1253.72 22.2914 1254.35 22.5342C1254.99 22.7897 1255.67 22.8535 1256.32 22.9174C1256.63 22.9429 1256.95 22.9557 1257.27 22.9557L1257.21 22.8919Z" fill="#EF7FB2"/>
<path d="M1279.07 41.8742L1279.2 41.7336C1279.46 41.4526 1279.71 41.146 1279.95 40.8394C1280.41 40.2646 1280.73 39.6131 1280.99 38.8083C1281.11 38.4123 1281.22 38.0035 1281.31 37.5819C1281.43 36.8921 1281.46 36.164 1281.41 35.4103C1281.37 34.7716 1281.29 34.0051 1281.1 33.2769C1280.78 32.0123 1280.45 30.7476 1280.15 29.4701C1279.99 28.8059 1279.83 28.2055 1279.65 27.6562C1279.54 27.2985 1279.43 26.928 1279.33 26.5703L1279.11 25.8677C1278.93 25.2673 1278.68 24.6542 1278.34 23.926C1278.23 23.6833 1278.1 23.4406 1277.97 23.1979C1277.82 22.9168 1277.64 22.623 1277.42 22.4186C1277.18 22.1887 1276.87 22.0737 1276.54 22.0737C1276.34 22.0737 1276.16 22.1121 1276 22.2015C1275.15 22.623 1274.48 23.4661 1273.83 24.2837L1273.68 24.4881C1273.32 24.9352 1273.01 25.459 1272.72 25.9699C1272.36 26.5959 1272.02 27.1963 1271.7 27.8095C1271.38 28.4482 1271.08 29.0869 1270.8 29.7512C1270.72 29.9045 1270.65 30.0705 1270.59 30.2366C1270.09 29.534 1269.58 28.8442 1269.05 28.1799C1268.6 27.6051 1268.14 27.043 1267.67 26.4937L1267.53 26.3404C1267.41 26.2127 1267.31 26.0849 1267.19 25.9572C1266.92 25.6634 1266.58 25.4717 1266.11 25.3695C1266.03 25.3568 1265.95 25.344 1265.87 25.344C1265.51 25.344 1265.16 25.4973 1264.93 25.625C1264.45 25.8805 1264.08 26.3787 1263.81 26.7747C1263.59 27.1069 1263.42 27.4901 1263.26 27.8733L1263.19 28.0522C1263 28.4865 1262.86 28.9464 1262.76 29.3424C1262.63 29.8151 1262.52 30.3005 1262.43 30.7859L1262.35 31.1564C1262.21 31.8717 1262.1 32.536 1262.04 33.162C1261.94 34.1073 1262.01 35.0654 1262.1 35.9724C1262.17 36.6622 1262.25 37.4031 1262.42 38.1185C1262.62 39.0127 1262.87 39.7536 1263.21 40.4306C1263.41 40.8267 1263.69 41.1716 1263.93 41.4782C1264.17 41.7847 1264.43 42.1041 1264.69 42.3979C1265.18 42.9344 1265.61 43.3432 1266.06 43.6754C1266.57 44.0458 1267.14 44.3652 1267.76 44.6079C1268.41 44.8634 1269.08 44.9273 1269.73 44.9911C1270.05 45.0167 1270.36 45.0295 1270.68 45.0295C1271 45.0295 1271.32 45.0294 1271.63 45.0167C1272.17 45.0167 1272.72 44.9273 1273.24 44.8378C1273.79 44.7484 1274.33 44.659 1274.87 44.5312C1275.2 44.4418 1275.53 44.3396 1275.85 44.2247C1276.09 44.1352 1276.32 43.9947 1276.54 43.867L1276.66 43.8031C1277.2 43.4837 1277.78 43.1516 1278.32 42.73C1278.61 42.5129 1278.86 42.2191 1279.11 41.9508L1279.07 41.8742Z" fill="#EF7FB2"/>
</svg>
