<svg width="1512" height="1266" viewBox="0 0 1512 1266" fill="none" xmlns="http://www.w3.org/2000/svg">
<path d="M306.291 1131.36H208.791C204.996 1131.36 201.953 1127.6 202.301 1123.13C202.591 1119.13 205.807 1116.24 209.255 1116.24H307.334C323.531 1116.24 337.468 1105.21 343.987 1089.28C346.218 1080.88 347.435 1071.97 347.551 1062.73C347.551 1062.29 347.609 1061.86 347.609 1061.42C347.609 1057.52 347.348 1053.72 346.942 1049.96C346.855 1048.98 346.769 1048.01 346.653 1047.07C346.595 1046.7 346.566 1046.33 346.508 1045.96C346.363 1044.95 346.16 1043.97 345.986 1043C341.756 1022.16 325.675 1006.63 306.436 1006.63H210.066C206.271 1006.63 203.228 1002.87 203.576 998.4C203.866 994.401 207.082 991.51 210.53 991.51L336.193 992.955C341.785 980.251 347.58 967.345 347.58 952.187C347.58 899.554 310.348 856.904 265.002 856.904L80.7523 856.836V856.971C36.2183 858.046 0.376685 900.26 0.376685 952.187C0.376685 952.523 0.376685 952.859 0.376685 953.229H0L0.260673 1168.06C0.260673 1220.69 38.3915 1266 83.7368 1266H264.133C271.666 1265.8 300.032 1263.92 322.835 1238.1C327.819 1232.46 345.146 1212.7 347.58 1184.6C347.58 1184.66 347.58 1184.53 347.58 1184.6C347.725 1182.98 347.812 1181.24 347.812 1179.59C347.812 1152.94 329.181 1131.33 306.204 1131.33L306.291 1131.36Z" fill="#FAE884"/>
<path d="M1061.88 0C1034.22 76.8572 1059.98 178.469 1114.09 233.057C1168.2 287.645 1243.96 306.547 1315.32 299.414C1359.83 294.965 1405.2 280.202 1438.85 246.01C1467.7 216.685 1485.79 175.147 1495.99 132.186C1506.2 89.2247 1509.12 44.4482 1512 0H1061.88Z" fill="#FAE884"/>
<path opacity="0.4" d="M202.493 715.763C175.682 706.317 147.762 706.075 126.355 734.01C105.641 760.976 85.7575 804.655 81.5315 840.663C71.5553 924.71 135.777 961.688 200.622 949.739C263.874 938.113 295.327 841.309 276.137 772.36C270.317 751.53 253.829 741.68 238.033 732.718C226.948 726.34 214.825 720.042 202.424 715.763H202.493Z" fill="#D46F34"/>
<path d="M261.715 166.517C238.049 169.574 214.642 175.399 191.967 183.895C212.402 188.877 233.178 192.006 254.026 193.233C242.219 214.125 232.858 236.881 226.263 260.697C239.339 250.035 252.426 239.372 265.503 228.698C267.247 227.278 269.094 225.81 271.21 225.593C273.13 225.401 274.998 226.255 276.783 227.098C291.078 233.837 305.372 240.588 319.666 247.327C310.584 231.875 301.491 216.411 292.409 200.959C308.571 191.019 324.29 180.104 339.482 168.25C319.584 167.937 299.644 172.534 281.335 181.644C281.593 154.038 278.342 126.383 271.695 99.8838C271.004 105.54 258.206 166.976 261.705 166.519L261.715 166.517Z" fill="#DD5353"/>
</svg>
