<svg width="1512" height="1200" viewBox="0 0 1512 1200" fill="none" xmlns="http://www.w3.org/2000/svg">
<path d="M19.594 581.966C19.2639 580.596 18.968 579.215 18.733 577.818C18.6275 577.199 18.5354 576.576 18.4432 575.953C18.2485 574.623 18.5825 577.329 18.4514 575.997C18.41 575.629 18.3701 575.254 18.3345 574.887C18.0754 572.209 17.9953 569.522 18.0616 566.829C18.0945 565.496 18.1702 564.168 18.2711 562.841C18.319 562.239 18.3729 561.638 18.4326 561.039C18.4708 560.68 18.509 560.321 18.5488 559.956C18.6809 558.707 18.3789 561.256 18.5317 560.102C18.89 557.453 19.3204 554.817 19.8349 552.2C20.8937 546.843 22.2323 541.553 23.5533 536.259C24.5415 532.286 25.5473 528.318 26.6826 524.387C27.7493 520.683 28.8983 517.003 30.1325 513.362C30.7498 511.527 31.3907 509.7 32.0551 507.879C32.3873 506.969 32.7253 506.06 33.0634 505.151C33.2222 504.739 33.3751 504.324 33.5323 503.918C32.7285 506.047 33.4306 504.176 33.6323 503.666C36.4696 496.422 39.6414 489.329 43.1588 482.447C46.6564 475.593 50.4953 468.941 54.6992 462.573C55.7396 460.992 56.8063 459.432 57.895 457.885C58.1853 457.476 59.3427 455.881 58.0629 457.64C58.3123 457.294 58.5616 456.949 58.811 456.603C59.3639 455.846 59.9228 455.091 60.4859 454.343C62.7278 451.371 65.0631 448.481 67.4885 445.686C72.2626 440.176 77.4004 435.031 82.9013 430.383C83.0856 430.224 83.2742 430.073 83.4586 429.914C84.2241 429.267 82.3189 430.851 83.0931 430.219C83.409 429.962 83.7175 429.709 84.0334 429.451C84.7266 428.892 85.4225 428.348 86.1243 427.805C87.5263 426.726 88.944 425.686 90.3863 424.674C93.2603 422.666 96.215 420.792 99.25 419.077C100.767 418.224 102.299 417.408 103.847 416.632C104.623 416.248 105.404 415.872 106.188 415.504C106.367 415.419 106.544 415.34 106.723 415.255C107.336 414.968 105.325 415.883 106.182 415.502C106.614 415.313 107.047 415.117 107.477 414.933C110.668 413.559 113.922 412.361 117.225 411.348C120.529 410.335 123.971 409.499 127.405 408.874C127.881 408.786 128.35 408.703 128.828 408.629C129.307 408.556 130.818 408.338 128.851 408.615C129.732 408.495 130.609 408.366 131.491 408.266C133.271 408.057 135.058 407.898 136.849 407.795C140.523 407.582 144.198 407.588 147.872 407.806C149.762 407.917 151.65 408.089 153.539 408.309C154.059 408.371 154.578 408.439 155.098 408.508C155.477 408.557 156.141 408.674 154.421 408.414C154.682 408.456 154.944 408.491 155.207 408.526C156.174 408.67 157.138 408.827 158.103 409.005C165.697 410.362 173.19 412.504 180.338 415.615C180.599 415.732 182.133 416.418 181.05 415.925C179.967 415.432 181.49 416.135 181.749 416.258C182.591 416.654 183.423 417.066 184.253 417.486C185.905 418.329 187.539 419.221 189.15 420.155C192.359 422.026 195.472 424.081 198.481 426.298C199.98 427.404 201.456 428.552 202.898 429.738C203.118 429.919 204.399 430.99 203.511 430.245C202.622 429.501 203.9 430.584 204.113 430.769C204.818 431.385 205.516 432.006 206.205 432.638C208.959 435.15 211.6 437.815 214.12 440.609C216.64 443.402 218.987 446.283 221.232 449.298C221.79 450.05 222.328 450.809 222.878 451.571C221.651 449.872 222.645 451.236 222.905 451.613C223.193 452.032 223.48 452.452 223.76 452.875C224.797 454.423 225.796 455.994 226.757 457.595C228.668 460.76 230.434 464.027 232.047 467.379C232.842 469.035 233.601 470.714 234.323 472.41C234.682 473.255 235.028 474.102 235.366 474.953C235.445 475.147 235.517 475.339 235.595 475.533C235.859 476.199 235.018 474.016 235.369 474.941C235.544 475.409 235.72 475.871 235.888 476.338C238.334 483.056 240.149 490.056 241.158 497.205C241.194 497.441 241.223 497.683 241.259 497.919C241.396 498.897 241.091 496.507 241.173 497.223C241.222 497.662 241.278 498.096 241.328 498.535C241.422 499.405 241.507 500.286 241.576 501.155C241.714 502.894 241.806 504.64 241.842 506.383C241.916 509.836 241.78 513.297 241.422 516.734C241.396 516.966 241.371 517.199 241.345 517.431C241.235 518.413 241.532 515.931 241.435 516.656C241.381 517.078 241.326 517.507 241.266 517.928C241.145 518.777 241.011 519.622 240.867 520.463C240.571 522.144 240.215 523.815 239.806 525.47C239.397 527.125 238.923 528.762 238.396 530.383C238.132 531.196 237.852 531.999 237.56 532.797C237.504 532.946 237.45 533.087 237.395 533.236C237.044 534.195 238.005 531.687 237.626 532.632C237.455 533.068 237.28 533.497 237.105 533.925C235.778 537.122 234.215 540.209 232.433 543.13C231.978 543.874 231.511 544.615 231.029 545.339C230.808 545.672 230.587 546.005 230.362 546.33C230.224 546.529 230.088 546.723 229.951 546.922C229.373 547.755 230.865 545.674 230.266 546.487C229.205 547.925 228.106 549.332 226.951 550.688C224.537 553.514 221.905 556.126 219.119 558.516C218.92 558.684 218.721 558.852 218.527 559.022C217.762 559.669 219.498 558.235 218.939 558.682C218.562 558.984 218.191 559.287 217.813 559.588C217.046 560.194 216.269 560.783 215.484 561.357C213.86 562.543 212.203 563.657 210.505 564.712C208.806 565.766 206.929 566.851 205.093 567.824C204.142 568.329 203.19 568.813 202.222 569.285C201.776 569.505 201.327 569.716 200.879 569.922C200.608 570.049 200.335 570.182 200.06 570.3L200.805 569.962C200.621 570.046 200.436 570.129 200.253 570.206C195.975 572.1 191.584 573.715 187.119 575.013C184.868 575.674 182.593 576.253 180.3 576.751C179.161 576.996 178.019 577.226 176.872 577.427C176.35 577.522 175.831 577.604 175.311 577.693C174.944 577.75 173.828 577.823 175.474 577.671C175.165 577.698 174.846 577.763 174.539 577.804C170.004 578.418 165.424 578.676 160.858 578.521C158.607 578.442 156.354 578.267 154.116 577.98C153.725 577.928 152.622 577.697 154.36 578.016C154.106 577.97 153.855 577.938 153.606 577.9C153.053 577.815 152.496 577.722 151.948 577.617C150.844 577.413 149.751 577.191 148.655 576.928C146.479 576.419 144.319 575.791 142.199 575.052C141.137 574.682 140.088 574.281 139.045 573.855C138.569 573.662 138.102 573.458 137.63 573.252C136.558 572.79 138.918 573.859 137.863 573.354C137.587 573.219 137.304 573.089 137.029 572.954C132.889 570.943 128.953 568.443 125.315 565.503C125.062 565.299 124.822 565.072 124.561 564.879C125.804 565.795 125.119 565.35 124.807 565.081C124.349 564.688 123.901 564.283 123.453 563.873C122.549 563.041 121.668 562.189 120.808 561.303C119.043 559.488 117.369 557.557 115.799 555.539C115.43 555.069 115.073 554.595 114.713 554.114C114.411 553.704 113.193 551.946 114.514 553.871C114.075 553.223 113.629 552.58 113.206 551.916C112.36 550.594 111.564 549.247 110.81 547.856C110.056 546.466 109.357 545.058 108.71 543.616C108.383 542.898 108.071 542.17 107.768 541.431C107.63 541.097 107.497 540.764 107.359 540.429C107.193 540.004 106.879 539.105 107.585 541.022C107.51 540.815 107.433 540.615 107.357 540.415C106.25 537.415 105.333 534.334 104.606 531.204C104.237 529.632 103.924 528.04 103.649 526.447C103.513 525.647 103.389 524.844 103.274 524.036C103.202 523.509 103.029 522.013 103.291 524.247C103.236 523.806 103.187 523.367 103.139 522.922C102.431 516.421 102.451 509.831 103.155 503.33C103.178 503.111 103.208 502.887 103.231 502.667C103.009 504.713 103.064 504.03 103.123 503.588C103.182 503.146 103.235 502.703 103.299 502.262C103.411 501.452 103.535 500.646 103.664 499.841C103.929 498.233 104.241 496.639 104.588 495.055C105.286 491.901 106.154 488.797 107.189 485.755C107.445 485.001 107.713 484.25 107.992 483.502C108.461 482.241 107.391 485.04 107.89 483.76C108.046 483.36 108.209 482.956 108.371 482.557C108.97 481.101 109.609 479.664 110.292 478.253C111.644 475.46 113.164 472.758 114.853 470.187C115.269 469.548 115.706 468.928 116.139 468.3C116.382 467.953 116.784 467.474 115.628 469.015C115.75 468.852 115.868 468.681 115.992 468.511C116.238 468.178 116.483 467.852 116.735 467.521C117.648 466.328 118.608 465.175 119.602 464.06C120.597 462.945 121.623 461.88 122.695 460.862C123.231 460.354 123.771 459.853 124.325 459.37C124.575 459.148 124.83 458.935 125.086 458.715C125.423 458.422 126.141 457.918 124.588 459.125C124.745 458.999 124.896 458.872 125.053 458.746C127.35 456.906 129.795 455.281 132.35 453.9C132.997 453.554 133.647 453.222 134.307 452.9C134.758 452.682 136.006 452.202 134.103 452.985C134.475 452.833 134.838 452.664 135.212 452.506C136.583 451.931 137.982 451.427 139.395 450.995C140.807 450.563 142.307 450.183 143.787 449.887C144.125 449.821 144.469 449.757 144.813 449.692C145.308 449.603 146.968 449.394 144.856 449.671C145.632 449.567 146.403 449.462 147.184 449.388C150.441 449.074 153.722 449.096 156.976 449.404C157.377 449.438 157.782 449.487 158.18 449.535C159.267 449.652 156.754 449.305 157.833 449.482C158.112 449.529 158.386 449.567 158.663 449.62C159.671 449.804 160.67 450.025 161.663 450.293C162.657 450.561 163.629 450.864 164.594 451.22C165.034 451.382 165.466 451.549 165.902 451.723C166.16 451.826 166.422 451.943 166.679 452.052C167.599 452.436 165.386 451.437 166.344 451.9C168.211 452.792 170.025 453.798 171.764 454.954C172.636 455.536 173.488 456.147 174.319 456.792C174.7 457.088 175.068 457.386 175.44 457.693C176.301 458.395 174.367 456.751 175.199 457.493C175.416 457.686 175.635 457.873 175.852 458.066C177.43 459.491 178.922 461.034 180.315 462.671C181.015 463.491 181.683 464.336 182.332 465.203C182.626 465.596 183.555 467.072 182.515 465.434C182.832 465.937 183.181 466.415 183.5 466.912C184.675 468.74 185.734 470.657 186.677 472.636C187.144 473.628 187.576 474.637 187.987 475.654C188.133 476.011 188.295 476.654 187.775 475.085C187.869 475.366 187.983 475.646 188.084 475.929C188.284 476.494 188.478 477.064 188.658 477.637C189.32 479.733 189.849 481.88 190.225 484.058C190.31 484.555 190.384 485.049 190.457 485.543C190.633 486.697 190.296 484.051 190.414 485.208C190.446 485.512 190.48 485.81 190.506 486.112C190.601 487.133 190.667 488.166 190.691 489.193C190.707 490.02 190.691 490.851 190.644 491.68C190.619 492.063 190.593 492.446 190.556 492.825C190.54 493.019 190.518 493.211 190.503 493.399C190.459 493.934 190.741 491.543 190.568 492.856C190.336 494.583 189.982 496.296 189.53 497.973C189.299 498.83 189.045 499.681 188.761 500.523C188.634 500.911 188.495 501.295 188.357 501.673C188.275 501.903 187.958 502.728 188.382 501.625C188.833 500.462 188.397 501.561 188.306 501.802C187.626 503.481 186.851 505.112 185.988 506.69C185.125 508.268 184.152 509.78 183.133 511.251C184.333 509.511 183.453 510.796 183.146 511.2C182.856 511.582 182.554 511.96 182.248 512.33C181.689 513.01 181.117 513.666 180.519 514.3C179.92 514.934 179.317 515.54 178.688 516.118C178.403 516.377 178.118 516.637 177.823 516.887C177.655 517.03 177.02 517.558 177.853 516.868C178.732 516.144 177.88 516.835 177.699 516.981C176.394 517.999 175.016 518.907 173.577 519.674C173.251 519.846 172.927 520.006 172.598 520.163C171.758 520.577 173.96 519.58 173.095 519.938C172.892 520.023 172.694 520.109 172.491 520.187C171.757 520.481 171.006 520.735 170.248 520.946C169.489 521.157 168.697 521.222 167.947 521.449C167.9 521.463 169.492 521.247 168.722 521.325C168.509 521.345 168.294 521.372 168.081 521.392C167.655 521.433 167.22 521.457 166.796 521.464C165.996 521.485 165.197 521.451 164.403 521.371C163.117 521.238 165.855 521.622 164.543 521.392C164.095 521.316 163.657 521.223 163.217 521.116C162.384 520.915 161.57 520.658 160.764 520.348C160.263 520.155 158.957 519.44 160.782 520.402C160.347 520.172 159.905 519.969 159.48 519.722C158.681 519.257 157.915 518.733 157.18 518.157C157.043 518.048 156.913 517.935 156.776 517.827C158.228 518.92 157.438 518.389 157.109 518.088C156.718 517.728 156.337 517.357 155.965 516.975C155.271 516.259 154.621 515.495 154.011 514.695C153.897 514.545 153.789 514.397 153.68 514.249C153.017 513.385 154.49 515.464 153.884 514.548C153.57 514.08 153.265 513.608 152.974 513.126C152.436 512.237 151.946 511.314 151.499 510.362C151.296 509.933 151.102 509.493 150.922 509.05C150.848 508.865 150.482 507.943 150.876 508.955C151.269 509.967 150.828 508.79 150.755 508.577C150.419 507.589 150.137 506.583 149.905 505.556C149.805 505.096 149.712 504.63 149.638 504.164C149.6 503.933 149.57 503.699 149.532 503.468C149.452 503.027 149.705 505.115 149.584 503.744C149.493 502.731 149.462 501.708 149.507 500.687C149.526 500.227 149.58 499.777 149.605 499.318C149.474 501.507 149.592 499.602 149.712 499.014C149.803 498.568 149.912 498.127 150.037 497.697C150.212 497.091 151.016 495.447 150.085 497.376C150.525 496.462 150.914 495.555 151.452 494.704C151.71 494.3 152.333 493.666 151.208 495.003C151.325 494.859 151.434 494.699 151.546 494.553C151.905 494.096 152.292 493.654 152.702 493.245C152.837 493.107 153 492.983 153.129 492.842C152.093 493.973 152.448 493.377 152.883 493.072C153.242 492.82 153.638 492.647 153.993 492.408C152.763 493.229 153.071 492.798 153.607 492.618C153.759 492.566 153.91 492.514 154.066 492.471C154.296 492.407 154.536 492.381 154.762 492.31C153.297 492.775 153.739 492.444 154.292 492.399C154.684 492.369 155.084 492.362 155.476 492.38C156.045 492.402 157.363 492.736 155.46 492.321C159.014 493.1 162.297 494.643 165.782 495.676C168.551 496.494 171.865 494.594 172.5 491.463C173.135 488.332 171.594 485.049 168.625 484.173C166.768 483.62 164.973 482.872 163.156 482.207C160.926 481.381 158.713 480.813 156.363 480.548C151.293 479.98 146.468 482.482 143.339 486.772C140.21 491.061 138.454 496.407 138.529 502.025C138.595 507.195 140.022 512.295 142.255 516.834C144.489 521.374 147.649 525.203 151.435 528.262C155.22 531.32 159.406 532.632 163.833 533.199C171.663 534.207 179.124 530.765 185.197 525.639C191.271 520.513 195.776 513.178 198.709 505.42C200.148 501.612 200.992 497.714 201.451 493.635C201.952 489.184 201.532 484.679 200.717 480.298C197.099 460.862 182.521 443.791 164.789 438.845C157.177 436.722 149.021 436.825 141.321 438.301C134.99 439.516 128.789 442.098 123.297 445.715C112.455 452.86 104.075 464.001 98.9346 476.508C93.5281 489.656 90.9778 504.162 91.8127 518.549C92.6288 532.629 96.4642 546.819 104.06 558.375C109.868 567.213 117.306 574.786 126.009 580.177C134.712 585.569 144.392 588.614 154.352 589.864C164.312 591.114 173.948 590.228 183.513 588.124C193.078 586.019 202.369 582.499 211.084 577.812C224.962 570.35 237.353 558.902 244.732 543.95C251.373 530.502 253.866 514.952 252.44 499.818C250.948 483.953 245.89 468.689 238.297 455.078C230.226 440.596 219.469 428.073 206.871 418.125C194.274 408.178 179.358 401.228 163.869 398.001C148.146 394.728 131.942 394.856 116.392 399.201C102.367 403.12 89.1541 410.363 77.6292 419.837C65.3765 429.908 54.9169 442.013 45.8985 455.51C37.139 468.622 29.9096 482.92 24.0956 497.82C21.0361 505.657 18.2806 513.617 15.9613 521.752C14.7554 525.942 13.7257 530.109 12.6753 534.283C11.329 539.68 9.97692 545.075 8.95594 550.559C6.81436 562.033 6.2527 573.699 9.01312 585.118C9.73842 588.13 12.946 590.261 15.7491 589.28C18.5522 588.3 20.3751 585.186 19.594 581.966Z" fill="#090603"/>
<path opacity="0.2" d="M520.298 1020.16C590.074 774.804 93.2389 501.833 29.8283 805.319C-0.0957534 948.617 99.2237 1096.99 206.048 1165.27C333.867 1247.03 475.222 1178.74 520.346 1020.11L520.298 1020.16Z" fill="#D46F34"/>
<g clip-path="url(#clip0_1279_32238)">
<path d="M739.656 629.881C730.13 640.833 725.762 657.878 731.655 671.504C734.695 678.537 740.042 684.048 745.436 689.152C752.166 695.531 759.311 701.665 767.623 705.248C775.925 708.84 785.64 709.616 793.669 705.37C802.038 700.94 807.507 691.652 810.02 681.935C812.533 672.219 812.477 661.971 812.411 651.877C812.383 648.549 812.364 645.222 812.336 641.894C812.006 595.576 760.007 606.497 739.656 629.871V629.881Z" fill="#4D63BF"/>
</g>
<path d="M1259.44 299.307C1261.05 299.309 1262.66 299.312 1264.27 299.314C1268.54 299.234 1272.78 298.774 1276.3 298.285C1282.1 297.653 1288.25 296.702 1295.18 295.374C1300.15 294.363 1304.77 293.38 1309.2 292.368L1311.11 291.876C1312.77 291.471 1314.36 291.095 1316 290.603C1318.15 290.024 1320.32 289.241 1322.44 288.575L1323.33 288.256C1328.7 286.517 1332.81 285.33 1336.76 284.201C1338.91 283.622 1341.14 283.014 1343.32 282.231C1344.85 281.681 1346.46 281.101 1347.94 280.375C1349.12 279.853 1350.3 279.331 1351.4 278.838C1352.88 278.112 1354.33 277.299 1355.78 276.486L1356.78 275.935C1357.5 275.674 1358.31 275.384 1359.03 275.123C1360.32 274.659 1361.53 274.224 1362.82 273.761L1364.62 272.919C1366.83 271.933 1369.11 270.917 1371.29 269.843L1372.25 269.495C1373.95 268.596 1375.75 267.754 1377.41 266.767C1387.33 261.163 1395.82 255.295 1403.56 249.019C1406.06 246.956 1408.13 245.241 1410.12 243.264C1411.92 241.55 1413.67 239.66 1415.42 237.77C1418.11 234.863 1420.47 231.78 1422.52 228.523C1423.84 226.4 1424.97 224.247 1426.07 222.007L1426.29 221.541C1430.08 214.065 1433.13 207.635 1435.2 200.68C1435.77 198.73 1436.26 196.81 1436.74 194.889C1438.84 189.477 1440.3 184.297 1441.17 179.232C1442.22 173.032 1442.93 167.443 1443.28 162.174C1443.86 154.402 1442.37 146.597 1440.79 139.403C1440.18 136.52 1439.19 132.704 1437.91 129.092C1437.13 127.14 1436.27 125.217 1435.42 123.294C1435.09 122.537 1434.8 121.866 1434.48 121.109C1434.13 119.391 1433.73 117.789 1433.38 116.07C1432.34 111.207 1430.69 106.371 1428.68 101.855C1427.77 99.7576 1426.64 97.8342 1425.52 95.9109C1424.34 93.8128 1423.32 91.6568 1422.28 89.4133C1421.26 87.2572 1420.19 85.2175 1418.85 83.1774C1417.48 81.0499 1416.06 79.0388 1414.61 76.9403C1413.84 75.8618 1413.17 74.8418 1412.34 73.8797C1411.51 72.9176 1410.62 72.0719 1409.63 71.1678C1407.97 69.5348 1406.14 67.9597 1404.53 66.2103C1402.71 64.3441 1400.97 62.449 1398.95 60.8445C1397.18 59.4442 1395.47 57.9276 1393.64 56.6437C1389.62 53.7259 1385.09 51.477 1380.63 49.4902C1376.5 47.6787 1372.15 46.0414 1367.83 44.7827C1358.62 42.1771 1349.39 39.7753 1340.05 37.6061C1335.13 36.463 1330.25 35.6983 1325.23 35.6614C1320.66 35.6542 1316.21 35.9966 1311.64 36.5717C1306.38 37.204 1301.19 38.0984 1296.01 39.284C1291.5 40.325 1286.98 41.3661 1282.47 42.4071C1280.81 42.8121 1279.17 43.3045 1277.56 43.8843C1273.18 45.0711 1269.07 46.5495 1265.76 47.738C1263.1 48.6946 1260.52 49.6222 1257.86 50.5789L1251.9 52.724C1250.93 53.0718 1249.97 53.4197 1249 53.7676C1247.66 54.3477 1246.42 54.9863 1245.18 55.6249L1244.3 55.9438C1241.99 57.163 1239.73 58.2658 1237.39 59.3976C1233.04 61.5452 1228.63 64.1004 1224.44 66.7724C1220.41 69.3863 1216.43 72.4663 1212.69 75.4592L1212.26 75.8079C1204.6 81.7644 1197.1 88.5363 1189.22 96.414C1186.08 99.5825 1182.82 103.275 1179.22 107.869C1175.37 112.842 1172.2 117.379 1169.61 121.8C1168.19 124.156 1166.98 126.629 1165.74 129.015L1165.42 129.713C1164.34 131.749 1163.29 133.873 1162.43 136.026C1160 141.845 1158.03 147.694 1156.5 152.612C1154.96 157.53 1153.64 162.565 1152.29 167.512L1151.99 168.589C1150.51 174.264 1149.48 179.095 1148.96 183.549C1148.53 187.1 1148.26 190.011 1148.15 192.864C1148.09 195.019 1148.14 197.231 1148.27 199.415L1148.32 200.463C1148.61 206.374 1149.11 211.819 1149.91 217.352C1150.74 222.682 1152.45 227.692 1154.21 232.295L1154.91 233.984C1156.65 238.5 1158.42 243.103 1160.64 247.444C1163.32 252.689 1166.69 257.295 1169.35 260.705C1171.28 263.212 1172.81 264.99 1174.28 266.594C1176 268.402 1177.85 270.064 1179.62 271.756C1183.69 275.43 1188.04 278.815 1191.82 281.528C1193.78 282.958 1196.01 284.388 1198.47 285.731C1201.37 287.308 1204.19 288.622 1207.01 289.646C1211.44 291.254 1215.97 292.629 1220.37 293.859C1225.98 295.528 1230.31 296.786 1234.98 297.725C1240.86 298.812 1246.06 299.46 1251 299.526C1253.72 299.618 1256.4 299.622 1259.17 299.597L1259.44 299.307Z" fill="#91DBE5"/>
<path d="M1166.9 236.185C1172.03 252.761 1192.98 260.692 1206.5 251.189C1219.22 242.248 1224.74 221.906 1239.61 218.691C1263.69 213.496 1277.71 258.569 1301.95 254.343C1320.68 251.067 1332.07 210.914 1352.49 219.303C1358.64 221.825 1363.09 227.581 1367.11 233.225C1383.28 255.987 1409.93 259.089 1427.83 235.206C1434.94 225.703 1445.29 214.18 1459.4 219.875C1477.82 227.306 1476.08 263.733 1512 244.892" stroke="#FAE884" stroke-width="18" stroke-miterlimit="10" stroke-linecap="round"/>
<path d="M1099.7 256.82C1101.08 254.453 1103.31 252.521 1105.72 251.362C1114.6 247.112 1125.66 250.976 1134.53 253.632C1124.63 244.841 1117.5 232.477 1114.55 218.952C1112.19 208.181 1114.15 194.078 1123.79 190.407C1131.46 187.461 1139.71 192.918 1145.24 199.391C1153.71 209.341 1159.11 222.382 1160.22 235.906C1165.13 218.469 1177.26 200.791 1194.07 200.405C1196.79 200.357 1199.69 200.84 1201.7 202.82C1205.31 206.346 1204.46 212.673 1202.68 217.552C1199.11 227.26 1192.91 235.809 1185.02 241.799C1193.89 240.688 1203.17 245.18 1208.39 253.053C1213.56 260.926 1214.45 271.89 1210.62 280.632C1206.47 290.099 1181.85 277.299 1177.08 280.004C1169.94 284.11 1174.05 299.614 1169.05 308.646C1164.5 316.906 1155.49 322.509 1146.71 321.011C1143.36 320.432 1140.06 318.79 1137.92 315.891C1136.41 313.863 1135.6 311.351 1135.02 308.84C1132.97 299.469 1134.85 289.181 1139.93 281.308C1126.82 289.423 1108.13 284.11 1100.42 270.054C1099.08 267.446 1098.01 264.5 1098.19 261.457C1098.32 259.766 1098.85 258.221 1099.66 256.82H1099.7Z" fill="#09A868"/>
<defs>
<clipPath id="clip0_1279_32238">
<rect width="83.4485" height="98.5155" fill="white" transform="translate(728.98 609.753)"/>
</clipPath>
</defs>
</svg>
