<svg width="1510" height="1065" viewBox="0 0 1510 1065" fill="none" xmlns="http://www.w3.org/2000/svg">
<g clip-path="url(#clip0_1466_30863)">
<path opacity="0.2" d="M551.858 889.479C626.134 650.058 97.2517 383.691 29.751 679.834C-2.10323 819.665 103.623 964.45 217.337 1031.08C353.401 1110.85 503.874 1044.22 551.908 889.429L551.858 889.479Z" fill="#D46F34"/>
<g clip-path="url(#clip1_1466_30863)">
<path d="M240.53 970.492C240.696 970.336 240.869 970.191 241.052 970.046L240.04 970.831C240.952 970.158 241.981 969.712 243.009 969.245C244.105 968.743 245.139 968.153 246.145 967.496C248.18 966.166 250.121 964.74 252.301 963.638C254.48 962.535 256.888 961.533 259.162 960.431C260.152 959.952 261.102 959.462 262.003 958.827C262.826 958.248 263.638 957.636 264.567 957.224L263.371 957.731C263.649 957.619 263.922 957.536 264.211 957.486L262.882 957.664C262.987 957.647 263.099 957.642 263.204 957.642C265.818 957.552 268.331 955.398 268.208 952.631C268.086 949.863 266.007 947.525 263.204 947.62C260.669 947.703 258.712 948.956 256.71 950.342C255.047 951.495 253.107 952.263 251.272 953.093C249.27 954 247.235 954.886 245.35 956.016C243.465 957.146 241.858 958.41 240.046 959.501C239.112 960.063 238.128 960.503 237.138 960.96C235.781 961.583 234.563 962.385 233.457 963.404C231.528 965.186 231.522 968.71 233.457 970.492C235.52 972.39 238.472 972.39 240.535 970.492H240.53Z" fill="#090603"/>
<path d="M269.159 975.542C273.963 975.553 278.133 973.058 281.936 970.392C285.389 967.975 288.987 965.865 292.879 964.217L291.683 964.724C294.447 963.566 297.31 962.697 300.28 962.24C301.436 962.062 302.704 960.904 303.271 959.935C303.899 958.861 304.166 957.28 303.777 956.072C303.388 954.863 302.637 953.689 301.475 953.076L300.28 952.569C299.39 952.33 298.506 952.33 297.616 952.569C292.284 953.388 287.23 955.57 282.526 958.148C280.557 959.228 278.723 960.448 276.888 961.734C275.053 963.02 273.123 964.334 271.022 965.241L272.217 964.735C271.261 965.136 270.277 965.436 269.253 965.598L270.582 965.42C270.11 965.481 269.637 965.514 269.159 965.514C266.54 965.509 264.032 967.825 264.155 970.525C264.277 973.225 266.351 975.53 269.159 975.536V975.542Z" fill="#090603"/>
<path d="M290.745 950.303C296.172 948.282 301.509 946.011 306.742 943.527C309.021 942.442 311.301 941.345 313.497 940.098C315.694 938.851 317.712 937.642 319.953 936.674L318.757 937.18C320.031 936.646 321.343 936.212 322.711 936.011L321.382 936.189L321.587 936.161C322.961 935.989 324.106 935.716 325.124 934.692C325.991 933.823 326.647 932.398 326.592 931.151C326.536 929.903 326.108 928.511 325.124 927.61C324.217 926.774 322.866 925.984 321.587 926.14C320.125 926.323 318.741 926.535 317.356 927.019C315.972 927.504 314.709 928.066 313.436 928.695C311.435 929.681 309.527 930.85 307.57 931.93C303.267 934.307 298.718 936.317 294.198 938.233L295.393 937.726C292.98 938.745 290.539 939.714 288.081 940.632C286.836 941.1 285.785 941.751 285.09 942.937C284.462 944.012 284.195 945.593 284.584 946.801C284.973 948.009 285.724 949.184 286.886 949.797C288.048 950.409 289.494 950.765 290.745 950.303Z" fill="#090603"/>
<path d="M332.451 957.463C337.966 955.503 343.36 953.165 348.636 950.637C350.688 949.657 352.762 948.705 354.68 947.475C356.404 946.372 358.1 945.198 359.99 944.39L358.795 944.897C359.451 944.63 360.118 944.418 360.819 944.312L359.49 944.491C359.918 944.44 360.33 944.435 360.758 944.491L359.429 944.312L359.579 944.34C360.936 944.574 362.203 944.557 363.438 943.834C364.478 943.227 365.467 942.035 365.74 940.838C366.029 939.558 365.968 938.116 365.234 936.974C364.566 935.939 363.504 934.892 362.242 934.669C360.591 934.385 359.145 934.369 357.499 934.775C356.248 935.081 355.042 935.638 353.902 936.223C352.228 937.074 350.694 938.166 349.103 939.157C347.241 940.315 345.211 941.211 343.232 942.152C340.83 943.299 338.406 944.396 335.959 945.432L337.154 944.925C334.73 945.949 332.278 946.913 329.798 947.792C328.558 948.232 327.491 948.928 326.807 950.097C326.179 951.172 325.912 952.753 326.301 953.961C327.085 956.394 329.815 958.399 332.456 957.463H332.451Z" fill="#090603"/>
<path d="M356.282 929.519C359.941 927.676 363.321 925.316 367.097 923.701L365.901 924.208C367.341 923.601 368.826 923.111 370.377 922.894L369.048 923.072L369.248 923.05C370.622 922.883 371.767 922.604 372.785 921.58C373.652 920.711 374.308 919.286 374.253 918.039C374.197 916.792 373.769 915.4 372.785 914.498C371.878 913.663 370.533 912.872 369.248 913.028C367.447 913.251 365.762 913.562 364.066 914.214C362.37 914.865 360.613 915.667 358.956 916.547C356.354 917.933 353.869 919.542 351.233 920.873C348.892 922.053 348.036 925.55 349.437 927.726C350.983 930.126 353.78 930.789 356.282 929.525V929.519Z" fill="#090603"/>
<path d="M313.246 991.053C315.048 991.087 316.799 990.524 318.351 989.633C319.196 989.143 319.958 988.531 320.786 988.008C322.843 986.71 325.045 985.647 327.286 984.695L326.091 985.201C328.654 984.121 331.267 983.18 333.814 982.05C336.36 980.92 338.74 979.606 340.62 977.657C342.499 975.709 342.632 972.424 340.62 970.57C338.651 968.76 335.487 968.554 333.541 970.57C333.224 970.898 332.891 971.193 332.535 971.477L333.547 970.692C331.818 972.028 329.81 972.958 327.809 973.804L329.004 973.298C326.174 974.484 323.288 975.514 320.503 976.8C319.018 977.485 317.567 978.236 316.166 979.083C314.948 979.818 313.852 980.764 312.551 981.349L313.747 980.842C313.358 980.998 312.968 981.115 312.551 981.176L313.88 980.998C313.663 981.02 313.463 981.026 313.246 981.02C310.628 980.97 308.125 983.364 308.242 986.031C308.359 988.698 310.439 990.986 313.246 991.042V991.053Z" fill="#090603"/>
<path d="M252.618 1012.35C260.158 1009.62 267.458 1006.26 275.081 1003.76C276.649 1003.25 278.262 1002 278.579 1000.26C278.64 999.939 278.695 999.622 278.757 999.299C279.001 997.951 278.968 996.66 278.251 995.435C277.645 994.394 276.455 993.403 275.259 993.13C273.98 992.84 272.54 992.902 271.4 993.636C270.361 994.31 269.332 995.362 269.098 996.632C269.037 996.955 268.982 997.272 268.921 997.595L272.418 994.093C264.795 996.593 257.494 999.945 249.955 1002.68C248.709 1003.13 247.653 1003.81 246.963 1004.98C246.335 1006.06 246.068 1007.64 246.457 1008.85C247.241 1011.26 249.977 1013.3 252.612 1012.35H252.618Z" fill="#090603"/>
<path d="M296.709 1027.35C297.349 1027.06 297.994 1026.79 298.644 1026.51L297.449 1027.01C301.33 1025.38 305.283 1023.91 309.142 1022.22C310.788 1021.5 312.406 1020.73 313.974 1019.87C315.542 1019 316.971 1018.19 318.556 1017.52L317.36 1018.02C318.322 1017.63 319.301 1017.3 320.324 1017.15L318.995 1017.33L319.2 1017.3C320.579 1017.12 321.714 1016.85 322.737 1015.83C323.604 1014.96 324.26 1013.54 324.205 1012.29C324.149 1011.04 323.721 1009.65 322.737 1008.75C321.83 1007.91 320.479 1007.12 319.2 1007.28C317.36 1007.51 315.803 1007.89 314.096 1008.61C312.734 1009.18 311.422 1009.83 310.126 1010.54C307.758 1011.84 305.361 1013.03 302.87 1014.09L304.066 1013.58C299.94 1015.32 295.736 1016.86 291.649 1018.7C290.576 1019.18 289.648 1020.61 289.348 1021.69C289.02 1022.89 289.164 1024.49 289.854 1025.56C290.543 1026.62 291.566 1027.57 292.845 1027.86C294.235 1028.18 295.408 1027.93 296.704 1027.35H296.709Z" fill="#090603"/>
<path d="M358.667 996.331C363.204 994.31 367.814 992.434 372.251 990.184C373.852 989.377 375.303 988.492 376.755 987.445C378.128 986.454 379.518 985.407 381.086 984.739L379.891 985.246C380.235 985.107 380.586 984.995 380.953 984.934L379.624 985.112C379.746 985.096 379.857 985.09 379.98 985.084C382.593 985.012 385.106 982.835 384.984 980.074C384.862 977.312 382.782 974.985 379.98 975.063C375.448 975.191 372.462 978.754 368.731 980.742C363.833 983.347 358.684 985.424 353.624 987.679C352.551 988.158 351.622 989.589 351.322 990.674C350.994 991.871 351.139 993.469 351.828 994.538C352.518 995.607 353.541 996.548 354.82 996.843L356.148 997.022C357.049 997.022 357.894 996.793 358.673 996.337L358.667 996.331Z" fill="#090603"/>
<path d="M378.925 961.734C382.767 959.022 386.881 956.778 391.135 954.791C393.254 953.8 395.394 952.876 397.451 951.762C399.509 950.648 401.394 949.568 403.473 948.683L402.278 949.19C403.59 948.644 404.93 948.204 406.326 947.92C407.504 947.681 408.722 946.629 409.317 945.615C409.945 944.541 410.212 942.96 409.823 941.751C408.939 939.023 406.42 937.693 403.668 938.249C399.264 939.14 395.4 941.54 391.474 943.594C387.549 945.649 383.796 947.102 380.098 949.162C377.957 950.353 375.883 951.656 373.876 953.07C372.792 953.839 371.941 954.741 371.574 956.066C371.246 957.263 371.391 958.861 372.08 959.93C372.77 960.999 373.793 961.94 375.072 962.235C376.35 962.53 377.841 962.496 378.93 961.728L378.925 961.734Z" fill="#090603"/>
<path d="M260.964 934.291C266.24 931.73 270.956 928.088 276.327 925.717L275.131 926.223C277.289 925.327 279.73 924.987 282.037 924.67C283.055 924.531 284.083 924.386 285.073 924.085C286.613 923.618 288.326 922.844 289.388 921.574C290.261 920.533 290.856 919.436 290.856 918.033C290.856 916.803 290.311 915.339 289.388 914.492C288.465 913.646 287.175 912.961 285.84 913.022C284.584 913.078 283.144 913.484 282.304 914.492C282.182 914.637 282.054 914.765 281.909 914.888L282.921 914.102C282.632 914.325 282.332 914.492 281.998 914.643L283.194 914.136C281.464 914.86 279.563 914.915 277.745 915.244C276.633 915.444 275.509 915.656 274.414 915.923C272.829 916.302 271.339 916.992 269.894 917.727C265.112 920.149 260.741 923.3 255.915 925.639C254.836 926.162 253.925 927.515 253.613 928.634C253.285 929.831 253.43 931.429 254.119 932.498C254.809 933.567 255.832 934.508 257.111 934.803C258.478 935.115 259.702 934.914 260.969 934.296L260.964 934.291Z" fill="#090603"/>
</g>
<path d="M1361.89 363.084C1347.25 347.68 1356.55 322.139 1351.74 301.375C1348.1 285.671 1336.16 273.094 1322.64 264.449C1309.13 255.804 1293.85 250.387 1279.27 243.704C1266.5 237.843 1252.62 228.689 1251.61 214.594C1250.67 201.563 1262.14 190.187 1274.73 186.917C1287.32 183.636 1300.6 186.538 1313.14 189.944C1333.8 195.554 1354.08 202.503 1374.32 209.443C1389.48 214.642 1405.71 220.65 1414.57 234.051C1423.29 247.249 1422.68 264.384 1421.15 280.167C1418.66 305.869 1417.29 337.39 1407.77 361.593C1400.31 380.586 1374.27 376.099 1361.89 363.084Z" fill="#BA9161"/>
<path d="M1383.56 171.505C1385.52 169.466 1387.74 167.457 1390.5 166.89C1397.14 165.522 1402.14 172.805 1404.33 179.237C1408.45 191.354 1409.79 204.435 1408.19 217.173C1428.04 206.268 1454.74 209.991 1470.75 225.9C1474.24 229.363 1477.39 233.735 1477.34 238.678C1477.26 246.489 1469.61 251.818 1462.72 255.476C1453.62 260.312 1444.29 264.715 1434.78 268.666C1444.27 273.873 1453.95 279.552 1460.26 288.379C1464.71 294.609 1466.81 304.169 1461.2 309.428C1455.71 314.576 1446.87 312.159 1440.11 308.961C1417.15 298.098 1397.04 281.396 1381.84 261.009C1369.38 244.291 1360.17 229.45 1364.47 208.352C1367.26 194.61 1373.85 181.636 1383.56 171.505Z" fill="#2AA86C"/>
</g>
<defs>
<clipPath id="clip0_1466_30863">
<rect width="1510" height="1065" fill="white"/>
</clipPath>
<clipPath id="clip1_1466_30863">
<rect width="178" height="115" fill="white" transform="translate(232 913)"/>
</clipPath>
</defs>
</svg>
