<svg width="1492" height="820" viewBox="0 0 1492 820" fill="none" xmlns="http://www.w3.org/2000/svg">
<path d="M47.8512 168.373C35.649 161.092 24.6562 148.725 18.4592 132.117C17.056 128.358 15.8787 124.127 16.4289 119.943C17.2936 113.408 22.2418 109.277 26.9246 109.071C31.6073 108.865 36.0623 111.642 40.337 114.358C39.0051 106.52 39.0159 98.2308 40.3704 90.3986C40.9476 87.0509 41.8397 83.6197 43.6749 81.3586C48.4476 75.4695 55.7635 80.6609 60.8309 86.0192C58.769 77.7094 63.1489 68.0262 69.0967 65.5219C75.0445 63.0176 81.6631 66.5777 86.093 72.7512C90.5137 78.9308 93.0509 87.3252 94.7809 95.7846C98.9468 116.157 101.301 150.389 91.4438 168.602C81.9686 186.114 59.376 175.242 47.8512 168.373Z" fill="#09A868"/>
<path d="M1221.45 222.453C1243.82 206.03 1265.59 191.356 1285.97 178.791C1330.12 151.597 1399.15 120.227 1435.12 179.263C1499.21 284.59 1405.67 525.464 1374.94 631.371C1353.04 706.811 1314.92 762.194 1257.8 760.03C1181.01 757.099 1074.87 690.633 1013.28 624.772C972.217 580.822 953.334 517.263 993.282 454.725C1049.73 366.339 1139.4 282.735 1221.49 222.472L1221.45 222.453Z" fill="#F6E67A"/>
<path d="M126.133 261.12C117.686 257.169 109.282 260.925 100.712 258.349C91.7839 255.668 83.6518 246.145 78.6309 235.153C73.6101 224.162 71.34 211.814 70.2298 199.836C69.0452 186.996 69.0182 173.908 64.9049 161.458C60.7877 149.024 50.7772 137.387 41.7944 139.486C33.8197 141.362 30.3386 152.625 28.1321 162.918C24.7221 178.901 22.1037 195.68 23.441 213.371C25.3877 239.084 35.4695 264.315 45.3055 288.596C51.1636 302.978 57.5223 318.171 67.6807 327.554C73.056 332.521 79.0874 335.453 85.0469 338.14C103.119 346.265 132.853 357.813 144.696 337.177C155.902 317.654 148.281 271.446 126.119 261.112L126.133 261.12Z" fill="#3860BF"/>
<g clip-path="url(#clip0_1238_20659)">
<path d="M154.332 599.295C153.262 598.2 152.492 596.771 151.764 595.39C148.468 589.388 145.129 583.339 141.833 577.338C140.163 574.337 138.494 571.241 137.98 567.764C137.424 564.287 138.323 560.334 140.891 558.286C144.359 555.571 149.324 557.429 152.406 560.62C155.488 563.811 157.543 568.098 160.496 571.432C166.104 577.671 179.759 584.006 174.366 595.58C171.284 602.201 159.041 604.201 154.332 599.248L154.332 599.295Z" fill="#3860BF"/>
<path d="M104.378 594.58C102.195 590.579 99.1988 587.15 97.4009 582.958C95.6031 578.767 95.3034 573.194 98.257 569.86C102.495 565.145 109.815 568.193 114.352 572.48C122.143 579.815 134.3 598.2 126.552 609.821C116.321 625.158 108.873 602.915 104.378 594.58Z" fill="#3860BF"/>
<path d="M163.665 662.405C160.24 658.309 156.388 654.26 154.932 648.878C153.434 643.543 155.532 636.447 160.454 635.256C164.692 634.256 168.63 637.875 171.755 641.257C180.916 651.117 201.848 679.837 178.262 685.124C173.724 677.265 169.444 669.359 163.708 662.405L163.665 662.405Z" fill="#3860BF"/>
<path d="M211.308 643.496C208.611 645.925 204.502 645.496 201.548 643.496C198.594 641.495 196.454 638.304 194.442 635.16C191.146 630.112 187.722 624.587 187.636 618.347C187.55 612.774 191.788 606.535 196.625 607.964C197.995 608.393 199.194 609.345 200.392 610.298C205.871 614.727 211.565 619.49 214.433 626.301C217.301 633.112 216.188 642.638 210.238 646.306" fill="#3860BF"/>
<path d="M81.5628 602.105C78.3952 604.82 73.6437 604.344 70.3476 601.82C67.0087 599.343 64.9112 595.294 63.413 591.151C62.3428 588.245 61.5295 585.054 62.3 582.053C63.0705 579.053 65.9814 576.576 68.6353 577.576C70.7757 582.053 75.0135 584.578 78.4808 587.912C81.9053 591.198 84.7305 596.628 82.6758 601.153" fill="#3860BF"/>
<path d="M93.6337 675.741C86.3566 671.788 80.3638 665.263 75.8263 657.832C74.0712 654.927 72.4874 651.783 72.145 648.354C71.8025 644.877 73.0011 641.067 75.7407 639.304C79.636 636.828 84.4731 639.543 88.2829 642.162C92.1355 644.829 96.0736 647.592 99.1129 651.402C102.109 655.213 104.164 660.309 103.479 665.31C102.794 670.311 98.8132 674.884 94.2758 674.693" fill="#3860BF"/>
<path d="M123.256 668.835C120.73 664.31 118.247 659.785 115.722 655.26C113.453 651.212 111.398 645.306 114.694 642.21C117.734 640.59 121.244 638.971 124.368 640.447C126.038 641.209 127.322 642.734 128.478 644.258C131.431 648.02 134.257 651.926 136.953 655.975C139.822 660.309 142.647 665.024 143.075 670.406C144.701 691.125 128.007 677.408 123.256 668.787L123.256 668.835Z" fill="#3860BF"/>
<path d="M170.728 745.947C160.541 743.709 151.594 735.469 147.741 724.752C145.772 719.37 145.986 711.559 150.866 709.558C155.703 707.558 160.241 712.892 163.195 717.608C166.105 722.323 169.059 727.038 171.97 731.754C173.083 733.516 174.196 735.374 174.453 737.517C174.709 739.66 173.81 742.137 171.97 742.804" fill="#3860BF"/>
<path d="M235.408 724.705C223.851 719.227 215.075 707.034 212.807 693.317C212.507 691.65 212.336 689.84 212.978 688.268C214.005 685.743 216.873 684.648 219.313 685.172C221.753 685.696 223.851 687.41 225.734 689.22C231.384 694.65 236.179 701.176 239.774 708.463C241.144 711.225 242.386 714.369 241.872 717.465C241.358 720.561 238.233 723.276 235.665 721.942" fill="#3860BF"/>
<path d="M218.157 768C205.315 761.713 196.968 745.614 198.509 730.134C200.778 729.658 203.175 729.134 205.315 730.039C206.642 730.611 207.755 731.658 208.782 732.706C215.803 739.851 221.539 748.519 225.605 758.093C226.119 759.331 226.633 760.617 226.675 761.951C226.804 765.761 222.48 768.714 219.484 766.904" fill="#3860BF"/>
</g>
<defs>
<clipPath id="clip0_1238_20659">
<rect width="180" height="211" fill="white" transform="translate(62 557)"/>
</clipPath>
</defs>
</svg>
