<svg width="354" height="456" viewBox="0 0 354 456" fill="none" xmlns="http://www.w3.org/2000/svg">
<path opacity="0.1" d="M106.841 12.0893C147.263 -16.4232 227.991 8.77816 242.802 53.4784C248.241 69.9237 246.659 88.2821 254.258 104.212C263.245 123.086 280.64 137.728 296.724 150.973C320.367 170.435 349.372 187.469 353.422 218.777C358.128 255.089 332.286 278.414 315.392 307.552C296.029 340.958 297.457 374.033 267.102 403.722C230.267 439.74 181.629 455.229 129.829 455.45C114.517 455.523 100.284 457.731 86.9388 451.403C54.2696 435.914 35.2544 387.976 28.4659 357.183C14.0791 292.321 -8.94744 223.192 3.62654 156.05C10.5692 119.039 30.0859 78.5326 58.2809 52.4851C70.3921 41.3008 83.9689 31.6617 106.841 12.0893Z" fill="#5C5C5C"/>
</svg>
