<svg width="130" height="122" viewBox="0 0 130 122" fill="none" xmlns="http://www.w3.org/2000/svg">
<path d="M7.36914 97.7694C3.85389 94.8842 0.425442 91.2616 0.0348588 86.7495C-0.551015 79.9814 6.34928 74.4715 13.1194 73.9726C19.8895 73.4736 26.3558 76.5106 32.4749 79.4825C22.7972 66.0114 13.5751 50.371 15.7884 33.9497C16.1138 31.4767 16.8082 28.8736 18.6309 27.2033C22.45 23.6891 28.6125 26.0102 32.9523 28.8736C43.0207 35.5332 51.5701 44.4923 57.7543 54.8831C51.8956 40.2622 52.872 23.06 60.2931 9.17672C61.2913 7.33285 62.4847 5.44559 64.3508 4.49111C69.0378 2.10493 74.2456 6.85561 76.6759 11.5412C81.0157 19.9579 82.361 29.8715 80.4732 39.1559C81.8402 27.8107 86.6791 16.8776 94.1653 8.24393C98.7655 2.95094 105.818 -1.79975 112.392 0.673213C116.06 2.06154 118.598 5.4022 120.638 8.74286C128.428 21.4764 132.052 37.0734 128.819 51.6509C125.347 67.2695 114.823 76.1201 102.259 84.2982C105.188 90.4589 109.485 96.0556 113.803 101.392C103.843 109.809 91.6048 114.234 81.5365 122C77.5438 116.989 74.506 111.002 71.2294 105.405C74.1371 110.373 43.4546 113.713 40.5253 113.323C28.6776 111.696 16.5044 105.275 7.39083 97.7911L7.36914 97.7694Z" fill="#91DBE5"/>
</svg>
