<svg width="359" height="260" viewBox="0 0 359 260" fill="none" xmlns="http://www.w3.org/2000/svg">
<path d="M0.388071 53.0844C3.00893 30.8497 19.1709 10.7355 40.3249 3.40714C71.744 -7.47632 106.283 9.30105 131.244 31.2863C156.204 53.2403 176.391 80.9323 204.534 98.614C227.747 113.208 254.861 120.069 280.632 129.456C306.435 138.811 332.426 151.877 347.807 174.58C363.189 197.314 363.813 231.866 342.784 249.454C317.231 270.816 277.481 256.564 252.302 234.766C227.123 212.968 206.593 183.811 175.393 172.116C154.27 164.195 130.9 165.474 108.717 161.326C63.8814 152.938 -5.82086 105.849 0.388071 53.0844Z" fill="#FAE884"/>
</svg>
