<svg width="269" height="209" viewBox="0 0 269 209" fill="none" xmlns="http://www.w3.org/2000/svg">
<path d="M126.887 1.51028C132.145 -0.0284877 138.839 -0.792182 142.163 3.55702C145.61 8.06447 142.811 14.506 139.888 19.3688C120.919 50.9413 99.0104 80.7319 74.5209 108.247C117.754 82.9032 161.333 57.3987 208.652 40.9085C219.389 37.1677 259.997 27.2807 267.231 41.3614C275.687 57.8266 228.123 79.9233 217.959 85.8251C174.987 110.778 128.456 130.045 86.0503 155.81C130.743 144.978 177.857 144.238 222.869 153.666C231.401 155.451 242.174 161.374 239.448 169.662C238.407 172.817 235.55 174.99 232.787 176.838C200.22 198.647 159.957 205.552 120.83 207.828C93.84 209.399 65.7206 208.785 41.3247 197.137C-65.2694 146.239 60.3251 20.9274 126.887 1.51028Z" fill="#EF414A"/>
</svg>
