<svg width="846" height="891" viewBox="0 0 846 891" fill="none" xmlns="http://www.w3.org/2000/svg">
<path d="M32.1573 505.347C9.66439 565.648 -12.9765 632.26 8.87516 692.807C33.7851 761.934 107.874 799.061 177.325 823.073C309.915 868.927 450.397 892.002 590.731 890.967C615.099 890.769 640.798 889.487 661.466 876.619C685.389 861.679 697.967 834.216 708.622 808.084C773.684 649.172 818.374 481.927 841.31 311.724C847.723 264.193 851.472 212.225 825.575 171.893C802.096 135.407 759.527 116.72 718.931 101.287C618.058 63.0261 514.226 32.6538 408.667 10.5156C370.686 2.57735 331.372 -4.32544 293.342 3.31694C194.787 23.0885 178.707 112.332 148.321 193.834C109.6 297.672 70.8787 401.509 32.1573 505.347Z" fill="#F0CEC7"/>
</svg>
