<svg width="129" height="133" viewBox="0 0 129 133" fill="none" xmlns="http://www.w3.org/2000/svg">
<path d="M52.5038 121.436C32.2447 112.921 13.9936 98.4599 3.70487 79.0389C1.37516 74.6435 -0.579459 69.6967 0.333957 64.8034C1.76964 57.1622 9.98511 52.3315 17.7598 52.0906C25.5344 51.8498 32.9309 55.0966 40.0281 58.2723C37.8168 49.1075 37.8348 39.4144 40.0836 30.2558C41.0418 26.3412 42.523 22.3289 45.57 19.6848C53.494 12.7984 65.6405 18.869 74.0537 25.1347C70.6304 15.4176 77.9022 4.09462 87.7772 1.16615C97.6522 -1.76231 108.641 2.40072 115.996 9.61978C123.335 16.8459 127.548 26.6619 130.42 36.554C137.337 60.376 141.246 100.406 124.88 121.703C109.148 142.181 71.6382 129.467 52.5038 121.436Z" fill="#CAF2D0"/>
</svg>
