<svg width="309" height="492" viewBox="0 0 309 492" fill="none" xmlns="http://www.w3.org/2000/svg">
<path d="M3.08265 363.075C1.33022 368.529 -0.450318 374.179 0.102587 379.877C1.29274 392.164 12.5289 400.658 22.8654 407.37C68.288 436.834 116.082 462.627 165.627 484.432C179.253 490.43 195.653 495.977 208.304 488.121C216.289 483.156 220.534 474.051 224.348 465.443C238.817 432.807 253.286 400.161 267.756 367.524C273.332 354.946 278.936 342.284 282.122 328.89C286.011 312.51 286.18 295.512 287.388 278.719C293.077 199.629 322.184 119.591 301.923 42.9323C300.724 38.3799 299.243 33.6866 295.991 30.2888C291.709 25.802 285.214 24.4035 279.123 23.2302C246.295 16.8662 188.175 -6.77822 155.16 1.88545C124 10.0704 107.854 73.9075 96.683 100.114C60.1818 185.784 31.5901 274.514 3.08265 363.075Z" fill="#91DBE5"/>
</svg>
