<svg width="291" height="356" viewBox="0 0 291 356" fill="none" xmlns="http://www.w3.org/2000/svg">
<path d="M240.286 195.905C220.534 191.272 199.929 200.461 179.712 198.333C158.649 196.119 140.343 181.391 129.676 163.122C119.009 144.852 115.102 123.345 113.929 102.166C112.685 79.4594 114.245 55.9708 105.934 34.8165C97.6116 13.6946 75.0672 -4.2822 53.28 2.10187C33.9361 7.79287 24.1953 29.0272 17.6294 48.1483C7.4728 77.8356 -0.88564 108.72 0.122397 140.091C1.59443 185.685 22.6216 228.045 43.1778 268.77C55.4303 292.883 68.7819 318.308 91.9606 332.194C104.225 339.545 118.315 343.052 132.263 346.141C174.562 355.463 244.384 367.535 275.328 327.04C304.607 288.726 292.08 207.992 240.254 195.893L240.286 195.905Z" fill="#91DBE5"/>
</svg>
