<svg width="390" height="261" viewBox="0 0 390 261" fill="none" xmlns="http://www.w3.org/2000/svg">
<path d="M79.9463 157.635C106.466 130.157 151.628 124.446 185.61 141.751C194.172 146.115 202.197 151.777 211.469 154.253C237.695 161.239 263.187 140.844 279.799 119.347C296.411 97.8503 311.236 72.3577 336.459 62.3323C348.251 57.6504 361.389 56.8415 372.79 51.2528C384.166 45.664 393.682 32.2804 388.594 20.6372C385.903 14.4602 379.811 10.4647 373.719 7.59678C349.695 -3.65427 320.215 -2.33062 297.291 11.053C274.197 24.5346 258.05 48.9732 233.096 58.5329C201.561 70.6418 166.772 55.5424 133.035 53.753C90.3683 51.4734 47.188 72.5293 22.6498 107.582C-1.88836 142.634 -6.95259 190.481 9.73238 229.921C22.4785 260.047 52.5457 277.009 61.6711 239.432C69.1084 208.841 52.6925 185.898 79.9463 157.66V157.635Z" fill="#FAE884"/>
</svg>
