<svg width="349" height="384" viewBox="0 0 349 384" fill="none" xmlns="http://www.w3.org/2000/svg">
<path d="M341.923 85.5244C326.227 194.206 267.623 284.806 250.768 304.925C232.563 326.653 207.325 341.346 181.336 352.649C130.966 374.57 75.7498 385.316 20.834 383.857C17.446 383.772 13.8221 383.557 11.0559 381.605C6.61722 378.474 5.97393 372.254 5.75949 366.827C3.91539 320.454 2.58592 274.039 1.27789 227.645C-0.651992 161.346 -2.45321 94.1683 12.3211 29.4998C12.7928 27.4622 13.3504 25.2958 14.8728 23.8588C16.5454 22.293 19.0113 21.9713 21.2843 21.7568C35.6726 20.4055 50.1467 20.2982 64.5779 20.0194C130.773 18.7325 196.903 13.7134 262.541 5.00516C279.867 2.71013 345.182 -9.30127 347.348 14.8931C349.621 40.2028 345.547 60.3648 341.923 85.5244Z" fill="#DED6FC"/>
</svg>
