<?xml version="1.0" standalone="no"?>
<!DOCTYPE svg PUBLIC "-//W3C//DTD SVG 20010904//EN"
 "http://www.w3.org/TR/2001/REC-SVG-20010904/DTD/svg10.dtd">
<svg version="1.0" xmlns="http://www.w3.org/2000/svg"
 width="512.000000pt" height="512.000000pt" viewBox="0 0 512.000000 512.000000"
 preserveAspectRatio="xMidYMid meet">
<metadata>
Created by potrace 1.14, written by Peter Selinger 2001-2017
</metadata>
<g transform="translate(0.000000,512.000000) scale(0.100000,-0.100000)"
fill="#000000" stroke="none">
<path d="M3375 5077 c-31 -31 -65 -114 -65 -159 0 -12 -7 -18 -22 -18 -13 0
-44 -7 -69 -14 -203 -62 -347 -252 -354 -469 -3 -102 10 -167 49 -252 48 -103
67 -118 199 -153 250 -68 381 -65 542 13 127 61 184 74 313 70 86 -2 125 -9
202 -34 80 -25 96 -28 103 -16 11 21 54 19 66 -3 5 -9 8 -39 6 -65 -2 -38 -9
-54 -34 -77 -16 -16 -42 -32 -56 -36 -41 -10 -56 11 -46 69 0 4 9 7 19 7 30 1
-7 17 -104 45 -63 18 -112 26 -169 26 -119 -1 -149 -7 -248 -57 -122 -62 -184
-76 -320 -75 -108 0 -245 26 -371 70 -69 24 -75 22 -106 -50 -44 -103 -49
-162 -46 -524 3 -337 3 -341 28 -408 57 -152 169 -264 306 -308 64 -21 88 -22
587 -25 286 -2 527 -4 535 -4 8 0 36 1 63 3 26 3 47 0 47 -4 0 -11 54 -12 64
-2 12 12 86 14 108 2 18 -10 24 -8 38 9 9 11 39 31 66 45 255 129 355 465 213
717 -36 63 -136 107 -259 114 -33 1 -66 8 -72 14 -18 18 -35 15 -57 -10 -16
-16 -34 -22 -81 -24 -62 -3 -84 -10 -76 -23 5 -8 -77 -51 -98 -51 -7 0 -25
-10 -40 -23 -25 -22 -72 -38 -158 -55 -71 -14 -331 -6 -390 12 -7 2 -25 7 -39
10 -54 12 -35 91 19 81 160 -31 274 -36 382 -19 93 15 89 14 235 84 67 33 152
65 192 74 100 22 258 16 338 -13 32 -11 63 -21 67 -21 15 0 79 147 90 208 7
40 16 62 25 62 26 0 62 46 56 71 -8 32 -32 59 -53 59 -14 0 -16 25 -16 253 -1
150 -5 273 -12 304 -29 130 -129 271 -235 332 -110 62 -127 64 -614 65 -244 0
-443 3 -443 6 0 4 -8 15 -18 26 -10 10 -27 35 -39 54 -45 73 -117 120 -184
120 -22 0 -41 -10 -64 -33z m181 -107 c23 -30 40 -57 39 -60 -2 -4 -50 -6
-107 -5 l-103 0 1 27 c2 43 33 116 52 121 28 7 74 -26 118 -83z"/>
<path d="M2020 5030 c-47 -15 -128 -62 -160 -93 l-33 -32 -586 -1 c-322 -1
-606 -4 -630 -8 -127 -21 -242 -98 -321 -214 -208 -306 -49 -744 297 -823 55
-12 707 -16 793 -4 30 4 84 19 119 33 l64 25 18 -22 c33 -41 1 -72 -111 -106
-30 -9 -77 -19 -105 -22 -27 -3 -51 -6 -52 -7 -1 0 -4 -21 -8 -46 -3 -25 -8
-56 -10 -70 -2 -14 -7 -50 -10 -80 -3 -30 -8 -66 -10 -80 -2 -14 -7 -47 -10
-75 -4 -27 -9 -61 -11 -75 -13 -79 -12 -240 1 -298 45 -192 200 -348 383 -387
284 -59 553 156 587 470 3 28 8 66 10 85 7 61 16 134 20 156 4 26 17 131 20
159 1 11 5 40 8 65 13 84 15 105 16 132 1 23 7 27 51 38 57 14 127 60 139 93
5 12 4 34 -2 51 -11 32 -97 122 -126 131 -17 5 -19 12 -14 53 3 26 7 54 9 62
1 8 3 23 3 33 1 9 7 17 14 18 17 1 108 125 124 169 42 118 -15 191 -151 191
l-61 0 -29 49 c-16 27 -40 60 -52 73 -20 22 -21 28 -12 78 13 68 5 162 -17
217 -26 63 -82 86 -155 62z m90 -77 c11 -25 25 -193 16 -193 -2 0 -30 18 -63
40 -33 22 -85 49 -116 61 l-56 21 28 23 c42 36 121 75 151 75 19 0 30 -8 40
-27z m304 -469 c21 -8 30 -45 22 -88 -7 -36 -75 -140 -77 -116 -3 61 -22 143
-45 205 -6 14 0 15 39 11 25 -3 52 -9 61 -12z m-20 -571 c35 -45 35 -47 19
-66 -17 -19 -72 -47 -92 -47 -9 0 -7 37 4 98 2 9 4 29 4 44 1 37 20 28 65 -29z"/>
<path d="M3788 2313 l-33 -38 -255 0 c-244 0 -258 -1 -320 -24 -71 -26 -125
-60 -182 -114 -32 -30 -42 -34 -82 -32 -65 5 -155 35 -200 67 -22 15 -45 28
-51 28 -15 0 -61 -50 -69 -76 -7 -22 29 -74 52 -74 6 0 53 -43 104 -95 l93
-95 -1 -96 c-3 -164 43 -281 156 -395 66 -68 107 -93 195 -124 43 -16 93 -18
367 -20 l317 -1 17 70 c23 92 97 242 124 249 22 6 50 -16 50 -38 0 -8 -13 -38
-28 -67 -47 -86 -77 -191 -87 -303 -4 -38 -11 -74 -16 -79 -5 -5 -37 -10 -71
-10 -51 -1 -69 3 -94 22 -53 40 -108 16 -65 -27 l21 -21 -25 -6 c-36 -9 -47
-27 -31 -50 12 -16 19 -17 44 -8 l30 11 -9 -30 c-18 -63 49 -65 69 -2 7 21 15
41 17 43 8 8 117 14 113 6 -3 -5 -8 -36 -12 -69 -9 -81 -16 -137 -32 -260 -23
-164 7 -320 82 -421 l22 -30 -76 -28 c-43 -15 -106 -38 -141 -52 -35 -14 -64
-24 -65 -22 -27 58 -48 83 -70 86 -38 5 -41 -18 -12 -74 31 -59 50 -84 63 -84
6 0 37 12 69 26 33 14 107 43 166 63 l108 38 26 -28 c35 -37 128 -85 199 -104
159 -41 330 8 450 130 59 59 94 115 124 201 21 58 25 61 89 95 74 38 85 57 54
99 -23 31 -20 40 15 40 33 0 39 24 14 56 -28 35 -27 41 12 57 63 27 63 40 6
90 l-52 45 41 26 c55 35 58 42 23 76 -16 17 -26 30 -23 30 4 0 20 12 35 26
l29 26 -33 34 -33 34 33 27 c55 46 57 60 15 85 l-37 22 27 23 c30 26 28 55 -5
84 -27 23 -24 36 16 61 19 13 35 28 35 33 0 13 -40 78 -53 86 -6 4 0 15 13 25
62 51 62 55 15 108 -40 43 -39 42 -20 76 24 41 19 77 -15 101 -23 18 -27 26
-20 40 6 10 10 33 10 52 0 37 -12 47 -56 47 -16 0 -23 4 -18 11 12 21 6 70
-12 90 -13 15 -26 18 -52 14 -19 -3 -38 -7 -42 -10 -3 -2 -27 15 -52 38 -68
65 -147 113 -234 144 -85 29 -44 27 -626 33 -10 0 -28 16 -40 35 -31 48 -65
47 -110 -2z m-997 -239 c24 -8 62 -18 84 -21 22 -3 41 -7 43 -8 2 -2 -10 -28
-25 -59 l-29 -57 -67 70 c-88 91 -89 105 -6 75z m2169 -185 c0 -6 -4 -7 -10
-4 -5 3 -10 11 -10 16 0 6 5 7 10 4 6 -3 10 -11 10 -16z m38 -130 c-3 -8 -7
-3 -11 10 -4 17 -3 21 5 13 5 -5 8 -16 6 -23z m26 -171 c-9 -15 -22 -8 -19 10
2 9 4 19 4 22 1 3 5 -2 10 -10 6 -8 7 -18 5 -22z m-10 -135 c4 -9 0 -23 -9
-32 -13 -14 -15 -12 -15 17 0 34 14 43 24 15z m-22 -155 c6 -17 -1 -38 -13
-38 -5 0 -9 11 -9 25 0 26 14 34 22 13z m4 -129 c3 -6 -5 -22 -20 -35 -24 -23
-26 -23 -26 -5 0 44 28 68 46 40z m-22 -128 c16 -17 15 -19 -10 -35 -31 -21
-33 -20 -27 22 6 37 13 39 37 13z m-4 -136 c-6 -7 -20 -15 -30 -18 -16 -4 -20
0 -20 17 0 31 8 36 36 24 17 -8 21 -14 14 -23z m-7 -136 c17 -16 16 -17 -19
-38 -28 -17 -35 -26 -30 -41 3 -11 9 -28 12 -38 4 -13 -3 -24 -21 -36 -26 -17
-27 -17 -22 1 3 10 8 43 12 73 3 30 7 64 10 75 2 11 4 26 4 34 1 14 9 10 54
-30z m-55 -231 c17 -17 15 -23 -13 -36 -27 -12 -32 -3 -19 32 7 19 16 20 32 4z"/>
<path d="M1322 2289 c-5 -11 -10 -19 -12 -18 -14 7 -100 -15 -156 -41 -123
-55 -248 -214 -269 -341 -5 -31 -11 -39 -28 -39 -138 -1 -218 -10 -282 -34
-287 -108 -412 -445 -270 -727 22 -42 22 -48 9 -67 -19 -28 -100 -190 -109
-219 -6 -22 -8 -22 -35 -8 -32 17 -60 11 -60 -12 0 -17 37 -53 53 -53 10 0 4
-49 -13 -111 -8 -29 -16 -38 -39 -42 -24 -5 -28 -10 -24 -27 3 -11 14 -20 24
-20 17 0 19 -6 15 -38 -3 -20 -5 -51 -5 -69 -1 -29 -4 -33 -39 -38 -63 -11
-72 -16 -72 -36 0 -20 3 -21 65 -23 l39 -1 2 -65 c4 -147 19 -201 66 -230 31
-19 51 -20 385 -20 240 0 360 4 377 11 30 14 41 41 55 137 18 119 78 215 170
274 57 35 66 35 82 -3 20 -49 58 -89 84 -89 23 0 77 56 104 107 l11 22 48 -25
c111 -59 184 -172 196 -304 7 -72 16 -98 42 -114 35 -23 730 -24 774 -1 47 24
67 79 72 192 1 42 1 42 37 39 64 -6 102 37 44 49 -77 16 -76 15 -80 84 -3 51
0 66 13 76 20 14 13 45 -10 45 -12 0 -29 53 -27 85 0 2 -4 19 -9 36 -8 27 -6
34 18 54 23 20 25 25 13 39 -8 9 -25 15 -40 14 -14 -2 -26 2 -27 7 0 6 -6 23
-12 38 -7 16 -12 30 -12 32 0 8 -72 154 -94 190 l-24 39 20 40 c129 253 51
550 -181 690 -100 60 -155 72 -357 75 -28 1 -33 5 -39 39 -5 20 -9 42 -10 48
-2 6 -16 37 -31 70 -60 124 -216 244 -336 260 -29 4 -48 12 -48 19 0 30 -58
33 -68 4z"/>
</g>
</svg>
