<svg version="1.2" xmlns="http://www.w3.org/2000/svg" viewBox="0 0 298 316" width="298" height="316"><style>.a{fill:#21c2cc}</style><path class="a" d="m288.1 158.3c0 15.2-5.3 29.1-14 40.1-4.7-2-9.5-3.7-14.4-4.8-6.4-1.6-23.6-4.5-45.1 1.1-12.2 3.1-20.6 7.7-25.6 10.4l-1.8 1c-18.8 9.9-45 11.5-77.9 5-2.9-0.6-5.8 1.3-6.5 4.2-0.2 1.4 0 2.9 0.8 4.1 0.8 1.2 2.1 2 3.5 2.3 13.8 2.8 26.7 4.1 38.3 4.1 18.3 0 34.1-3.4 46.9-10.1l2-1.1c4.9-2.6 12.2-6.6 23.1-9.4 19.1-5 34.1-2.4 39.7-1.1 4.3 1 8.6 2.5 12.9 4.4l0.7 0.3c1.3 0.6 4.1 2.2 6.8 5q0.5 0.6 0.9 1.2c0.4 0.6 0.7 1.1 1.1 1.8 5.5 9.5 8.6 20.4 8.6 32.2 0 35.8-29 64.8-64.8 64.8h-157.7c-35.8 0-64.8-29-64.8-64.8v-67c0-14 4.5-26.9 12-37.5 41.9 14.5 75.1 15.9 98.2 4.3 0.8-0.4 1.7-0.9 2.6-1.3 2-1.1 4-2.2 7.1-3.4 19-7.6 41.4-6.4 66.6 3.6-0.7 0.3-1.2 0.5-1.4 0.6-1.4 0.5-2.5 1.5-3.1 2.8-0.7 1.3-0.7 2.8-0.2 4.1 0.7 2.2 2.8 3.6 5.1 3.6q1 0 1.8-0.3c2.9-1 9.7-4.1 12-11.5 1-3.3 1-6.8-0.2-10.3-0.9-2.8-4-4.4-6.9-3.5-1.4 0.5-2.5 1.4-3.2 2.7q-0.3 0.7-0.5 1.4c-27.6-10.7-52.6-11.9-74.1-3.3-3.7 1.4-6.1 2.8-8.4 3.9q-1 0.6-2.2 1.2c-19.5 9.8-48.2 8.5-85.4-3.7l-0.7-0.2c-0.7-0.3-2.1-0.9-3.2-1.9l-0.9-1q-0.3-0.3-0.7-0.5c-8.9-11.1-14.3-25.1-14.3-40.4 0-35.9 29-64.9 64.8-64.9h157.7c35.8 0 64.8 29 64.8 64.9z"/><path  d="m66 32.2c-1.8 0-4.9-1.2-4.7-3.5 0.5-5.2 1.2-10.5 2.9-15.5 1.4-3.9 3.6-8 7.3-10.3 4.7-3 10.2-3 15.4-1.3 5.7 1.9 10.4 5.7 14.2 10.3 3.4 3.9 6 8.4 9.5 12.3 1.5 1.7 0 4.1-1.7 4.8-2.2 1-4.9 0.5-6.5-1.2-3.4-3.8-6-8.2-9.3-12.1-2.8-3.4-6.3-6.5-10.4-7.7-0.2-0.1-1-0.3-1.4-0.4-0.3 0-1.4-0.1-0.6-0.1q-0.6 0-1.2 0c0.9 0-0.1 0.1-0.5 0.1-0.1 0-0.9 0.3-0.4 0.1 0.6-0.2 0 0-0.1 0.1-0.2 0.1-1 0.5-0.3 0.1q-0.5 0.3-0.9 0.6c-0.2 0.2-0.8 0.8-0.4 0.3-4.6 4.7-5.4 13.2-6.1 19.9-0.3 2.3-2.6 3.5-4.8 3.5z"/><path  d="m255.8 100.9q-0.1 0.4-0.2 0.9-0.1 0.5-0.3 1c-0.3 0.5-0.6 1.1-1.1 1.5-0.9 1-1.7 1.7-2.9 2.3-0.6 0.3-1.3 0.5-1.9 0.6-0.6 0.2-1.3 0.3-2 0.3q-0.2 0-0.3 0c-0.6 0-1.1-0.1-1.6-0.2q-0.2 0-0.3-0.1-0.1 0-0.2 0-0.6 0-1.2-0.2-0.8-0.2-1.5-0.8-0.4-0.3-0.7-0.7-0.5-0.6-0.6-1.3 0-0.2 0-0.3-0.1-0.2-0.2-0.3-0.3-1 0-1.9 0.3-0.4 0.5-0.9 0.2-0.2 0.5-0.5c0.6-1.1 1.9-1.9 3.1-2.1q0.1 0 0.1 0c0.1-0.1 0.3-0.3 0.5-0.4 1.1-0.6 2.6-0.8 3.9-0.9 1.3 0 2.8 0.3 4.1 0.9q0.7 0.3 1.3 0.9 0.4 0.3 0.6 0.8 0.4 0.6 0.4 1.4z"/><path  d="m235.6 201.5c17 33.8 23.6 76.4 7.1 111.6-1.9 4-10.8 2-8.4-2.9 15.6-33.3 8.4-74.4-7.6-106-2.3-4.5 6.9-6.7 8.9-2.7z"/><path  d="m214.9 207.1c16.9 32.2 23.3 73.2 6.7 106.8-2 4-10.9 2-8.5-3 15.7-31.7 8.7-71-7.2-101.2-2.3-4.4 6.9-6.6 9-2.6z"/><path  d="m196.5 216.5c13.8 29 19.7 65.7 6.6 96-1.8 4.2-11.3 3.4-9.3-1.1 12.7-29.3 7-64.3-6.3-92.3-2.2-4.6 7-6.7 9-2.6z"/><path  d="m287.8 147.7v0.1c0.5-0.3 1.2-0.5 1.9-0.6 1.7-0.2 2.9 0.5 3.4 0.8 3.8 2.2 6.3 9.4 2.9 12.9-1.8 2-4.8 2.2-7.5 2.4-3 0.2-5.2-0.4-6.5-0.8-1.4-0.4-2.1-0.7-2.6-1.3-1.6-1.9-0.2-5.3 0.1-6.1 0.8-1.8 2.1-3.2 3-4 0 0 2.5-2.8 5.3-3.4z"/></svg>