<svg version="1.2" xmlns="http://www.w3.org/2000/svg" viewBox="0 0 315 305" width="315" height="305"><style>.a{fill:#7b4799}</style><path  d=""/><path  d=""/><path class="a" d="m293.1 114.6l-18.1 132.5c-4.5 33.4-33.2 57.7-66.1 57.7q-4.5 0-9.1-0.6c-36.6-5-62.2-38.7-57.2-75.2l9.1-66.3c4.6-0.1 20.6-1.1 35.7-8.8 0.2-0.1 0.4-0.3 0.6-0.5q0.1 0 0.2-0.1 0.9-0.7 1.5-1.7c0.7-1.4 0.8-3.1 0.2-4.6q-0.1-0.2-0.2-0.5c-0.9-1.8-2.8-2.9-4.7-3-0.9 0-1.8 0.1-2.7 0.6q-1.7 0.8-3.3 1.5-0.5 0.2-1 0.4-1.6 0.6-3.1 1.2-0.2 0.1-0.4 0.1c-2.5 0.9-5 1.6-7.3 2.2q-0.4 0-0.7 0.1c-6.2 1.2-11.2 1.5-13.2 1.5h-85.8c-36.9 0-66.8-29.9-66.8-66.8 0-36.9 29.9-66.8 66.8-66.8h140.9c24.7 0 48.2 10.7 64.4 29.3 16.3 18.6 23.7 43.3 20.3 67.8z"/><path  d="m222.9 22.8c-1.7-0.8-3.2-3.2-1.7-4.9 4.9-5.3 10.8-9.4 17.2-12.6 7.9-3.8 22.2-9.1 28.5 0.2 3.4 4.9 4.6 11.5 5.1 17.4 0.6 6.9-0.4 14-2.6 20.7-1.4 4.3-10.8 2.9-9.1-1.9 2.3-7.1 3-14.7 1.8-22.1-0.5-3.3-1.4-6.6-2.8-9.6-0.3-0.5-0.7-1.2-1.3-1.8q-0.4-0.6 0.1-0.1-0.3-0.2-0.6-0.4-0.6-0.4 0.1 0.1-0.3-0.2-0.6-0.3c1.3 0.1-0.3 0-0.5-0.1 1.2 0.2-0.5 0.1-0.7 0.1q-0.9 0-0.1 0-0.5 0-0.9 0.1-0.8 0.1-1.6 0.3c-2.9 0.6-5.8 1.6-8.5 2.9-5.6 2.6-11.1 6.1-15.3 10.7-1.6 1.7-4.3 2.2-6.5 1.3z"/><path  d="m286 129.6c1.4-1.9 4.4-2.2 6.5-1.3 5.1 2.2 9.6 5.7 13.4 9.7 2.9 3.2 6.7 7.9 5.9 12.5-0.9 4.9-6.6 8.1-10.7 10.2-5.1 2.7-10.9 3.9-16.7 4-2 0.1-4.8-1.2-4.8-3.5 0-2.4 2.8-3.6 4.8-3.6 2.3 0 3.6-0.1 6.1-0.8 1.7-0.4 3.4-1 5.4-2 1.7-0.8 3.3-1.8 4.9-3.2q0.4-0.3 0.7-0.6-0.4 0.4 0.1-0.1 0.3-0.4 0.6-0.8 0.4-0.5 0 0.1 0-0.2 0.1-0.3 0.1-0.3 0.2-0.6-0.1 0.7-0.1 0.3c0-0.2-0.1-1.3 0.1-0.4-0.1-0.4-0.2-0.7-0.3-1-0.3-1-0.6-1.4-1.1-2.1q-1.6-2.6-3.8-4.8c-2.7-2.9-6.2-5.4-9.6-6.9-1.9-0.8-3.1-3-1.7-4.8z"/><path  d="m277.5 67.1c-0.8-2.1 1.3-4.1 3.3-4.3 5.1-0.6 10.2-1.2 15.4-0.7 4.5 0.4 9.3 1.4 13 4.3 3.6 2.9 5.2 7.2 5 11.8-0.2 6.1-2.8 11.6-6.4 16.4-3.2 4.2-7.1 7.9-10.2 12.2-2.6 3.7-11.4 0.9-8.2-3.5 3.1-4.4 7.1-8 10.3-12.3 2.8-3.8 4.9-8.2 5.1-13 0-2.1-0.1-3.1-1-4.9-0.2-0.5 0.3 0.4 0 0q-0.1-0.3-0.3-0.5-0.3-0.4-0.7-0.9c-0.3-0.3 0.1 0.1 0.2 0.2q-0.3-0.3-0.5-0.5-0.5-0.3-0.9-0.6c-0.6-0.4 0.4 0.2 0 0q-0.3-0.1-0.5-0.3-0.5-0.2-1-0.4-0.3-0.1-0.7-0.2c0.1 0 0.8 0.2 0.3 0.1q-0.6-0.2-1.3-0.4-1.3-0.3-2.7-0.4c0.9 0.1 0 0-0.3-0.1q-0.8 0-1.5 0-2.8-0.1-5.7 0.1-1.6 0.1-3.1 0.2c-0.6 0.1 0.1 0 0.2 0q-0.3 0-0.6 0.1-0.7 0-1.4 0.1c-2.1 0.3-5-0.1-5.8-2.5z"/><path  d="m173.3 71.4q-0.1 0.5-0.2 1-0.1 0.5-0.4 0.9c-0.3 0.6-0.5 1.1-1 1.6-0.9 1-1.8 1.6-3 2.2-0.5 0.3-1.2 0.5-1.8 0.7-0.7 0.2-1.4 0.2-2 0.2q-0.2 0.1-0.4 0c-0.5 0-1 0-1.5-0.1q-0.2-0.1-0.3-0.1-0.1 0-0.2 0-0.6 0-1.2-0.3-0.8-0.2-1.5-0.7-0.4-0.4-0.8-0.7-0.5-0.6-0.5-1.3-0.1-0.2-0.1-0.4 0-0.1-0.1-0.3-0.3-0.9 0-1.8 0.3-0.5 0.5-0.9 0.2-0.3 0.5-0.5c0.6-1.2 1.9-1.9 3.1-2.2q0 0 0.1 0c0.1-0.1 0.3-0.2 0.4-0.3 1.2-0.6 2.6-0.9 3.9-0.9 1.4 0 2.9 0.3 4.1 0.9q0.8 0.3 1.4 0.9 0.4 0.3 0.6 0.8 0.4 0.6 0.4 1.3z"/><path  d="m41.2 123.3c5.9 0 5.9-7.1 0-7.1-5.9 0-5.9 7.1 0 7.1z"/></svg>