<svg version="1.2" xmlns="http://www.w3.org/2000/svg" viewBox="0 0 364 292" width="364" height="292"><style>.a{fill:#ffd110}</style><path class="a" d="m349.8 254.3c0 3.9-0.2 7.7-0.5 11.5q-0.5 6.8-1.5 13.4c-1.1 7.4-7.5 12.9-15.1 12.9h-5-71.3-14.9c-6.9 0-12.1-5.7-12.1-12.5q0-0.1 0-0.2c0-26.9-22.6-48.5-49.9-47.2-19.7 0.9-36.8 14.3-42.9 32.9-1.7 5-2.4 9.9-2.4 14.6 0 6.8-5.3 12.4-12.1 12.4h-11-73.8-4.9c-7.6 0-14-5.5-15.2-12.9q-1-6.6-1.5-13.4c-0.2-3.8-0.4-7.6-0.4-11.5 0-34.7 10.7-66.9 29-93.6-7.8-11.3-12.1-25.2-11.3-40.1 1.8-34.6 31.7-61.3 66.6-61.3h18.6c5.1-30.7 31.9-54.2 64.3-54.2 32.4 0 59.2 23.5 64.3 54.2h18.6c34.9 0 64.8 26.7 66.7 61.3 0.7 14.9-3.6 28.8-11.4 40.1 18.3 26.7 29.1 58.9 29.1 93.6z"/><path  d="m145.8 197.6c-0.1 1.2-0.3 2.4-0.8 3.5-0.5 1.2-1.2 2.5-2.1 3.4-0.3 0.4-0.7 0.8-1.2 1.1-0.4 0.3-0.9 0.6-1.3 0.8-0.7 0.4-1.4 0.6-2.1 0.7-1.8 0.4-3.7 0.2-5.4-0.5-1.3-0.5-2.4-1.4-3.4-2.3-0.7-0.8-1.2-1.7-1.6-2.6q-0.3-0.5-0.4-1c-0.1-0.7-0.3-1.3-0.3-2q0-0.4 0.1-0.8c-0.1-0.1-0.2-0.3-0.2-0.4-0.3-0.8-0.5-1.8-0.4-2.7 0.2-1.1 0.5-2.2 1.2-3.1q1.3-1.4 2.9-2.1c2.2-0.9 4.7-1.1 7-0.6 1 0.2 2 0.5 2.9 0.9 1.3 0.7 2.2 1.3 3.2 2.4 1.3 1.3 2 3.4 1.9 5.3z"/><path  d="m236.3 204.6c-1.4 1.4-2.9 2.6-4.8 3.4-1.3 0.5-2.7 1-4.1 1-1.6 0.1-3-0.6-4-1.6q-0.7-0.7-1.4-1.4-0.6-0.6-1.1-1.4c-0.4-0.6-0.8-1.2-1-1.9-0.4-1.6-0.3-3.1 0.7-4.4 0.4-0.6 0.9-1.1 1.5-1.5q0.4-0.8 1-1.5c2.6-2.8 6.5-3.9 10.3-3.6 1 0.1 1.9 0.2 2.9 0.7 0.7 0.5 1.3 1.1 1.7 1.9 1.5 3.4 0.9 7.6-1.7 10.3z"/><path  d="m353.3 231.6c0.1 2.3-2.8 3.6-4.7 3.5-6 0-11.9 0.7-17.8 1.1-2.1 0.1-4.6-1.3-4.7-3.6-0.1-0.9 0.7-1.9 1.4-2.5 1-0.7 2.2-0.9 3.3-1 5.9-0.4 11.8-1.1 17.8-1.1 2.1 0 4.6 1.2 4.7 3.6z"/><path  d="m315.4 220.7c-1.4-1.9-0.1-4 1.7-4.9 4.6-2.1 8.7-4.4 12.7-6.8 4.2-2.7 8.3-5.5 12.5-8.3 1.9-1.3 4.7-1.4 6.7 0 1.7 1.3 1.7 3.8 0 5.1-8.7 5.9-17.5 11.7-27.1 16.2-2 0.9-5 0.5-6.5-1.3z"/><path  d="m327.5 250.3c0.7-2.2 3.8-3.1 5.8-2.5 2.5 0.6 4.9 1.4 7.3 2.2q0.8 0.2 1.6 0.5 0.4 0.1 0.9 0.3-0.6-0.2 0.2 0 1.6 0.6 3.3 1.1c2.3 0.6 4.6 1.2 7 1.6q0.6 0.1 1.3 0.2 0.4 0.1 0.9 0.1-0.8 0 0 0 1.7 0.2 3.4 0.1c2-0.1 4.7 1.3 4.7 3.6 0 2.4-2.7 3.4-4.7 3.5-5 0.2-9.9-0.8-14.6-2.2-2.6-0.7-5.1-1.5-7.7-2.3-0.1-0.1-1.7-0.6-1-0.4q-0.9-0.2-1.7-0.5-1.7-0.5-3.4-1c-1.9-0.5-4.1-2-3.3-4.3z"/><path  d="m11.2 223c-0.1-1 0.6-2 1.4-2.5 0.9-0.7 2.2-1.1 3.3-1.1 5.9 0 11.8 0.7 17.7 1.1 2.2 0.1 4.6 1 4.8 3.5 0.1 2.3-2.8 3.7-4.8 3.6-5.9-0.4-11.8-1.1-17.7-1.1-2.1 0.1-4.6-1.2-4.7-3.5z"/><path  d="m49 212.1c-1.4 1.8-4.4 2.2-6.4 1.3-9.6-4.5-18.4-10.3-27.1-16.2-1.8-1.3-1.7-3.8 0-5.1 1.9-1.4 4.8-1.3 6.7 0 4.2 2.8 8.3 5.6 12.5 8.3 4 2.4 8.1 4.7 12.6 6.8 1.9 0.9 3.2 3 1.7 4.9z"/><path  d="m37 241.7c0.8 2.3-1.4 3.8-3.3 4.3q-1.7 0.5-3.4 1-0.8 0.3-1.7 0.5c0.7-0.2-0.9 0.3-1 0.4-2.6 0.8-5.1 1.6-7.7 2.3-4.7 1.4-9.6 2.4-14.6 2.2-2-0.1-4.7-1.1-4.7-3.5 0-2.3 2.7-3.7 4.7-3.6q1.7 0.1 3.4-0.1 0.8 0 0 0 0.5 0 0.9-0.1 0.8-0.1 1.5-0.2c2.3-0.4 4.5-1 6.8-1.6q1.6-0.5 3.3-1.1 0.8-0.2 0.2 0 0.5-0.2 0.9-0.3 0.9-0.3 1.8-0.6c2.3-0.7 4.7-1.5 7.1-2.1 2-0.6 5 0.3 5.8 2.5z"/><path  d="m165.4 228.4c0.1-0.8 0.4-2.4 1.8-3.8 1.6-1.8 3.8-2 7.8-2.3 11.9-0.9 14.4-0.6 17.1 0.7 1.6 0.9 2.6 1.8 3.3 2.8 1.3 2.1 1.1 4.4 1 5.9-0.4 4.1-2.7 6.9-7.1 12.4-4.3 5.3-5.8 5.9-6.9 6.1-3.1 0.6-5.9-1.1-6.8-1.8-1.3-0.8-2.4-1.8-5.9-8.1-4.4-8-4.7-10-4.3-11.9z"/><path  d="m206.9 71.2c-4.1 1.7-8.4 2.1-12.8 2.5q-3.2 0.3-6.4 0.6 0 6.8 0 13.5c0 4.7-9.5 4.7-9.5 0q0-6.3 0-12.7c-5.8 0.4-11.7 0.4-17.3-1-1.9-0.5-4.1-2.1-3.3-4.4 0.8-2.2 3.8-3 5.8-2.5 4.7 1.2 9.8 1.1 14.8 0.8q0-8.3 0-16.5-0.7 0.1-1.4 0.2-3.4 0.5-6.8 1.2c-2.1 0.4-5-0.3-5.8-2.5-0.8-2.2 1.3-4 3.3-4.4q5.3-1 10.7-1.7 0-6.6 0-13.3c-5.4 0.7-10.8 0.9-16.3 0.2-2-0.3-4-2.3-3.3-4.4 0.8-2.3 3.7-2.8 5.8-2.5 4.5 0.6 9.2 0.3 13.8-0.3q0-9.9 0-19.7c0-4.8 9.5-4.8 9.5 0q0 9.2 0 18.4c3.6-0.5 7.2-1 10.8-1 2 0 4.7 1.2 4.7 3.5 0 2.4-2.7 3.6-4.7 3.6-3.6 0-7.2 0.5-10.8 1q0 6.8 0 13.6c4.1-0.1 8.1 0.1 12.1 1.1 1.9 0.5 4.1 2.1 3.3 4.4-0.8 2.1-3.8 3-5.9 2.5-1.1-0.3-2.1-0.5-3.2-0.7q-0.4 0-0.4 0-0.3 0-0.6-0.1-0.9 0-1.8 0-1.7-0.1-3.5 0 0 8.3 0 16.6 2.5-0.2 5-0.5c3.2-0.2 6.5-0.5 9.5-1.7 2-0.8 5-0.6 6.4 1.3 1.4 1.8 0.3 4.1-1.7 4.9z"/></svg>