<svg viewBox="0 0 255 307" fill="none" xmlns="http://www.w3.org/2000/svg">
<path d="M181.33 128.788L125.327 128.748C126.16 131.026 127.21 132.511 127.666 133.065C129.312 135.105 128.975 138.114 126.933 139.738C126.061 140.431 125.01 140.788 123.959 140.788C122.572 140.788 121.184 140.174 120.232 139.006C118.666 137.045 114.979 131.6 114.682 123.343C114.285 112.016 120.728 105.145 121.461 104.413C123.305 102.551 126.318 102.531 128.182 104.373C130.045 106.214 130.085 109.224 128.241 111.086C128.182 111.145 127.805 111.561 127.29 112.274H180.755C211.799 112.274 237.808 87.1854 237.808 56.1764C237.808 25.1675 212.335 0.0395961 181.31 0.0395961L55.2494 0V0.0792072C24.78 0.71285 0.257661 25.5834 0.257661 56.1764C0.257661 56.3745 0.257661 56.5725 0.257661 56.7903H0L0.178409 183.361C0.178409 214.369 26.2668 241.062 57.2913 241.062H180.715C211.76 241.062 237.769 215.954 237.769 184.945C237.769 153.936 212.295 128.808 181.27 128.808L181.33 128.788Z" fill="#F4C924"/>
<path d="M253.071 58.4935C251.208 57.1074 248.73 57.4836 246.688 58.1965C244.844 58.8499 243.08 59.6222 241.157 60.0578C236.419 61.1667 231.622 61.2063 226.844 60.2558C225.258 59.939 223.712 61.3053 223.514 62.83C223.296 64.5131 224.505 65.8398 226.091 66.1566C233.842 67.7011 241.375 66.5725 248.69 63.7805C248.69 63.7805 248.71 63.7805 248.73 63.7805C248.432 64.8101 247.897 66.0378 247.382 66.9289C245.895 69.4239 243.695 71.4832 241.335 73.2455C238.461 75.4039 235.329 77.1266 232.157 78.7899C230.73 79.5225 229.917 81.1265 230.591 82.6908C231.186 84.0769 233.069 85.0075 234.496 84.2551C241.117 80.8096 248.353 76.8296 252.318 70.2159C254.201 67.0477 256.858 61.2855 253.091 58.4935H253.071Z" fill="#231815"/>
<path d="M202.321 39.9985C202.063 39.5035 201.707 39.0283 201.31 38.6125C201.033 38.3352 200.695 38.0976 200.378 37.86C200.22 37.7412 200.061 37.6422 199.883 37.563C199.05 37.167 198.416 37.0085 197.504 36.9095C196.909 36.8501 196.314 36.9491 195.74 37.0481C195.105 37.1472 194.491 37.4244 193.935 37.7214C193.38 37.9986 192.865 38.4144 192.409 38.8303C192.112 39.1273 191.854 39.4639 191.596 39.8005C191.477 39.9589 191.358 40.1372 191.279 40.3154C190.942 40.9886 190.784 41.5827 190.665 42.2361C190.665 42.2361 190.665 42.2559 190.665 42.2757C190.466 42.8301 190.387 43.4638 190.367 44.038C190.367 44.2162 190.367 44.3945 190.387 44.5727C190.427 44.9885 190.466 45.4043 190.585 45.8201C190.744 46.3746 190.982 46.9488 191.319 47.424C191.755 48.0379 192.33 48.6121 193.103 48.7903C193.361 48.83 193.638 48.8696 193.896 48.8894C194.074 48.8894 194.233 48.8497 194.392 48.8299C194.669 48.9488 194.947 49.0478 195.244 49.1468C195.819 49.325 196.414 49.4042 197.008 49.424C197.187 49.424 197.345 49.424 197.524 49.4042C197.94 49.3646 198.376 49.325 198.773 49.2062C200.18 48.8101 201.27 47.9191 202.083 46.7508C202.42 46.2756 202.638 45.7013 202.817 45.1667C202.995 44.6123 203.074 43.9984 203.114 43.4242C203.154 42.8301 203.055 42.2163 202.936 41.6223C202.817 41.0678 202.579 40.5134 202.321 39.9985Z" fill="#231815"/>
<path d="M231.94 222.884C230.195 221.696 228.273 219.795 227.063 218.053C226.151 216.746 224.466 216.132 222.999 216.983C221.691 217.736 220.997 219.736 221.929 221.043C222.92 222.468 224.03 223.755 225.239 224.944C224.605 225.3 223.991 225.637 223.356 225.993C221.552 227.003 221.294 230.191 223.356 231.122C223.951 231.399 224.565 231.656 225.16 231.933C224.625 232.31 224.07 232.666 223.535 233.042C222.226 233.933 221.513 235.973 222.583 237.319C222.464 237.319 222.325 237.319 222.206 237.319C221.869 237.319 221.552 237.28 221.215 237.24C221.037 237.24 220.858 237.201 220.7 237.181C220.7 237.181 220.62 237.181 220.383 237.121C217.131 236.527 214.673 235.636 211.957 233.854C210.609 232.983 208.667 233.577 207.894 234.923C207.041 236.369 207.616 238.111 208.964 238.983C215.268 243.101 223.257 244.29 230.493 242.349C232.515 241.814 233.566 238.844 231.801 237.379C231.187 236.864 230.572 236.349 229.958 235.854C229.997 235.834 230.037 235.795 230.077 235.775C231.544 234.785 233.05 233.735 233.129 231.795C233.209 230.25 232.416 229.201 231.306 228.389L231.96 228.033C234.022 226.884 233.724 224.112 231.96 222.904L231.94 222.884Z" fill="#231815"/>
<path d="M81.4152 110.254C79.9284 110.254 78.283 111.62 78.4416 113.224C79.2345 121.145 80.0473 129.184 79.6112 137.164C79.4328 136.986 79.2742 136.808 79.076 136.629C76.8358 134.55 73.5252 136.629 74.1001 139.52C74.1794 139.897 74.2191 140.293 74.2984 140.669C72.5142 140.134 70.2345 141.164 70.393 143.322C70.3336 143.025 70.2741 142.788 70.2345 142.629C69.5208 139.916 68.9063 137.184 68.4305 134.431C67.9349 131.699 67.5582 128.946 67.3204 126.194C67.1221 123.996 66.349 120.828 67.6375 118.868C69.7587 115.66 64.6045 112.689 62.5031 115.877C59.9458 119.759 61.2145 125.521 61.7696 129.837C62.404 134.808 63.3159 139.738 64.6045 144.57C65.556 148.114 66.6463 154.728 71.523 154.728C73.9217 154.728 75.2103 153.282 75.8843 151.342C77.8072 152.847 80.5033 151.421 80.6618 149.025C80.7015 148.55 80.7015 148.075 80.7015 147.579C82.2676 148.114 84.3293 147.5 84.6266 145.659C86.4108 134.847 85.4989 124.055 84.4086 113.224C84.25 111.62 83.1597 110.254 81.435 110.254H81.4152Z" fill="#231815"/>
</svg>
