<svg viewBox="0 0 250 313" fill="none" xmlns="http://www.w3.org/2000/svg">
<path d="M242.025 77.2203C242.025 47.0512 217.563 22.5908 187.391 22.5908H54.6335C24.4622 22.5908 0 47.0512 0 77.2203C0 90.1443 4.55945 101.938 12.0726 111.275C12.2708 111.394 12.4492 111.512 12.6078 111.691L13.3809 112.543C14.3126 113.376 15.4821 113.911 16.0967 114.149L16.7113 114.347C48.0324 124.615 72.2369 125.665 88.6705 117.419C89.3049 117.102 89.8996 116.785 90.5339 116.448C92.437 115.437 94.4987 114.347 97.6109 113.118C115.73 105.903 136.703 106.874 160.015 115.953C160.095 115.536 160.233 115.14 160.432 114.763C160.987 113.653 161.958 112.841 163.128 112.464C165.526 111.691 168.123 112.999 168.936 115.398C169.907 118.331 169.967 121.305 169.114 124.04C167.191 130.324 161.423 132.96 159.024 133.792C158.528 133.971 158.013 134.05 157.498 134.05C155.555 134.05 153.81 132.821 153.156 131.017C152.74 129.868 152.799 128.619 153.335 127.509C153.87 126.399 154.802 125.566 155.971 125.15C156.13 125.091 156.586 124.932 157.121 124.654C135.87 116.29 117.038 115.259 101.06 121.622C98.4435 122.652 96.7188 123.584 95.0338 124.476C94.2607 124.892 93.5867 125.249 92.8533 125.606C73.4064 135.358 45.4751 134.169 10.1496 122.018C3.8061 130.938 0.0396857 141.801 0.0396857 153.555V209.949C0.0396857 240.118 24.5019 264.578 54.6732 264.578H187.431C217.602 264.578 242.065 240.118 242.065 209.949C242.065 200.038 239.408 190.84 234.789 182.832C234.492 182.297 234.215 181.841 233.897 181.365C233.64 180.989 233.382 180.652 233.104 180.315C230.864 177.996 228.466 176.648 227.375 176.093L226.761 175.835C223.173 174.249 219.545 173.02 215.957 172.168C211.239 171.038 198.572 168.897 182.475 173.06C173.297 175.439 167.132 178.788 163.048 181.008L161.403 181.9C150.599 187.589 137.317 190.464 121.895 190.464C112.062 190.464 101.219 189.294 89.6419 186.975C88.4128 186.737 87.3622 186.023 86.6882 184.993C86.0142 183.982 85.7763 182.753 86.034 181.563C86.5494 179.106 88.9877 177.5 91.4854 177.996C119.218 183.526 141.282 182.118 157.062 173.813L158.628 172.961C162.83 170.681 169.907 166.836 180.156 164.18C198.294 159.482 212.766 161.96 218.158 163.228C222.281 164.199 226.345 165.587 230.27 167.311C237.624 158.015 242.084 146.34 242.084 133.555V77.1609L242.025 77.2203Z" fill="#2AB6C0"/>
<path d="M58.9565 23.7604C59.5314 18.1706 60.2252 10.995 64.1503 7.03063C63.7736 7.40725 64.289 6.9117 64.4475 6.81259C64.6854 6.63419 64.9431 6.43596 65.2009 6.27739C64.6656 6.61436 65.2603 6.31704 65.4784 6.17829C65.5379 6.13864 66.0334 5.96025 65.5775 6.11882C65.1216 6.2774 65.7758 6.05936 65.8551 6.05936C66.1921 5.99989 67.0247 5.96024 66.2714 5.96024C66.6282 5.96024 66.985 5.96024 67.3418 5.96024C66.6678 5.9206 67.5797 5.99989 67.8176 6.03953C68.1744 6.099 68.8087 6.25757 69.0069 6.31704C72.4364 7.36761 75.4298 9.98411 77.7888 12.8187C80.5245 16.1091 82.705 19.8158 85.5596 23.0072C86.9076 24.4938 89.1873 24.8903 91.0111 24.0776C92.4978 23.4234 93.7863 21.4611 92.4383 19.9744C89.5243 16.7434 87.304 12.9376 84.5089 9.60749C81.2777 5.76201 77.3527 2.55085 72.5356 0.984908C68.1744 -0.442279 63.4961 -0.501747 59.5314 2.03547C56.4785 3.99785 54.5755 7.42707 53.4257 10.777C51.9984 14.9396 51.4037 19.3996 50.9676 23.7604C50.7694 25.7228 53.4059 26.7535 54.9521 26.7535C56.8155 26.7535 58.7384 25.7426 58.9367 23.7604H58.9565Z" fill="#040000"/>
<path d="M214.47 83.4048C214.371 83.1273 214.192 82.9092 213.955 82.7506C213.657 82.4137 213.28 82.156 212.844 81.9776C211.794 81.5019 210.565 81.2243 209.395 81.2442C208.285 81.2838 207.096 81.482 206.104 82.0172C205.966 82.0965 205.827 82.1956 205.688 82.2749H205.668C204.637 82.493 203.508 83.1273 203.012 84.1184C202.873 84.2373 202.734 84.376 202.615 84.5346C202.477 84.7725 202.338 85.0104 202.219 85.2482C202.021 85.7834 202.021 86.3186 202.219 86.834C202.239 86.9133 202.278 86.9926 202.318 87.0718C202.318 87.171 202.318 87.2502 202.358 87.3493C202.378 87.7656 202.536 88.1422 202.834 88.4594C203.032 88.6576 203.25 88.8558 203.448 89.0739C203.825 89.3712 204.261 89.5892 204.737 89.6883C205.054 89.8271 205.391 89.8866 205.748 89.8866C205.787 89.8866 205.847 89.8866 205.886 89.8866C205.986 89.9064 206.065 89.946 206.144 89.9659C206.56 90.0451 207.016 90.0848 207.452 90.1046C207.552 90.1046 207.651 90.1046 207.75 90.1046C208.285 90.0848 208.88 90.0451 209.415 89.8866C209.93 89.728 210.485 89.5892 210.981 89.3514C211.992 88.836 212.725 88.3008 213.499 87.4683C213.855 87.0718 214.113 86.5961 214.351 86.1204C214.49 85.8627 214.589 85.605 214.648 85.3275C214.688 85.0698 214.747 84.7923 214.787 84.5346C214.787 84.0985 214.688 83.7219 214.45 83.3849L214.47 83.4048Z" fill="#040000"/>
<path d="M190.248 171.573C203.728 198.254 209.814 232.843 196.651 260.852C194.689 265.034 202.162 266.719 203.768 263.31C217.704 233.695 212.153 197.778 197.801 169.373C196.076 165.964 188.345 167.807 190.248 171.573Z" fill="#040000"/>
<path d="M172.804 176.231C186.145 201.643 192.073 234.805 178.89 261.506C176.848 265.648 184.341 267.353 186.007 263.964C199.982 235.697 194.59 201.128 180.357 174.031C178.593 170.661 170.842 172.505 172.804 176.231Z" fill="#040000"/>
<path d="M157.28 184.14C168.501 207.728 173.278 237.243 162.573 261.882C160.928 265.668 168.857 266.342 170.384 262.853C181.465 237.323 176.45 206.381 164.833 181.94C163.188 178.491 155.457 180.315 157.28 184.14Z" fill="#040000"/>
<path d="M237.328 126.855C236.515 127.588 235.464 128.718 234.79 130.284C234.513 130.919 233.284 133.753 234.632 135.378C235.068 135.914 235.662 136.112 236.852 136.469C238.002 136.825 239.786 137.361 242.303 137.162C244.603 136.984 247.16 136.786 248.686 135.141C251.482 132.167 249.42 126.102 246.228 124.258C245.772 124.001 244.761 123.406 243.314 123.565C242.7 123.624 242.165 123.822 241.689 124.06H241.709C239.369 124.536 237.288 126.855 237.288 126.855" fill="#040000"/>
</svg>
