<svg viewBox="0 0 329 251" fill="none" xmlns="http://www.w3.org/2000/svg">
<path d="M194.518 0H68.3698C37.899 0.655259 13.3795 25.5749 13.3398 56.2133V183.254C13.3597 214.349 39.3868 241.374 70.4328 241.374H193.943C225.009 241.374 251.214 214.349 251.214 183.254L251.333 56.2133C251.294 25.158 225.524 0 194.498 0H194.518ZM147.522 128.689C147.522 132.66 144.309 135.877 140.341 135.877H124.352C120.384 135.877 117.171 132.66 117.171 128.689V112.685C117.171 108.713 120.384 105.497 124.352 105.497H140.341C144.309 105.497 147.522 108.713 147.522 112.685V128.689Z" fill="#2AA86C"/>
<path d="M316.478 182.301C310.864 181.11 305.071 181.189 299.497 182.48C298.842 171.519 293.109 161.333 284.103 154.919C282.912 154.065 280.631 154.602 280.036 155.991C276.207 165.026 274.045 174.537 273.727 184.287C260.872 175.868 244.586 173.247 229.707 177.139C225.998 178.111 227.585 183.85 231.294 182.877C236.849 181.427 242.542 180.991 248.137 181.527C248.137 181.566 248.137 181.586 248.137 181.626C248.157 182.162 248.157 181.765 248.137 181.527C257.421 182.4 266.427 185.895 273.965 191.713C275.175 192.646 277.04 191.971 277.873 190.859C278.885 190.482 279.659 189.608 279.639 188.198C279.48 179.382 280.869 170.606 283.865 162.326C290.49 168.402 294.041 177.377 293.565 186.411C293.466 188.278 295.549 189.886 297.334 189.291C302.71 187.464 308.443 186.888 314.058 187.92C316.696 188.397 319.334 189.171 321.755 190.323C321.973 190.422 322.747 190.7 323.044 190.958C322.806 190.978 322.389 191.733 322.389 191.733C321.378 192.746 320.584 193.997 319.572 195.009C312.967 201.621 303.087 205.056 293.823 203.587C291.066 203.15 288.407 202.296 285.59 202.674C283.011 203.031 280.889 204.302 278.925 205.95C274.898 209.345 271.406 213.237 267.181 216.434C258.928 222.689 249.605 227.554 239.765 230.77C228.358 234.503 216.416 236.013 204.454 235.198C200.625 234.94 200.645 240.897 204.454 241.155C228.041 242.744 252.025 235.437 270.811 221.1C273.112 219.333 275.374 217.487 277.516 215.521C279.58 213.634 281.424 211.351 283.726 209.703C286.483 207.737 289.221 208.809 292.256 209.306C295.033 209.762 297.85 209.941 300.647 209.723C311.003 208.909 322.707 203.329 328.023 193.957C332.229 186.531 321.794 183.413 316.478 182.301Z" fill="#040000"/>
<path d="M134.368 240.44C134.269 240.321 134.15 240.202 134.071 240.063C133.892 239.805 133.694 239.547 133.515 239.288C133.138 238.752 132.801 238.196 132.464 237.621C132.166 237.084 131.869 236.528 131.611 235.972C131.532 235.814 131.472 235.655 131.393 235.496C131.274 235.218 131.175 234.94 131.075 234.662C130.619 233.431 130.302 232.16 130.064 230.85C129.786 229.321 127.842 228.308 126.394 228.765C124.747 229.301 124.013 230.79 124.311 232.438C125.124 236.926 127.227 241.234 130.222 244.709C122.466 246.02 114.253 243.438 108.659 237.839C105.941 235.119 101.735 239.348 104.453 242.048C111.912 249.495 122.942 252.572 133.178 250.229C134.408 249.951 135.043 249.137 135.241 248.204C135.916 248.164 136.551 247.926 137.047 247.37C138.078 246.258 138.296 244.253 137.047 243.16C136.075 242.327 135.182 241.413 134.368 240.42V240.44Z" fill="#040000"/>
<path d="M40.8318 233.193C35.9517 237.363 29.9012 239.766 23.6127 240.262C26.747 236.886 29.5044 233.193 31.7461 229.162C32.5198 227.753 32.4007 225.985 30.9923 225.012C29.7623 224.159 27.6398 224.357 26.8462 225.767C23.6722 231.485 19.5658 236.529 14.5468 240.739C12.4638 242.506 13.7929 245.603 16.2528 245.961C26.3701 247.47 36.9238 244.333 44.6804 237.701C47.5965 235.199 43.7281 230.691 40.812 233.173L40.8318 233.193Z" fill="#040000"/>
<path d="M7.22857 155.912C7.1889 156.826 7.22857 154.979 7.22857 155.912V155.912Z" fill="#DCC7DF"/>
<path d="M25.7768 148.347C25.9355 148.903 26.1735 149.479 26.5108 149.955C26.9472 150.571 27.5225 151.147 28.2962 151.325C28.5541 151.365 28.8319 151.405 29.0898 151.425C29.2683 151.425 29.427 151.385 29.5857 151.365C29.8634 151.484 30.1412 151.583 30.4387 151.683C31.014 151.861 31.6091 151.941 32.2042 151.961C32.3827 151.961 32.5415 151.961 32.72 151.941C33.1366 151.901 33.573 151.861 33.9698 151.742C35.3783 151.345 36.4693 150.452 37.2827 149.28C37.6199 148.804 37.8382 148.228 38.0168 147.692C38.1953 147.136 38.2746 146.52 38.3143 145.944C38.3539 145.349 38.2548 144.733 38.1358 144.137C38.0168 143.581 37.7787 143.025 37.5208 142.509C37.2629 142.013 36.9058 141.536 36.5091 141.119C36.2313 140.841 35.894 140.603 35.5766 140.365C35.4179 140.245 35.2592 140.146 35.0807 140.067C34.2475 139.67 33.6325 139.511 32.7001 139.412C32.105 139.352 31.51 139.451 30.9347 139.551C30.2999 139.65 29.6848 139.928 29.1294 140.226C28.5739 140.504 28.0582 140.921 27.6019 141.338C27.3044 141.635 27.0464 141.973 26.7885 142.311C26.6695 142.469 26.5505 142.648 26.4712 142.827C26.1339 143.502 25.9752 144.098 25.8562 144.753C25.8562 144.753 25.8562 144.773 25.8562 144.793C25.6578 145.349 25.5784 145.984 25.5586 146.56C25.5586 146.739 25.5586 146.917 25.5785 147.096C25.6181 147.513 25.6578 147.93 25.7768 148.347Z" fill="#040000"/>
<path d="M77.1184 142.509C76.8605 142.013 76.5034 141.536 76.1066 141.119C75.8289 140.841 75.4917 140.603 75.1743 140.365C75.0156 140.245 74.8569 140.146 74.6783 140.067C73.8452 139.67 73.2302 139.511 72.2978 139.412C71.7027 139.352 71.1075 139.451 70.5322 139.551C69.8974 139.65 69.2825 139.928 68.727 140.226C68.1716 140.504 67.6557 140.921 67.1995 141.338C66.9019 141.635 66.6441 141.973 66.3862 142.311C66.2672 142.469 66.1481 142.648 66.0687 142.827C65.7315 143.502 65.5728 144.098 65.4537 144.753C65.4537 144.753 65.4537 144.773 65.4537 144.793C65.2554 145.349 65.1761 145.984 65.1563 146.56C65.1563 146.739 65.1561 146.917 65.176 147.096C65.2157 147.513 65.2554 147.93 65.3744 148.347C65.5331 148.903 65.7712 149.479 66.1084 149.955C66.5449 150.571 67.1202 151.147 67.8939 151.325C68.1518 151.365 68.4294 151.405 68.6873 151.425C68.8658 151.425 69.0245 151.385 69.1833 151.365C69.461 151.484 69.7387 151.583 70.0363 151.683C70.6116 151.861 71.2067 151.941 71.8019 151.961C71.9804 151.961 72.1391 151.961 72.3177 151.941C72.7342 151.901 73.1707 151.861 73.5674 151.742C74.9759 151.345 76.067 150.452 76.8803 149.28C77.2176 148.804 77.4358 148.228 77.6143 147.692C77.7928 147.136 77.8722 146.52 77.9119 145.944C77.9516 145.349 77.8523 144.733 77.7333 144.137C77.6143 143.581 77.3762 143.025 77.1184 142.509Z" fill="#040000"/>
<path d="M46.1289 179.879C46.1884 179.998 46.2281 180.137 46.2281 180.137C46.2281 180.137 46.2281 180.097 46.2082 180.077C46.1884 180.018 46.1487 179.958 46.1289 179.899V179.879Z" fill="#040000"/>
<path d="M106.1 164.51C106.735 164.232 107.29 163.359 107.469 162.723C107.667 162.008 107.568 161.055 107.171 160.42C106.754 159.785 106.159 159.229 105.386 159.05C104.552 158.851 103.878 159.01 103.084 159.348C98.9781 161.095 94.8517 162.823 90.7453 164.57C90.1105 164.848 89.5551 165.722 89.3765 166.357C89.1781 167.072 89.2774 168.025 89.6741 168.66C90.0907 169.296 90.6858 169.852 91.4595 170.03C92.2926 170.229 92.9672 170.07 93.7607 169.733C97.8671 167.985 101.993 166.258 106.1 164.51Z" fill="#040000"/>
<path d="M99.6112 177.099C98.7979 177.178 98.1035 177.377 97.5084 177.972C96.9926 178.489 96.5959 179.342 96.6355 180.077C96.6951 181.566 97.9448 183.214 99.6112 183.056C102.686 182.778 105.781 182.837 108.836 183.214C108.975 183.214 109.094 183.254 109.232 183.274C110.046 183.393 110.78 183.413 111.534 182.976C112.149 182.619 112.744 181.904 112.903 181.189C113.081 180.435 113.041 179.561 112.605 178.886C112.208 178.27 111.573 177.635 110.819 177.516C107.09 176.94 103.361 176.741 99.6112 177.079V177.099Z" fill="#040000"/>
<path d="M105.863 199.834C106.637 198.365 106.2 196.657 104.792 195.764C102.55 194.334 100.309 192.904 98.067 191.494C96.7577 190.66 94.7343 191.177 94.0003 192.567C93.2266 194.036 93.663 195.744 95.0715 196.637C97.3131 198.067 99.5548 199.497 101.796 200.906C103.106 201.74 105.129 201.224 105.863 199.834Z" fill="#040000"/>
<path d="M4.76789 166.198C4.09341 166.059 3.37918 165.304 3.08161 164.728C2.74437 164.073 2.64527 163.12 2.923 162.425C3.20072 161.73 3.67681 161.055 4.39097 160.737C5.16464 160.38 5.85891 160.399 6.6921 160.578C11.0762 161.472 15.4405 162.365 19.8247 163.259C20.4992 163.398 21.2134 164.152 21.511 164.728C21.8482 165.383 21.9473 166.337 21.6696 167.031C21.3919 167.726 20.9158 168.402 20.2016 168.719C19.4279 169.077 18.7337 169.057 17.9005 168.878C13.5163 167.985 9.15204 167.091 4.76789 166.198Z" fill="#040000"/>
<path d="M13.6362 177.258C14.4297 177.179 15.1836 177.238 15.8779 177.695C16.4929 178.092 17.0285 178.847 17.1475 179.581C17.3856 181.051 16.4731 182.917 14.8265 183.096C11.7517 183.433 8.73627 184.109 5.82012 185.082C5.7011 185.121 5.56223 185.181 5.4432 185.221C4.66953 185.498 3.95542 185.657 3.14207 185.379C2.46759 185.141 1.75336 184.565 1.45579 183.91C1.13839 183.195 0.999611 182.341 1.29718 181.607C1.55507 180.932 2.05099 180.177 2.76515 179.919C6.29627 178.608 9.92656 177.675 13.6561 177.278L13.6362 177.258Z" fill="#040000"/>
<path d="M12.0076 200.807C10.9562 199.517 11.0554 197.749 12.2456 196.598C14.1501 194.751 16.0744 192.905 17.9788 191.078C19.1095 190.006 21.1925 190.105 22.1844 191.316C23.2358 192.607 23.1366 194.374 21.9463 195.526C20.0419 197.372 18.1176 199.219 16.2132 201.046C15.0824 202.118 12.9995 202.019 12.0076 200.807Z" fill="#040000"/>
<path d="M67.675 186.173C66.8616 184.902 64.9771 184.167 63.6083 185.101C63.4099 185.24 63.1917 185.379 62.9735 185.498C62.8743 185.557 62.7949 185.597 62.6957 185.637C62.2394 185.796 61.8031 185.915 61.327 186.014C61.2873 186.014 61.2476 186.014 61.2277 186.014C60.9897 186.014 60.7318 186.034 60.4739 186.014C60.2557 186.014 60.0375 185.994 59.8193 185.974C59.7201 185.974 59.6408 185.935 59.5416 185.915C59.0853 185.815 58.6687 185.657 58.2125 185.518C58.1133 185.478 58.0339 185.418 57.9347 185.379C57.7165 185.259 57.4983 185.14 57.2999 185.001C57.2404 184.962 57.1611 184.902 57.1016 184.862C56.9429 184.723 56.7841 184.584 56.6452 184.445C56.546 184.346 56.4469 184.227 56.3477 184.128C56.3279 184.108 56.2881 184.068 56.2683 184.028C56.1889 183.909 56.1096 183.77 56.0302 183.651C55.8517 183.373 55.6336 183.115 55.3558 182.916C55.7327 182.48 55.9509 182.162 55.9509 182.162C56.6651 181.328 57.5379 180.057 57.9942 178.429C58.1727 177.774 59.006 174.775 57.4586 173.346C56.9428 172.869 56.3279 172.77 55.1178 172.571C53.9275 172.373 52.1024 172.075 49.6227 172.611C47.381 173.087 44.8616 173.643 43.5523 175.47C41.6677 178.111 43.096 182.281 45.4765 184.584C45.2782 184.981 45.06 185.359 44.8021 185.716C44.4054 186.173 43.9887 186.61 43.5126 187.007C43.0365 187.344 42.5406 187.642 42.0248 187.88C41.5288 188.059 41.0131 188.218 40.4974 188.317C40.0609 188.357 39.6443 188.397 39.2079 188.357C37.6605 188.278 36.1727 189.787 36.2322 191.335C36.3115 193.023 37.5415 194.234 39.2079 194.314C44.1276 194.572 49.0276 191.355 51.0114 186.848C54.2052 191.852 61.6245 193.679 66.6038 190.243C67.8933 189.37 68.5875 187.583 67.675 186.173Z" fill="#040000"/>
</svg>
