<svg viewBox="0 0 307 347" fill="none" xmlns="http://www.w3.org/2000/svg">
<path d="M273.653 232.025C273.395 231.589 273.157 231.173 272.899 230.756C272.661 230.32 272.403 229.903 272.146 229.487C271.888 229.05 271.65 228.634 271.392 228.217C271.154 227.781 270.896 227.364 270.639 226.948C270.381 226.511 270.143 226.095 269.885 225.678C269.647 225.242 269.389 224.826 269.132 224.409C268.874 223.973 268.636 223.556 268.378 223.14C268.14 222.703 267.882 222.287 267.624 221.87C267.367 221.434 267.129 221.017 266.871 220.601C266.633 220.164 266.375 219.748 266.117 219.331C265.86 218.895 265.622 218.479 265.364 218.062C265.106 217.626 264.868 217.209 264.61 216.773C264.372 216.336 264.115 215.92 263.857 215.503C263.599 215.067 263.361 214.65 263.103 214.234C262.865 213.798 262.608 213.381 262.35 212.965C262.092 212.528 261.854 212.112 261.596 211.695C261.358 211.259 261.101 210.842 260.843 210.426C260.585 209.989 260.347 209.573 260.089 209.156C259.851 208.72 259.593 208.303 259.336 207.887C259.078 207.451 258.84 207.034 258.582 206.618C258.344 206.181 258.086 205.765 257.829 205.348C257.571 204.912 257.333 204.495 257.075 204.079C256.837 203.642 256.579 203.226 256.322 202.809C256.064 202.373 255.826 201.956 255.568 201.54C255.33 201.104 255.072 200.687 254.815 200.271C254.557 199.834 254.319 199.418 254.061 199.001C253.823 198.565 253.565 198.148 253.308 197.732C253.05 197.295 252.812 196.879 252.554 196.462C252.316 196.026 252.058 195.61 251.8 195.193C251.543 194.757 251.305 194.34 251.047 193.924C250.809 193.487 250.551 193.071 250.293 192.654C250.036 192.218 249.798 191.801 249.54 191.385C249.302 190.948 249.044 190.532 248.786 190.115C248.529 189.679 248.291 189.262 248.033 188.846C247.775 188.41 247.537 187.993 247.279 187.577C247.041 187.14 246.783 186.724 246.526 186.307C246.308 185.93 246.089 185.534 245.852 185.157C266.831 177.005 281.704 156.615 281.704 132.754C281.704 101.694 256.54 76.5239 225.486 76.5239H203.039C195.623 54.1507 174.544 38.0254 149.698 38.0254C124.851 38.0254 103.772 54.1706 96.3559 76.5239H73.9087C42.8555 76.5239 17.6917 101.694 17.6917 132.754C17.6917 156.615 32.5639 177.005 53.5437 185.157C53.3057 185.534 53.0876 185.91 52.8695 186.307C52.6117 186.724 52.3737 187.16 52.1159 187.577C51.8581 187.993 51.6004 188.429 51.3624 188.846C51.1046 189.262 50.8666 189.699 50.6089 190.115C50.3511 190.532 50.1132 190.968 49.8554 191.385C49.5976 191.801 49.3398 192.238 49.1019 192.654C48.8441 193.071 48.6061 193.507 48.3483 193.924C48.0905 194.34 47.8327 194.776 47.5948 195.193C47.337 195.61 47.099 196.046 46.8412 196.462C46.5835 196.879 46.3257 197.315 46.0877 197.732C45.8299 198.148 45.592 198.585 45.3342 199.001C45.0764 199.418 44.8186 199.854 44.5807 200.271C44.3229 200.687 44.0849 201.123 43.8272 201.54C43.5694 201.956 43.3116 202.393 43.0736 202.809C42.8158 203.226 42.5779 203.662 42.3201 204.079C42.0623 204.495 41.8045 204.932 41.5665 205.348C41.3088 205.765 41.0709 206.201 40.8131 206.618C40.5553 207.034 40.2975 207.47 40.0595 207.887C39.8018 208.303 39.5638 208.74 39.306 209.156C39.0482 209.573 38.7904 210.009 38.5525 210.426C38.2947 210.842 38.0567 211.279 37.7989 211.695C37.5411 212.112 37.2833 212.548 37.0454 212.965C36.7876 213.381 36.5497 213.817 36.2919 214.234C36.0341 214.65 35.7763 215.087 35.5384 215.503C35.2806 215.92 35.0426 216.356 34.7848 216.773C34.5271 217.189 34.2693 217.626 34.0313 218.062C33.7735 218.479 33.5356 218.915 33.2778 219.331C33.02 219.748 32.782 220.184 32.5242 220.601C32.2665 221.017 32.0087 221.454 31.7707 221.87C31.5129 222.287 31.275 222.723 31.0172 223.14C30.7594 223.556 30.5016 223.992 30.2637 224.409C30.0059 224.826 29.7679 225.262 29.5102 225.678C29.2524 226.095 28.9946 226.531 28.7566 226.948C28.4988 227.364 28.2609 227.801 28.0031 228.217C27.7453 228.634 27.4875 229.07 27.2495 229.487C26.9918 229.903 26.7539 230.339 26.4961 230.756C26.2383 231.173 25.9805 231.609 25.7425 232.025C20.4679 240.594 17.4141 250.67 17.4141 261.479C17.4141 292.54 42.5779 317.71 73.6311 317.71C94.4126 317.71 112.537 306.424 122.273 289.664C122.531 289.248 122.789 288.811 123.027 288.395C123.285 287.978 123.522 287.542 123.78 287.125C124.038 286.709 124.296 286.272 124.534 285.856C124.792 285.439 125.03 285.003 125.287 284.586C125.545 284.17 125.803 283.734 126.041 283.317C126.299 282.901 126.537 282.464 126.794 282.048C127.052 281.631 127.31 281.195 127.548 280.778C127.806 280.362 128.044 279.925 128.301 279.509C128.559 279.092 128.817 278.656 129.055 278.239C129.313 277.823 129.551 277.387 129.808 276.97C130.066 276.554 130.324 276.117 130.562 275.681C130.82 275.264 131.058 274.828 131.316 274.411C131.573 273.995 131.831 273.559 132.069 273.142C132.327 272.726 132.565 272.289 132.823 271.873C133.08 271.456 133.338 271.02 133.576 270.603C133.834 270.187 134.072 269.75 134.33 269.334C134.587 268.917 134.845 268.481 135.083 268.064C135.341 267.648 135.579 267.212 135.837 266.795C136.094 266.378 136.352 265.942 136.59 265.526C136.848 265.109 137.086 264.673 137.344 264.256C137.602 263.84 137.84 263.403 138.097 262.987C138.355 262.57 138.613 262.134 138.851 261.717C139.109 261.301 139.347 260.865 139.604 260.448C139.862 260.032 140.12 259.595 140.358 259.179C140.616 258.762 140.854 258.326 141.111 257.909C141.369 257.493 141.627 257.056 141.865 256.64C142.123 256.223 142.361 255.787 142.618 255.37C142.876 254.954 143.134 254.518 143.372 254.101C143.63 253.685 143.868 253.248 144.125 252.832C144.125 252.832 144.145 252.792 144.165 252.772L141.151 247.655L129.233 226.293C127.945 223.992 128.757 221.097 131.058 219.807C133.358 218.518 136.253 219.331 137.542 221.632L150.174 244.124C150.372 244.481 150.59 244.838 150.788 245.176C151.026 245.612 151.284 246.028 151.542 246.445C151.8 246.881 152.038 247.298 152.295 247.714C152.533 248.151 152.791 248.567 153.049 248.984C153.307 249.42 153.545 249.837 153.802 250.253C154.04 250.69 154.298 251.106 154.556 251.523C154.814 251.959 155.052 252.375 155.309 252.792C155.547 253.228 155.805 253.645 156.063 254.061C156.321 254.498 156.559 254.914 156.816 255.331C157.054 255.767 157.312 256.184 157.57 256.6C157.828 257.037 158.066 257.453 158.323 257.87C158.561 258.306 158.819 258.722 159.077 259.139C159.335 259.575 159.573 259.992 159.831 260.408C160.069 260.845 160.326 261.261 160.584 261.678C160.842 262.114 161.08 262.531 161.338 262.947C161.576 263.384 161.833 263.8 162.091 264.217C162.349 264.653 162.587 265.069 162.845 265.486C163.102 265.922 163.34 266.339 163.598 266.755C163.836 267.192 164.094 267.608 164.352 268.025C164.609 268.461 164.847 268.878 165.105 269.294C165.343 269.731 165.601 270.147 165.859 270.564C166.117 271 166.354 271.416 166.612 271.833C166.85 272.269 167.108 272.686 167.366 273.102C167.624 273.539 167.862 273.955 168.119 274.372C168.357 274.808 168.615 275.225 168.873 275.641C169.131 276.078 169.369 276.494 169.626 276.93C169.864 277.367 170.122 277.783 170.38 278.2C170.638 278.636 170.876 279.053 171.133 279.469C171.371 279.906 171.629 280.322 171.887 280.739C172.145 281.175 172.383 281.591 172.64 282.008C172.878 282.444 173.136 282.861 173.394 283.277C173.652 283.714 173.89 284.13 174.148 284.547C174.386 284.983 174.643 285.4 174.901 285.816C175.159 286.253 175.397 286.669 175.655 287.086C175.893 287.522 176.15 287.939 176.408 288.355C176.666 288.791 176.904 289.208 177.162 289.624C186.898 306.384 205.022 317.67 225.804 317.67C256.857 317.67 282.021 292.5 282.021 261.44C282.021 250.63 278.967 240.554 273.692 231.986L273.653 232.025Z" fill="#2AA86C"/>
<path d="M122.273 114.864C122.412 115.241 122.55 115.658 122.788 115.995C123.007 116.312 123.244 116.669 123.542 116.907C124.077 117.343 124.514 117.681 125.208 117.839H125.247C125.485 117.879 125.822 117.919 126.08 117.958C126.12 117.958 126.159 117.958 126.179 117.958C126.338 117.958 126.536 117.919 126.675 117.899C126.814 117.879 127.012 117.859 127.171 117.82C127.904 117.621 128.341 117.284 128.916 116.808C129.015 116.729 129.094 116.649 129.174 116.55C129.392 116.312 129.59 116.054 129.768 115.777C129.808 115.717 129.868 115.638 129.907 115.558C130.026 115.32 130.145 115.043 130.244 114.785C130.244 114.765 130.264 114.725 130.264 114.705C130.264 114.686 130.264 114.646 130.264 114.626C130.304 114.428 130.363 114.011 130.363 113.813C130.363 113.813 130.363 113.773 130.363 113.753C130.363 113.456 130.324 113.139 130.244 112.841C130.244 112.841 130.244 112.821 130.244 112.801C130.185 112.643 130.006 112.226 129.947 112.068C129.947 112.048 129.927 112.008 129.907 111.988C129.907 111.988 129.907 111.968 129.887 111.949C129.768 111.79 129.53 111.473 129.411 111.334C129.411 111.314 129.372 111.294 129.352 111.274C129.332 111.254 129.312 111.235 129.273 111.215C129.213 111.175 129.154 111.115 129.094 111.076C129.094 111.076 129.094 111.036 129.074 111.016L128.618 110.421C128.242 110.044 127.805 109.806 127.31 109.648C127.191 109.608 127.091 109.588 126.972 109.568C126.635 109.509 126.259 109.43 125.902 109.449C125.564 109.449 125.208 109.509 124.87 109.588C124.831 109.588 124.791 109.608 124.771 109.628C124.553 109.707 124.236 109.846 124.018 109.945C124.018 109.945 123.978 109.945 123.958 109.965C123.938 109.965 123.899 110.005 123.879 110.025C123.681 110.163 123.423 110.362 123.244 110.52C123.244 110.52 123.225 110.54 123.205 110.56C123.185 110.58 123.165 110.6 123.145 110.639C122.987 110.818 122.788 111.076 122.65 111.274C122.65 111.274 122.63 111.294 122.61 111.314C122.61 111.334 122.57 111.373 122.57 111.393C122.451 111.651 122.332 111.929 122.233 112.187C122.213 112.246 122.193 112.325 122.174 112.385C122.114 112.682 122.075 112.98 122.055 113.277C122.055 113.317 122.055 113.357 122.055 113.396C122.055 113.476 122.055 113.555 122.055 113.634C122.094 114.011 122.134 114.487 122.273 114.884V114.864Z" fill="#040000"/>
<path d="M169.645 117.858C170.101 118.156 170.636 118.374 171.172 118.533C171.707 118.691 172.282 118.771 172.837 118.771C173.353 118.771 173.908 118.711 174.384 118.533C175.138 118.235 175.356 118.116 175.97 117.62C176.288 117.363 176.526 117.025 176.744 116.688C177.14 116.034 177.398 115.121 177.319 114.368C177.279 113.971 177.24 113.535 177.101 113.158C176.942 112.781 176.803 112.364 176.565 112.027C176.288 111.63 175.97 111.293 175.633 110.976C175.514 110.837 175.435 110.678 175.316 110.559C174.761 110.024 174.344 109.825 173.65 109.568C172.897 109.27 172.005 109.33 171.231 109.508C170.854 109.587 170.458 109.786 170.141 109.925C169.982 110.004 169.823 110.083 169.684 110.202C168.99 110.718 168.435 111.214 167.979 111.968C167.602 112.622 167.345 113.416 167.364 114.189C167.384 114.923 167.583 115.716 168.019 116.331C168.495 117.006 168.951 117.442 169.645 117.898V117.858Z" fill="#040000"/>
<path d="M140.081 142.354C140.259 142.592 140.437 142.811 140.616 143.049C140.636 143.088 140.715 143.168 140.755 143.247C140.814 143.386 140.933 143.564 140.953 143.604C141.112 143.902 141.231 144.199 141.389 144.477C141.945 145.488 142.678 146.421 143.352 147.373C144.046 148.344 144.641 149.376 145.355 150.308C146.248 151.478 147.061 152.768 148.449 153.343C149.401 153.739 150.392 153.68 151.304 153.184C152.177 152.708 152.534 151.855 152.891 151.002C153.148 150.407 153.386 149.792 153.644 149.197C153.723 148.999 153.803 148.781 153.902 148.582C153.922 148.543 153.941 148.483 153.961 148.463C154.041 148.305 154.1 148.146 154.179 147.987C154.695 146.857 155.31 145.766 155.944 144.695C157.273 142.454 159.375 140.034 159.276 137.257C159.236 136.067 158.383 134.599 157.094 134.381C154.933 134.044 152.91 134.421 150.769 134.619C148.468 134.817 146.188 134.976 143.908 135.333C143.333 135.432 142.817 135.769 142.44 136.226C141.588 136.305 140.794 136.702 140.338 137.475C140.081 137.693 139.862 137.951 139.664 138.249C138.99 139.32 139.089 140.748 139.704 141.819C139.823 142.017 139.942 142.196 140.081 142.374V142.354ZM153.882 148.622C153.823 148.761 153.842 148.721 153.882 148.622V148.622ZM147.913 140.807C148.865 140.728 149.797 140.669 150.749 140.569C151.007 140.55 151.284 140.51 151.542 140.47C151.185 141.065 150.808 141.66 150.451 142.255C149.916 143.188 149.42 144.14 148.964 145.131C148.687 144.695 148.409 144.278 148.112 143.862C147.497 142.989 146.842 142.116 146.347 141.164C146.307 141.105 146.267 141.045 146.248 140.966C146.307 140.966 146.367 140.966 146.426 140.966C146.922 140.907 147.418 140.867 147.913 140.827V140.807Z" fill="#040000"/>
<path d="M297.666 125.574C299.768 122.381 301.414 118.89 301.632 115.022C301.712 113.634 300.641 112.583 299.451 112.147C298.36 111.75 297.171 111.67 296.001 111.631C295.941 111.631 295.882 111.631 295.802 111.631C297.944 107.386 299.629 102.844 299.927 98.0839C300.205 93.7005 298.955 87.3733 293.641 86.7585C291.023 86.461 288.882 87.9287 286.859 89.3766C284.301 91.2411 281.584 92.8278 278.788 94.2956C272.443 97.6476 265.78 100.325 259.296 103.38C255.826 105.006 258.86 110.143 262.29 108.517C271.927 103.975 281.902 100.167 290.627 93.9385C291.936 93.0063 292.808 91.9749 293.522 93.4426C294.216 94.8707 294.097 96.8343 293.978 98.3616C293.581 103.3 291.162 108.001 288.723 112.226C288.108 113.297 288.208 114.963 289.179 115.836C291.043 117.482 293.125 117.284 295.227 117.422C294.474 119.941 292.867 122.441 291.281 124.285C289.1 126.844 286.681 128.649 285.372 131.842C285.015 132.735 285.412 134.143 286.145 134.738C287.018 135.472 287.91 135.968 289.04 136.225C289.397 136.305 289.913 136.444 290.29 136.424C289.893 136.9 289.358 137.911 289.199 138.129C288.564 139.002 287.811 139.875 286.998 140.589C285.61 141.779 283.567 142.632 283.032 144.635C282.675 145.944 283.092 147.233 283.805 148.324C284.242 148.979 285.075 149.475 285.154 150.268C285.332 151.815 283.092 153.481 282.08 154.295C280.514 155.564 278.749 156.556 277.043 157.646C274.565 159.233 272.503 161.713 269.905 163.081C267.644 164.271 265.146 164.152 263.242 166.096C260.545 168.833 264.749 173.038 267.446 170.301C268.279 169.468 270.083 169.388 271.174 169.012C272.582 168.516 273.732 167.683 274.902 166.77C277.281 164.926 279.562 163.141 282.1 161.514C286.066 158.975 291.261 155.346 291.083 150.05C291.043 148.86 290.666 147.65 290.032 146.638C289.893 146.44 289.734 146.242 289.576 146.063C289.615 146.043 289.635 146.004 289.675 145.984C291.678 144.576 293.343 142.652 294.692 140.609C296.139 138.407 297.111 135.531 295.604 133.072C295.009 132.1 294.038 131.386 292.987 130.989C293.423 130.573 293.859 130.176 294.256 129.779C295.544 128.49 296.655 127.102 297.646 125.574H297.666Z" fill="#040000"/>
<path d="M42.3404 100.544C35.9949 97.5485 29.471 94.9105 23.2445 91.6775C20.4088 90.2098 17.593 88.623 15.0152 86.7387C12.9331 85.2115 10.7121 83.6049 7.99549 83.9223C2.78029 84.5372 1.47155 90.6263 1.68968 94.9701C1.92763 99.8295 3.63297 104.471 5.83406 108.795C5.77457 108.795 5.69524 108.795 5.63576 108.795C4.48564 108.834 3.27605 108.914 2.18542 109.31C0.99564 109.747 -0.0751726 110.818 0.00414593 112.186C0.222272 116.054 1.86813 119.545 3.97007 122.738C4.90207 124.146 5.91341 125.475 7.10319 126.685C7.5791 127.161 8.1145 127.637 8.6499 128.153C7.5791 128.55 6.60741 129.264 6.01252 130.236C4.5253 132.695 5.47711 135.571 6.92467 137.773C8.27308 139.816 9.93877 141.72 11.9416 143.148C11.9416 143.148 12.0011 143.187 12.0408 143.227C11.9614 143.326 11.8821 143.406 11.8226 143.505C11.0492 144.615 10.5932 145.845 10.5535 147.214C10.3552 152.51 15.5903 156.159 19.5364 158.678C22.0745 160.304 24.355 162.07 26.7345 163.934C27.9045 164.847 29.0546 165.68 30.4625 166.175C31.573 166.572 33.3576 166.612 34.1904 167.465C36.8872 170.202 41.0912 165.997 38.3944 163.26C36.5105 161.356 34.1112 161.475 31.8902 160.344C29.2331 158.995 27.1311 156.437 24.5929 154.83C22.9867 153.799 21.3012 152.847 19.7941 151.677C18.7035 150.824 16.3041 149.078 16.4826 147.452C16.5619 146.658 17.4145 146.143 17.831 145.508C18.4853 144.516 18.8621 143.406 18.6638 142.215C18.2871 139.954 16.1653 139.082 14.6384 137.773C13.2504 136.583 12.5365 135.035 11.5054 133.627C11.8623 133.588 12.3977 133.469 12.596 133.409C13.7461 133.131 14.5789 132.655 15.4911 131.921C16.2248 131.326 16.6214 129.918 16.2645 129.026C14.9557 125.812 12.5365 124.027 10.3552 121.469C8.76885 119.604 7.16267 117.125 6.40914 114.606C8.51108 114.487 10.5733 114.666 12.4572 113.019C13.4486 112.147 13.5478 110.5 12.9133 109.409C10.5139 105.244 8.17397 100.682 7.69805 95.8229C7.53942 94.256 7.4403 92.3916 8.03519 90.904C8.17399 90.5668 8.70935 89.7933 8.55071 89.833C9.24475 89.6743 10.5139 90.8048 11.0096 91.1618C19.7347 97.3898 29.7089 101.198 39.3461 105.74C42.7965 107.367 45.8106 102.229 42.3404 100.603V100.544ZM11.2277 133.588C11.2277 133.588 11.3864 133.588 11.4855 133.588C11.7631 134.321 9.58187 133.191 11.2277 133.588Z" fill="#040000"/>
<path d="M96.9134 339.012C94.5537 337.981 92.2336 336.91 89.9136 335.819C88.8031 335.283 87.6728 334.768 86.5624 334.232C86.0468 333.994 85.5511 333.756 85.0355 333.498C84.7777 332.011 84.5199 330.523 84.3018 329.036C83.5086 323.879 82.874 318.682 82.0412 313.525C81.7834 311.938 79.8203 311.046 78.3727 311.442C76.6872 311.899 76.0328 313.505 76.2906 315.112C77.1036 320.09 77.7382 325.108 78.4719 330.087C78.5314 330.464 78.5909 330.84 78.6503 331.217C78.4322 331.297 78.2339 331.376 78.0356 331.515C75.9535 333.022 73.8317 334.47 71.71 335.898C70.6788 336.592 69.6477 337.287 68.6166 337.981C68.101 338.318 67.6052 338.655 67.0698 338.992C66.8121 339.151 66.5543 339.31 66.2767 339.468C66.1974 339.508 66.118 339.548 66.0585 339.607C64.5316 339.944 63.5005 341.789 63.9764 343.257C64.492 344.863 65.9991 345.696 67.6449 345.339C68.914 345.062 70.1633 344.11 71.2341 343.396C72.3247 342.662 73.4153 341.928 74.506 341.194C76.251 340.024 77.9563 338.814 79.6815 337.604C79.9987 339.766 80.2367 341.928 80.2367 344.13C80.2367 347.958 86.1856 347.958 86.1856 344.13C86.1856 342.92 86.1063 341.73 86.0071 340.54C86.2253 340.639 86.4434 340.738 86.6417 340.837C89.0411 341.968 91.4404 343.098 93.8795 344.149C95.3072 344.764 97.1316 344.625 97.9446 343.078C98.6188 341.789 98.4007 339.667 96.8738 339.012H96.9134Z" fill="#040000"/>
<path d="M229.512 339.627C229.512 339.627 229.334 339.508 229.254 339.449C229.016 339.29 228.759 339.131 228.521 338.973C228.025 338.655 227.549 338.298 227.073 337.961C226.101 337.267 225.11 336.573 224.138 335.859C222.155 334.431 220.172 332.983 218.249 331.495C218.11 331.396 217.932 331.297 217.753 331.237C217.813 330.841 217.872 330.444 217.932 330.047C218.626 325.049 219.221 320.051 219.974 315.072C220.212 313.485 219.577 311.879 217.892 311.403C216.484 311.026 214.481 311.879 214.223 313.485C213.45 318.642 212.855 323.819 212.102 328.996C211.884 330.503 211.646 331.991 211.388 333.498C211.011 333.697 210.634 333.895 210.258 334.093C209.167 334.649 208.096 335.184 207.005 335.74C204.785 336.85 202.564 337.941 200.323 338.992C198.915 339.647 198.439 341.809 199.252 343.058C200.184 344.526 201.81 344.824 203.317 344.13C205.637 343.059 207.937 341.908 210.218 340.758C210.277 340.718 210.357 340.678 210.416 340.659C210.317 341.809 210.258 342.959 210.258 344.11C210.258 347.938 216.206 347.938 216.206 344.11C216.206 341.987 216.425 339.865 216.702 337.763C218.209 338.893 219.736 340.024 221.263 341.135C222.274 341.849 223.266 342.582 224.277 343.297C225.328 344.05 226.498 345.022 227.767 345.32C229.274 345.677 231.059 344.844 231.436 343.237C231.773 341.749 230.999 340.044 229.453 339.607L229.512 339.627Z" fill="#040000"/>
<path d="M177.161 188.33C164.291 178.611 149.796 178.135 144.283 177.957C137.184 177.738 122.391 177.243 109.542 187.398C96.9894 197.295 94.0943 210.683 91.9527 220.581C89.9499 229.863 86.2021 247.159 96.3351 263.482C104.009 275.859 115.312 281.433 121.38 283.674C121.717 283.793 122.074 283.852 122.411 283.852C123.621 283.852 124.751 283.099 125.207 281.909C125.782 280.362 124.989 278.656 123.442 278.081C118.108 276.117 108.134 271.178 101.392 260.329C92.5278 246.028 95.7997 230.875 97.8025 221.672C99.8251 212.29 102.363 200.627 113.23 192.039C124.394 183.233 137.7 183.669 144.144 183.887C149.558 184.066 162.229 184.482 173.591 193.07C190.367 205.745 197.129 231.371 188.979 251.403C183.804 264.157 174.107 271.734 166.869 275.859C165.441 276.672 164.946 278.497 165.759 279.925C166.572 281.353 168.396 281.849 169.824 281.036C177.855 276.454 188.662 267.965 194.492 253.645C203.752 230.855 196.316 202.789 177.181 188.33H177.161Z" fill="#040000"/>
</svg>
