<svg viewBox="0 0 264 316" fill="none" xmlns="http://www.w3.org/2000/svg">
<path d="M264 79.5271C264 48.4509 238.839 23.2686 207.79 23.2686H56.2102C25.1607 23.2686 0 48.4509 0 79.5271C0 101.058 12.0946 119.771 29.8598 129.217V160.492C12.0946 169.938 0 188.651 0 210.182C0 241.258 25.1607 266.44 56.2102 266.44H207.79C238.839 266.44 264 241.258 264 210.182C264 188.651 251.905 169.938 234.14 160.492V129.217C251.905 119.771 264 101.058 264 79.5271ZM149.735 155.59C149.735 160.174 146.008 163.905 141.428 163.905H122.592C118.012 163.905 114.284 160.174 114.284 155.59V136.738C114.284 132.154 118.012 128.423 122.592 128.423H141.428C146.008 128.423 149.735 132.154 149.735 136.738V155.59Z" fill="#D03C19"/>
<path d="M133.696 174.244C136.095 173.609 137.8 171.526 138.177 169.124C138.514 168.628 138.712 167.954 138.712 167.418C138.712 166.684 138.395 165.81 137.84 165.314C137.582 165.076 137.305 164.898 136.987 164.739C136.928 164.659 136.868 164.56 136.809 164.501C135.917 163.489 134.43 162.933 133.081 163.012C131.674 163.112 130.425 163.628 129.374 164.58C129.275 164.679 129.175 164.798 129.076 164.917C128.481 165.235 127.907 165.592 127.391 166.049C126.439 166.842 125.845 167.934 125.428 169.065C125.071 170.057 125.507 171.248 126.201 171.962C128.085 173.947 131.02 174.978 133.716 174.284L133.696 174.244Z" fill="#231815"/>
<path d="M144.858 197.343C137.026 199.625 128.778 199.466 121.025 196.886C119.499 196.39 117.774 197.462 117.357 198.97C116.921 200.597 117.912 202.125 119.439 202.641C128.143 205.519 137.64 205.658 146.424 203.098C150.092 202.026 148.526 196.271 144.838 197.363L144.858 197.343Z" fill="#231815"/>
<path d="M66.4612 23.0902C67.7499 26.6622 73.4999 25.1143 72.1913 21.5027C67.6905 9.06031 55.4966 0.626467 42.371 0.0311384C28.6902 -0.603879 17.0913 8.54435 12.3129 21.0066C9.69573 27.8727 9.39834 35.6517 11.8371 42.5972C13.106 46.189 18.8559 44.6412 17.5671 41.0096C13.0465 28.1704 19.8869 12.037 32.9531 7.33388C45.8606 2.69032 61.7621 10.1319 66.4413 23.0704L66.4612 23.0902Z" fill="#231815"/>
<path d="M250.498 15.7872C242.17 6.50006 228.727 4.59503 217.505 9.35766C211.16 12.0565 205.748 16.7794 202.615 22.9708C200.89 26.384 206.025 29.4004 207.75 25.9673C213.322 14.9339 228.192 9.21873 239.533 14.795C250.736 20.3117 255.97 35.3934 250.537 46.6451C248.892 50.0782 254.007 53.0945 255.672 49.6415C261.046 38.5089 258.706 24.8957 250.498 15.7475V15.7872Z" fill="#231815"/>
<path d="M170.295 132.155C170.057 131.837 169.839 131.5 169.522 131.242C169.225 131.004 168.907 130.706 168.551 130.548C168.253 130.409 167.956 130.29 167.658 130.171C167.619 130.171 167.579 130.151 167.539 130.131C167.401 130.091 167.282 130.091 167.103 130.071C166.845 129.992 166.568 129.992 166.31 130.071C166.032 130.071 165.795 130.131 165.557 130.27C165.358 130.349 165.2 130.409 165.021 130.528C164.763 130.686 164.545 130.885 164.307 131.063C164.228 131.143 164.149 131.202 164.07 131.302C163.653 131.818 163.415 132.155 163.197 132.79C163.197 132.83 163.177 132.869 163.158 132.909C163.118 133.048 163.058 133.564 163.039 133.723C163.039 133.742 163.039 133.762 163.039 133.802C163.039 133.921 163.078 134.04 163.078 134.179C163.039 134.298 162.959 134.397 162.94 134.536C162.92 134.635 162.9 134.715 162.88 134.814C162.821 135.151 162.741 135.489 162.761 135.826C162.761 136.104 162.821 136.421 162.88 136.699C162.88 136.739 162.88 136.779 162.92 136.838C162.999 137.096 163.118 137.374 163.237 137.612C163.237 137.652 163.276 137.691 163.296 137.731C163.435 137.949 163.633 138.188 163.812 138.386C163.832 138.426 163.871 138.446 163.891 138.465C163.911 138.485 163.951 138.525 163.99 138.545C164.208 138.723 164.446 138.922 164.684 139.081C164.764 139.14 164.843 139.18 164.942 139.22C165.259 139.358 165.596 139.517 165.933 139.616C166.072 139.656 166.607 139.735 166.746 139.735C166.865 139.735 167.44 139.656 167.559 139.616C167.599 139.616 167.658 139.597 167.698 139.577C168.015 139.477 168.313 139.339 168.61 139.2C168.967 139.021 169.284 138.763 169.582 138.505C169.879 138.247 170.117 137.91 170.335 137.592C170.553 137.275 170.692 136.878 170.831 136.521C170.89 136.382 170.93 136.243 170.95 136.104C171.009 135.727 171.089 135.31 171.089 134.893C171.049 134.02 170.85 133.346 170.494 132.572C170.434 132.433 170.355 132.314 170.256 132.175L170.295 132.155Z" fill="#231815"/>
<path d="M193.257 105.901C187.012 103.777 174.005 99.3521 161.554 106.099C154.991 109.651 150.609 114.335 148.567 119.99C143.67 133.584 153.92 149.856 166.035 158.27C166.61 158.687 177.297 165.969 190.581 165.969C194.764 165.969 199.225 165.235 203.687 163.35C206.661 162.1 215.682 158.27 219.608 148.764C225.556 134.377 214.572 120.367 212.311 117.688C205.947 110.187 198.313 107.588 193.257 105.861V105.901ZM214.116 146.502C211.122 153.745 203.786 156.861 201.367 157.873C185.703 164.521 170.079 153.845 169.425 153.388C160.582 147.256 150.014 133.464 154.158 122.014C156.478 115.605 162.426 112.39 164.369 111.318C168.315 109.175 172.379 108.421 176.206 108.421C182.253 108.421 187.746 110.286 191.334 111.517C196.033 113.124 202.477 115.307 207.771 121.558C208.921 122.907 218.835 135.072 214.116 146.502Z" fill="#231815"/>
<path d="M101.417 134.774C101.417 134.635 101.457 134.516 101.457 134.397C101.457 134.238 101.417 134.059 101.397 133.901C101.377 133.742 101.357 133.563 101.318 133.404C101.318 133.404 101.318 133.365 101.318 133.345C101.238 133.127 101.12 132.809 101.001 132.591C101.001 132.551 100.961 132.511 100.941 132.492C100.802 132.273 100.604 132.015 100.425 131.817C100.287 131.658 100.088 131.519 99.91 131.38C99.7117 131.222 99.5331 131.083 99.3151 130.964C99.1961 130.904 99.0773 130.864 98.9583 130.805C98.7204 130.666 98.4824 130.606 98.2048 130.606C98.0661 130.606 97.9469 130.567 97.8082 130.547C97.5504 130.587 97.273 130.626 97.0153 130.646C96.9756 130.646 96.916 130.666 96.8763 130.686C96.5789 130.785 96.2816 130.924 95.9842 131.063C95.9049 131.102 95.8454 131.142 95.7661 131.182C95.5084 131.36 95.2506 131.559 95.0127 131.757C94.9532 131.817 94.8936 131.857 94.8341 131.916C94.616 132.154 94.4178 132.412 94.2394 132.67C94.1997 132.73 94.1401 132.789 94.1005 132.869C93.9022 133.206 93.7634 133.583 93.6246 133.96C93.5255 134.218 93.5058 134.496 93.4661 134.774C93.4265 135.052 93.3867 135.329 93.3867 135.627C93.4065 135.945 93.4661 136.282 93.5058 136.599C93.5058 136.679 93.5257 136.758 93.5455 136.818C93.5455 136.877 93.585 136.957 93.6048 137.016C93.7238 137.314 93.8428 137.611 93.9816 137.909C94.0213 137.969 94.0608 138.048 94.1005 138.108C94.2789 138.366 94.4773 138.624 94.6954 138.862C94.735 138.921 94.7944 138.961 94.8539 139.02C95.0918 139.219 95.3496 139.437 95.6272 139.616C95.6867 139.655 95.766 139.695 95.8254 139.735C96.1228 139.874 96.4204 140.013 96.7377 140.112C96.7971 140.112 96.8367 140.152 96.8962 140.152C96.9953 140.171 97.5902 140.271 97.7092 140.271C97.9669 140.231 98.2446 140.191 98.5023 140.171C98.5023 140.171 98.5418 140.171 98.5616 140.171C98.9185 140.072 99.2556 139.913 99.5728 139.755C99.672 139.715 99.7711 139.655 99.8504 139.596C100.108 139.417 100.406 139.219 100.624 138.961C100.802 138.762 101 138.504 101.139 138.286C101.159 138.246 101.179 138.207 101.199 138.167C101.318 137.909 101.456 137.631 101.536 137.353C101.575 137.195 101.595 136.996 101.615 136.837C101.655 136.599 101.694 136.401 101.675 136.183C101.655 135.825 101.615 135.448 101.496 135.091C101.457 134.972 101.397 134.873 101.357 134.774H101.417Z" fill="#231815"/>
<path d="M103.002 106.695C90.531 99.9278 77.5243 104.373 71.2787 106.496C66.2228 108.223 58.5893 110.822 52.2248 118.323C49.9645 120.983 38.9803 135.013 44.9285 149.4C48.8543 158.905 57.8757 162.715 60.8498 163.985C65.3109 165.87 69.7522 166.605 73.9358 166.605C87.22 166.605 97.9268 159.322 98.5018 158.905C110.636 150.491 120.887 134.199 115.989 120.625C113.947 114.97 109.585 110.287 103.002 106.734V106.695ZM95.1111 153.984C94.4568 154.44 78.7933 165.096 63.1694 158.468C60.7505 157.456 53.4344 154.341 50.4207 147.098C45.7018 135.687 55.6153 123.503 56.7653 122.153C62.0592 115.902 68.5031 113.72 73.2022 112.112C76.7909 110.882 82.2831 109.016 88.3304 109.016C92.157 109.016 96.2216 109.771 100.187 111.914C102.15 112.965 108.098 116.2 110.398 122.61C114.542 134.06 103.954 147.852 95.131 153.984H95.1111Z" fill="#231815"/>
</svg>
