<svg width="54" height="44" viewBox="0 0 54 44" fill="none" xmlns="http://www.w3.org/2000/svg">
<path d="M47.6978 5.68747C45.1941 2.97174 41.5731 1.41504 37.765 1.41504H16.0415C10.3524 1.41504 5.74219 5.77961 5.74219 11.1601C5.74219 16.5407 10.3549 20.9053 16.0415 20.9053H27.4862L27.5323 20.6361C27.6451 19.8359 28.091 17.9058 29.8669 15.3235C30.1232 14.9525 30.6511 14.8458 31.0457 15.0883C31.2379 15.2071 31.3686 15.3865 31.4147 15.5975C31.4634 15.8084 31.4199 16.0242 31.2943 16.2036C30.1924 17.8064 29.626 19.4334 29.3826 20.27C29.3134 20.5391 29.2749 20.7549 29.2519 20.9053L27.6246 32.2604C26.8532 37.5925 30.7997 42.5074 36.435 43.2349C36.9091 43.2955 37.378 43.3246 37.8419 43.3246C42.9108 43.3246 47.3288 39.782 48.0335 34.8961L50.8242 15.5708C51.3393 12.0015 50.1989 8.39592 47.6952 5.68262L47.6978 5.68747Z" fill="#1DB270"/>
<path d="M9.39739 4.93748C9.27439 4.61013 8.81568 4.518 8.49791 4.57619C7.43185 4.77017 6.39654 4.54467 5.37148 4.26824C4.78207 4.10821 4.19523 3.94818 3.60069 3.82694C3.58532 3.77117 3.56226 3.72025 3.52125 3.67903C3.20605 3.38078 2.85497 3.14801 2.45007 2.97342C2.304 2.91038 2.13999 2.89583 1.98367 2.9128C1.84529 2.92493 1.67103 2.96372 1.5634 3.05586C1.34045 3.24742 1.10468 3.48747 0.953488 3.7542C0.938112 3.77359 0.917608 3.79057 0.902232 3.81239C0.710034 4.07184 0.625471 4.36766 0.602407 4.68288C0.587031 4.88656 0.784356 5.05872 0.963741 5.13146C1.02012 5.15328 1.07906 5.1751 1.138 5.19693C1.15081 5.243 1.16363 5.28664 1.179 5.33271C1.21488 5.45153 1.33276 5.54367 1.44039 5.60186C1.57108 5.6746 1.72997 5.71825 1.88373 5.7134C1.97598 5.71098 2.06823 5.694 2.15793 5.66975C2.71914 6.40688 3.4495 7.05672 4.12091 7.64836C5.19722 8.59887 6.46573 9.52027 7.4626 10.4538C7.72399 10.6987 8.11607 10.786 8.46203 10.6405C8.71829 10.5314 8.98481 10.1774 8.72342 9.93006C7.65993 8.93106 6.47086 8.05815 5.36636 7.10037C4.65651 6.48448 3.85953 5.79342 3.30856 4.99082C3.38031 4.95688 3.4495 4.91808 3.51869 4.87928C4.11322 5.0175 4.70007 5.19935 5.28435 5.34969C6.46573 5.65521 7.67274 5.80069 8.88743 5.57761C9.18982 5.52184 9.51784 5.25997 9.39739 4.9399V4.93748Z" fill="#292C2E"/>
<path d="M29.0826 3.01945C28.6034 2.07622 28.1908 1.05782 27.4143 0.289167C27.1709 0.0491157 26.7429 -0.0575711 26.4149 0.102463C25.9049 0.352213 25.4821 0.701376 25.1413 1.13783C24.8466 1.5161 24.6134 1.93073 24.3469 2.32597C24.1624 2.59996 24.2905 2.91276 24.6082 3.03642C24.903 3.14796 25.4129 3.14311 25.6077 2.84971C25.8563 2.48115 26.0766 2.09319 26.3432 1.73675C26.4354 1.61551 26.5405 1.50397 26.6455 1.39243C26.6507 1.39971 26.6558 1.40456 26.6584 1.40941C26.7404 1.52337 26.8147 1.64218 26.889 1.761C26.8992 1.77797 26.9018 1.78282 26.9044 1.78524C26.9069 1.79009 26.9095 1.79494 26.9223 1.81677C26.9556 1.87738 26.9915 1.938 27.0248 1.99862C27.258 2.42296 27.4553 2.86184 27.6732 3.29102C27.8269 3.59654 28.2293 3.73233 28.5727 3.65231C28.8392 3.58927 29.2466 3.33467 29.0826 3.0146V3.01945Z" fill="#292C2E"/>
<path d="M17.529 8.39974C17.529 8.39974 17.529 8.38762 17.5265 8.38277C17.5239 8.36822 17.5188 8.35367 17.5136 8.33912C17.5085 8.32214 17.5034 8.30275 17.4957 8.28578C17.4931 8.2785 17.488 8.27123 17.4854 8.26153C17.4854 8.26153 17.4854 8.2591 17.4829 8.25668C17.4829 8.2494 17.4829 8.24213 17.4778 8.23486C17.4573 8.17666 17.4163 8.11847 17.3829 8.06997C17.3727 8.05542 17.3599 8.04087 17.3471 8.02875C17.3009 7.98268 17.2522 7.93176 17.1959 7.89296C17.1344 7.84932 17.0626 7.81295 16.9934 7.779C16.9729 7.7693 16.9499 7.7596 16.9268 7.7499C16.8012 7.70383 16.6731 7.66746 16.5347 7.67231C16.4758 7.67231 16.3912 7.68443 16.3323 7.69171C16.3246 7.69171 16.3169 7.69171 16.3092 7.69414C16.2579 7.70383 16.2093 7.72081 16.158 7.73536C16.1093 7.7499 16.0581 7.76203 16.0119 7.78385C15.8735 7.85174 15.7736 7.90994 15.6737 8.02633C15.6685 8.03118 15.6634 8.03845 15.6608 8.0433C15.6301 8.08695 15.5993 8.13786 15.5763 8.18393C15.5686 8.19848 15.5635 8.21546 15.5583 8.23243C15.5378 8.31245 15.5173 8.39731 15.5327 8.47975C15.5378 8.504 15.543 8.53068 15.5481 8.55493C15.5481 8.56705 15.5532 8.58159 15.5558 8.59372C15.5609 8.62039 15.5635 8.64464 15.5712 8.67131C15.5788 8.70283 15.5891 8.70768 15.6122 8.74648C15.625 8.7683 15.6378 8.7877 15.648 8.80952C15.6865 8.84832 15.7275 8.88712 15.771 8.92106C15.7839 8.93076 15.7967 8.94046 15.812 8.95016C15.9555 9.04715 16.1067 9.11019 16.2784 9.14899C16.281 9.14899 16.2861 9.14899 16.2887 9.14899C16.2964 9.15142 16.2989 9.15869 16.3066 9.16111C16.3656 9.17809 16.4219 9.19506 16.4809 9.21446C16.6116 9.2387 16.7397 9.2387 16.8704 9.21446C16.9294 9.19748 16.9857 9.18051 17.0447 9.16111C17.1472 9.11989 17.2369 9.05685 17.3061 8.97441C17.3266 8.94289 17.3419 8.90894 17.3624 8.87741C17.4316 8.81922 17.5008 8.75618 17.5265 8.67131C17.5316 8.64949 17.5341 8.62524 17.5393 8.60342C17.5598 8.53553 17.5572 8.46521 17.5265 8.39731L17.529 8.39974Z" fill="#292C2E"/>
<path d="M31.2924 39.8217C31.0695 39.5259 30.6108 39.5331 30.293 39.635C28.2224 40.3066 26.098 40.8474 24.0863 41.6718C23.7839 41.228 23.502 40.7746 23.2714 40.2921C22.9844 39.6907 21.5442 39.9041 21.8619 40.5685C22.2156 41.3081 22.6512 42.0064 23.1484 42.6684C23.3534 42.9399 23.8505 42.9884 24.1478 42.8551C26.3542 41.8609 28.7272 41.279 31.0311 40.5321C31.3463 40.4303 31.4872 40.0787 31.2924 39.8217Z" fill="#292C2E"/>
<path d="M31.0754 24.1879C30.9498 23.8581 30.4962 23.7732 30.1759 23.8266C29.4481 23.9478 28.7203 24.0691 27.9874 24.1636C27.7978 24.1879 27.6056 24.2121 27.4159 24.2315C27.4159 24.2315 27.3032 24.2436 27.2775 24.2461C27.1904 24.2533 27.1007 24.2606 27.0136 24.2679C26.8009 24.2849 26.5882 24.2921 26.3755 24.2994C26.2858 24.2364 26.1807 24.1903 26.068 24.1636C26.0244 24.1539 25.9808 24.1418 25.9373 24.1321C25.945 24.1345 25.9527 24.137 25.9629 24.1418C25.9527 24.137 25.9424 24.1345 25.9347 24.1321C25.9322 24.1321 25.927 24.1321 25.9245 24.1297C25.8937 24.1224 25.8476 24.103 25.8476 24.1006C25.8143 24.0885 25.781 24.0788 25.7502 24.0666C25.6938 24.0448 25.6375 24.0181 25.5811 23.9939C25.5555 23.9818 25.5324 23.9696 25.5068 23.9551C25.2531 23.8048 25.0122 23.6326 24.7687 23.4701C24.6201 23.3707 24.433 23.3174 24.2511 23.3174C24.0845 23.3174 23.8667 23.3659 23.7334 23.4701C23.6181 23.5599 23.5105 23.6859 23.5207 23.8363C23.531 23.9842 23.6053 24.1151 23.7334 24.2024C23.9128 24.3237 24.0922 24.4449 24.2741 24.5613C23.9333 24.6971 23.6027 24.8498 23.285 25.0123C23.144 25.085 23.0056 25.1699 22.9492 25.3227C22.9006 25.4512 22.9287 25.6161 23.0236 25.7227C23.2439 25.9701 23.7155 26.0671 24.023 25.9095C24.2382 25.7979 24.4612 25.6961 24.6842 25.5967C24.5535 25.9143 24.4586 26.2441 24.4151 26.5908C24.3971 26.7266 24.5253 26.8818 24.6278 26.9569C24.7636 27.0564 24.9737 27.1146 25.1454 27.1097C25.3248 27.1049 25.5196 27.0685 25.6631 26.9569C25.7015 26.923 25.74 26.8866 25.7784 26.8527C25.8425 26.7751 25.8758 26.6878 25.8783 26.5908C25.8809 26.5617 25.886 26.535 25.8912 26.5084C25.9655 26.1422 26.0987 25.7882 26.2884 25.4609C26.2935 25.4536 26.2961 25.4463 26.3012 25.439C26.3217 25.4051 26.3422 25.3736 26.3576 25.3396C27.7696 25.3154 29.1816 25.0608 30.568 24.8304C30.8729 24.7795 31.1984 24.5104 31.078 24.1927L31.0754 24.1879Z" fill="#292C2E"/>
<path d="M25.9401 24.1292C25.8708 24.102 25.8477 24.0947 25.8477 24.0971C25.8759 24.107 25.9067 24.1193 25.9349 24.1292C25.9349 24.1292 25.9375 24.1292 25.9401 24.1292Z" fill="#292C2E"/>
<path d="M53.053 13.8509C52.6225 13.3393 52.1432 12.864 51.5872 12.4761C51.9024 11.9329 52.3303 11.3485 52.3047 10.7351C52.2765 10.0707 51.682 9.73123 51.0541 9.53483C51.3386 9.01593 51.5513 8.47278 51.5128 7.86659C51.4975 7.60472 51.2412 7.40589 50.9772 7.36709C50.5877 7.3089 50.1931 7.29435 49.8036 7.25556C49.9701 6.82152 50.129 6.36082 50.0316 5.92921C49.842 5.08055 48.8041 5.05387 48.0789 5.20178C47.1435 5.39334 47.6535 6.36809 48.4684 6.20078C48.512 6.19108 48.5402 6.18624 48.5684 6.17896C48.5632 6.2711 48.5684 6.38992 48.5555 6.44811C48.4761 6.8094 48.3147 7.15372 48.2019 7.50531C48.0943 7.84477 48.4018 8.06542 48.7119 8.14302C49.1424 8.25213 49.5832 8.27395 50.0239 8.3079C49.9419 8.76618 49.7036 9.18324 49.4499 9.5906C49.2295 9.94461 49.4781 10.2817 49.8856 10.352C50.3596 10.4344 50.9696 10.4587 50.7927 11.0139C50.6287 11.528 50.2623 11.9935 50.0265 12.4809C49.9419 12.6531 50.0521 12.8907 50.2136 12.9853C50.7133 13.2762 51.1259 13.6424 51.5051 14.0522C50.9977 14.4159 50.4545 14.7311 50.0291 15.1918C49.7856 15.4585 50.0239 15.7737 50.2905 15.9022C50.7594 16.1277 51.0516 16.54 51.2873 16.9716C50.7543 17.2965 50.334 17.7499 49.8164 18.1209C49.5422 18.3173 49.5473 18.6544 49.8164 18.8532C50.1956 19.1369 50.639 19.4012 50.9106 19.7867C50.4903 20.1335 50.0034 20.4123 49.5678 20.7396C49.1245 21.0743 49.4653 21.4865 49.8907 21.6053C50.2725 21.712 50.6492 21.8332 51.0106 21.9908C50.5134 22.3764 50.0214 22.7692 49.6139 23.2444C49.4525 23.4335 49.5037 23.7439 49.7292 23.8724C50.0675 24.0664 50.3622 24.3089 50.6492 24.5586C50.2059 24.8084 49.7677 25.063 49.373 25.3855C49.0501 25.6498 49.127 26.0377 49.5217 26.2002C49.8394 26.3311 50.1341 26.4863 50.416 26.6658C49.8651 27.0004 49.2782 27.2841 48.7477 27.6526C48.471 27.8466 48.4812 28.1885 48.7477 28.3849C49.3346 28.8165 49.9778 29.1948 50.5544 29.6434C50.1546 29.7913 49.7292 29.9004 49.35 30.0798C49.1142 30.1914 48.922 30.4023 49.0143 30.6642C49.1526 31.0643 49.3115 31.4425 49.537 31.7796C49.0168 31.9493 48.5453 32.2379 48.1558 32.6379C47.9046 32.895 48.1558 33.2272 48.4172 33.3484C48.7606 33.506 49.086 33.6806 49.2936 33.957C48.6375 34.2456 47.9892 34.5414 47.3972 34.9415C46.6592 35.441 47.8585 36.0617 48.43 35.6737C49.0809 35.2324 49.8215 34.9463 50.5442 34.6262C50.7979 34.5123 50.9516 34.3062 50.8799 34.0419C50.7338 33.506 50.3391 33.1302 49.8753 32.8368C50.1367 32.7034 50.4263 32.6307 50.7389 32.6355C51.2233 32.6428 51.7845 32.1166 51.2566 31.7505C50.9004 31.5032 50.7133 31.154 50.5672 30.7806C51.1054 30.5793 51.6589 30.4217 52.1561 30.1235C52.3559 30.0046 52.4584 29.67 52.2714 29.4954C51.6768 28.9426 51.0029 28.5013 50.334 28.0406C50.8901 27.7157 51.4693 27.4271 51.9869 27.0464C52.2663 26.8379 52.2483 26.5251 51.9869 26.3142C51.6922 26.0741 51.3719 25.8656 51.0362 25.6813C51.4103 25.4461 51.8024 25.2327 52.1868 25.0145C52.5071 24.8326 52.4072 24.4786 52.1868 24.2822C51.8639 23.9912 51.5513 23.6954 51.2028 23.4384C51.6384 23.0189 52.1356 22.6673 52.6148 22.2891C52.8608 22.0927 52.9146 21.7459 52.6148 21.5568C52.2124 21.3022 51.787 21.1131 51.3488 20.9506C51.7102 20.7008 52.0638 20.4462 52.3867 20.1407C52.4815 20.051 52.5123 19.8546 52.461 19.7406C52.2176 19.1999 51.7922 18.8241 51.3283 18.4725C51.6999 18.1427 52.0664 17.796 52.543 17.6214C52.7608 17.5414 52.9966 17.2698 52.8787 17.037C52.5584 16.3993 52.1996 15.8295 51.6563 15.3979C52.0664 15.0754 52.5507 14.8232 52.9454 14.4838C53.1401 14.3165 53.2426 14.0716 53.0607 13.8557L53.053 13.8509Z" fill="#292C2E"/>
</svg>
