<svg xmlns="http://www.w3.org/2000/svg" version="1.1" xmlns:xlink="http://www.w3.org/1999/xlink" xmlns:svgjs="http://svgjs.dev/svgjs" viewBox="0 0 600 600"><path d="M410.6643371582031,69.23076629638672C395.4545491536458,38.9860102335612,310.13986587524414,-8.916083017985024,256.4685363769531,54.54545593261719C202.7972068786621,118.00699488321939,102.62237548828125,372.0279719034831,88.63636016845703,450C74.65034484863281,527.972028096517,137.06293360392252,539.1608428955078,172.5524444580078,522.3776245117188C208.0419553120931,505.5944061279297,248.42657216389975,353.4964955647786,301.57342529296875,349.3006896972656C354.7202784220378,345.1048838297526,449.3006998697917,486.8881022135417,491.4335632324219,497.2027893066406C533.5664265950521,507.51747639973956,578.3216552734375,454.7202784220378,554.37060546875,411.1888122558594C530.4195556640625,367.65734608968097,371.6783091227214,293.0069999694824,347.7272644042969,236.0139923095703C323.7762196858724,179.0209846496582,425.87412516276044,99.47552235921223,410.6643371582031,69.23076629638672C395.4545491536458,38.9860102335612,310.13986587524414,-8.916083017985024,256.4685363769531,54.54545593261719" fill="hsl(105, 69%, 40%)" transform="matrix(1,0,0,1,-23.850929260253906,23.79892349243164)"></path></svg>