<svg xmlns="http://www.w3.org/2000/svg" version="1.1" xmlns:xlink="http://www.w3.org/1999/xlink" xmlns:svgjs="http://svgjs.dev/svgjs" viewBox="0 0 600 600"><path d="M502.9720153808594,190.90908813476562C557.1678161621094,173.60139592488608,579.1957880655924,102.97202555338542,505.0699157714844,86.01398468017578C430.9440434773763,69.05594380696614,131.99300320943195,14.860144297281906,58.21678161621094,89.16084289550781C-15.559439977010086,163.4615414937337,-15.03496678670247,456.29370371500653,62.4125862121582,531.8181762695312C139.86013921101886,607.342648824056,446.6783224741618,566.4335530598959,522.902099609375,542.3076782226562C599.1258767445883,518.1818033854166,575.1748301188151,412.58740234375,519.7552490234375,387.06292724609375C464.3356679280599,361.5384521484375,247.02796936035156,422.0279591878255,190.38461303710938,389.16082763671875C133.7412567138672,356.293696085612,127.79721069335938,222.90209452311197,179.89511108398438,189.86013793945312C231.99301147460938,156.81818135579428,448.7762145996094,208.21678034464517,502.9720153808594,190.90908813476562C557.1678161621094,173.60139592488608,579.1957880655924,102.97202555338542,505.0699157714844,86.01398468017578" fill="hsl(340, 45%, 50%)" transform="matrix(1,0,0,1,12.59958267211914,-13.137733459472656)"></path></svg>