<svg xmlns="http://www.w3.org/2000/svg" version="1.1" xmlns:xlink="http://www.w3.org/1999/xlink" xmlns:svgjs="http://svgjs.dev/svgjs" viewBox="0 0 600 600"><path d="M78.1468505859375,221.32867431640625C56.468528747558594,202.09790420532227,2.2727254231770786,127.79720052083333,77.097900390625,106.99300384521484C151.92307535807294,86.18880716959636,451.7482503255208,77.27272415161133,527.097900390625,96.50349426269531C602.4475504557291,115.7342643737793,558.2167816162109,201.3986028035482,529.19580078125,222.37762451171875C500.17481994628906,243.3566462198893,372.2027842203776,195.80419921875,352.9720153808594,222.37762451171875C333.7412465413411,248.9510498046875,383.5664316813151,340.3846079508464,413.8111877441406,381.81817626953125C444.0559438069661,423.2517445882161,530.0699208577474,443.53148396809894,534.4405517578125,470.9790344238281C538.8111826578776,498.4265848795573,471.8531545003255,548.0769093831381,440.03497314453125,546.5034790039062C408.216791788737,544.9300486246744,369.2307637532552,492.1328531901042,343.5314636230469,461.5384521484375C317.83216349283856,430.9440511067708,302.97203826904297,363.28672281901044,285.83917236328125,362.93707275390625C268.70630645751953,362.58742268880206,258.39161173502606,429.5454508463542,240.73426818847656,459.4405517578125C223.0769246419271,489.3356526692708,209.26574071248373,547.0279591878256,179.89511108398438,542.3076782226562C150.52448145548502,537.5873972574869,71.50349934895833,462.9370473225911,64.51049041748047,431.1188659667969C57.5174814860026,399.3006846110026,114.16083399454753,386.1887969970703,137.9370574951172,351.3985900878906C161.71328099568686,316.60838317871094,217.13286590576172,244.05594380696616,207.16783142089844,222.37762451171875C197.20279693603516,200.69930521647134,99.8251724243164,240.55944442749023,78.1468505859375,221.32867431640625C56.468528747558594,202.09790420532227,2.2727254231770786,127.79720052083333,77.097900390625,106.99300384521484" fill="hsl(230, 55%, 50%)"></path></svg>