<svg xmlns="http://www.w3.org/2000/svg" version="1.1" xmlns:xlink="http://www.w3.org/1999/xlink" xmlns:svgjs="http://svgjs.dev/svgjs" viewBox="0 0 600 600"><path d="M533.3916015625,152.097900390625C585.1398518880209,132.16783014933267,613.636355082194,62.06293741861979,534.4405517578125,46.153846740722656C455.24474843343097,30.244756062825523,136.01398340861004,-27.09789911905925,58.21678161621094,56.64335632324219C-19.580420176188156,140.38461176554364,36.18880971272786,466.08390045166016,67.65734100341797,548.6013793945312C99.12587229410808,631.1188583374023,217.30768966674805,575.6992746988932,247.02796936035156,551.7482299804688C276.7482490539551,527.7971852620443,202.27272288004556,431.4685363769531,245.97901916503906,404.8951110839844C289.68531545003253,378.3216857910156,465.7342758178711,418.3566309611003,509.2657470703125,392.30767822265625C552.7972183227539,366.2587254842122,553.1468709309896,273.25174204508465,507.1678466796875,248.6013946533203C461.18882242838544,223.951047261556,280.5944010416667,258.21678161621094,233.3916015625,244.4055938720703C186.18880208333334,230.5944061279297,173.9510498046875,181.11888376871744,223.9510498046875,165.73426818847656C273.9510498046875,150.3496526082357,481.6433512369792,172.02797063191733,533.3916015625,152.097900390625C585.1398518880209,132.16783014933267,613.636355082194,62.06293741861979,534.4405517578125,46.153846740722656" fill="hsl(285, 67%, 30%)" transform="matrix(1,0,0,1,-1.1742897033691406,-2.2265472412109375)"></path></svg>