<svg xmlns="http://www.w3.org/2000/svg" version="1.1" xmlns:xlink="http://www.w3.org/1999/xlink" xmlns:svgjs="http://svgjs.dev/svgjs" viewBox="0 0 600 600"><path d="M500.8741149902344,144.7552490234375C559.9650268554688,129.02098337809244,579.0209922790527,85.3146858215332,507.1678466796875,74.47552490234375C435.31470108032227,63.6363639831543,142.6573422749837,6.99300893147786,69.75524139404297,79.72028350830078C-3.1468594868977817,152.44755808512372,-5.244759877522782,437.0629488627116,69.75524139404297,510.83917236328125C144.7552426656087,584.615395863851,444.75524775187176,537.2377675374349,519.7552490234375,522.3776245117188C594.7552502950033,507.5174814860026,577.9720331827799,437.41258239746094,519.7552490234375,421.6783142089844C461.53846486409503,405.9440460205078,229.89510345458984,440.0349527994792,170.4545440673828,427.9720153808594C111.01398468017578,415.90907796223956,106.81818389892578,363.11187744140625,163.1118927001953,349.3006896972656C219.40560150146484,335.489501953125,450.17483774820965,363.1118799845378,508.216796875,345.1048889160156C566.2587560017904,327.09789784749347,570.2797342936198,258.04195912679035,511.3636474609375,241.2587432861328C452.4475606282552,224.47552744547525,214.51048787434897,256.4685312906901,154.72027587890625,244.4055938720703C94.93006388346353,232.34265645345053,94.93006896972656,185.48950958251953,152.62237548828125,168.88111877441406C210.31468200683594,152.2727279663086,441.783203125,160.48951466878256,500.8741149902344,144.7552490234375C559.9650268554688,129.02098337809244,579.0209922790527,85.3146858215332,507.1678466796875,74.47552490234375" fill="hsl(180, 69%, 40%)" transform="matrix(1,0,0,1,7.901325225830078,2.8402938842773438)"></path></svg>