<svg width="481" height="684" viewBox="0 0 481 684" fill="none" xmlns="http://www.w3.org/2000/svg">
<path d="M132.925 613.43C125.925 604.164 116.605 598.684 105.792 596.19C96.6853 594.084 80.1786 597.364 75.8719 595.804L60.912 602.537C48.3787 608.564 37.2719 622.057 27.4053 631.297C34.2853 632.95 40.9653 633.057 46.7386 637.35C50.4986 640.15 52.7788 647.99 56.6988 650.057C60.3121 651.964 70.3653 649.324 75.8587 651.164C83.4853 653.697 87.2719 657.404 92.2852 663.23C105.352 656.27 117.045 662.71 127.819 670.097C135.085 653.79 145.059 629.497 132.925 613.43Z" fill="#9E7561"/>
<path d="M369.178 627.497C375.392 617.684 384.231 611.457 394.805 608.084C403.698 605.23 420.418 607.137 424.578 605.23L440.045 610.71C453.045 615.684 465.218 628.217 475.818 636.617C469.098 638.817 462.445 639.47 457.045 644.244C453.525 647.337 451.898 655.337 448.165 657.724C444.725 659.91 434.471 658.11 429.151 660.39C421.765 663.55 418.298 667.55 413.778 673.777C400.192 667.91 389.058 675.297 378.938 683.537C370.351 667.897 358.405 644.51 369.178 627.497" fill="#9E7561"/>
<path d="M44.0586 612.444C81.592 655.084 436.432 651.67 451.779 619.257C467.139 586.844 572.912 -1.70298 245.365 0.00368422C-89.3546 1.75035 1.53864 564.11 44.0586 612.444Z" fill="#494840"/>
<path d="M90.0856 299.59C90.0856 299.59 50.8856 238.83 71.3523 143.297C84.9656 79.7768 131.059 59.7102 180.539 63.1235C226.526 66.2969 255.606 117.71 255.606 117.71C255.606 117.71 284.606 64.8302 322.126 63.1235C383.912 60.3102 415.126 102.603 429.019 159.697C449.486 243.87 400.579 305.284 400.579 305.284C400.579 305.284 414.259 324.137 424.486 394.07C434.726 464.017 411.952 633.977 411.952 633.977C411.952 633.977 397.166 652.177 265.833 653.377C189.073 654.083 88.419 631.203 88.419 631.203C88.419 631.203 61.6458 481.577 66.2458 417.963C72.2858 334.31 90.0856 299.59 90.0856 299.59" fill="#FFE0A9"/>
<path d="M358.285 86.3101C362.872 87.8835 382.685 95.1502 378.779 102.457C377.579 104.163 375.672 104.35 360.459 96.5101C348.859 90.5235 353.525 84.6835 358.285 86.3101Z" fill="#4C372F"/>
<path d="M146.192 80.8836C141.445 81.8702 120.872 86.6302 123.845 94.3635C124.832 96.2168 126.685 96.6302 142.765 90.7369C155.019 86.2435 151.112 79.8569 146.192 80.8836" fill="#4C372F"/>
<path d="M394.818 138.67C393.858 137.377 392.019 137.097 390.712 138.07L375.165 149.603C374.165 147.977 372.899 146.39 371.325 144.95L380.765 131.537C381.699 130.217 381.379 128.377 380.045 127.443C378.725 126.51 376.885 126.83 375.952 128.163L366.512 141.577C363.432 139.99 359.645 138.897 354.992 138.67C329.312 137.39 324.419 157.79 324.365 157.99C324.005 159.577 325.005 161.15 326.592 161.51C328.165 161.87 329.739 160.87 330.099 159.283C330.112 159.257 331.045 155.377 334.418 151.643C339.058 146.483 345.885 144.097 354.699 144.537C359.019 144.75 362.272 145.843 364.752 147.337C364.952 147.63 365.192 147.897 365.499 148.11C365.819 148.337 366.152 148.483 366.512 148.563C371.859 152.857 372.458 159.057 372.485 159.443C372.592 160.99 373.885 162.163 375.418 162.163C375.485 162.163 375.552 162.163 375.632 162.163C377.245 162.043 378.472 160.643 378.352 159.017C378.272 157.87 378.032 156.523 377.605 155.097L394.205 142.79C395.512 141.817 395.792 139.977 394.818 138.67" fill="#4C372F"/>
<path d="M108.152 141.764C108.952 140.35 110.738 139.857 112.152 140.657L129.005 150.204C129.792 148.47 130.858 146.737 132.232 145.11L121.232 132.964C120.138 131.75 120.232 129.897 121.432 128.804C122.632 127.724 124.498 127.804 125.578 129.017L136.605 141.177C139.472 139.217 143.085 137.67 147.672 136.87C173.005 132.444 180.365 152.097 180.445 152.297C180.992 153.817 180.205 155.51 178.672 156.057C177.152 156.604 175.458 155.804 174.912 154.284C174.898 154.244 173.485 150.524 169.698 147.23C164.458 142.67 157.378 141.137 148.685 142.657C144.432 143.404 141.325 144.884 139.058 146.67C138.898 146.99 138.685 147.284 138.405 147.537C138.125 147.79 137.805 147.977 137.458 148.11C132.685 153.017 132.845 159.257 132.858 159.63C132.938 161.177 131.805 162.51 130.285 162.697C130.218 162.71 130.152 162.71 130.085 162.724C128.458 162.804 127.072 161.55 126.992 159.937C126.938 158.777 127.005 157.43 127.245 155.95L109.258 145.764C107.845 144.964 107.352 143.177 108.152 141.764" fill="#4C372F"/>
<path d="M262.952 179.03C291.925 177.51 307.312 194.39 306.778 199.603C305.725 209.777 283.432 270.59 264.658 268.883C245.898 267.177 212.352 211.577 212.352 199.51C212.352 190.403 230.538 180.737 262.952 179.03Z" fill="#9E7561"/>
<path d="M138.459 201.31C138.459 213.87 128.272 224.043 115.712 224.043C103.152 224.043 92.9653 213.87 92.9653 201.31C92.9653 188.737 103.152 178.563 115.712 178.563C128.272 178.563 138.459 188.737 138.459 201.31Z" fill="#FFADA9"/>
<path d="M413.112 201.31C413.112 213.87 402.925 224.043 390.365 224.043C377.805 224.043 367.618 213.87 367.618 201.31C367.618 188.737 377.805 178.563 390.365 178.563C402.925 178.563 413.112 188.737 413.112 201.31Z" fill="#FFADA9"/>
<path d="M257.846 471.91C261.512 471.91 261.512 466.217 257.846 466.217C254.179 466.217 254.179 471.91 257.846 471.91Z" fill="#C46B1A"/>
<path d="M327.792 316.084C324.285 298.31 297.698 282.697 280.592 282.537C259.992 282.337 241.152 287.364 225.858 302.297C214.632 313.257 210.192 339.964 223.152 351.35L307.885 361.577C308.618 361.577 307.499 362.004 308.565 361.75C327.405 357.217 330.712 330.964 327.792 316.084" fill="#B883C4"/>
<path d="M218.605 345.657C218.605 345.657 249.312 496.364 267.512 495.217C285.699 494.084 325.512 345.084 325.512 345.084C325.512 345.084 313.005 355.324 268.072 354.764C233.352 354.324 218.605 345.657 218.605 345.657Z" fill="#D38A2A"/>
<path d="M230.646 360.057C233.792 371.644 245.979 379.99 254.152 388.044C263.859 397.617 274.606 407.71 287.792 412.097C291.286 413.244 292.766 407.764 289.299 406.604C277.059 402.55 267.206 392.844 258.179 384.017C250.859 376.884 238.912 368.764 236.126 358.55C235.166 355.017 229.686 356.524 230.646 360.057" fill="#C46B1A"/>
<path d="M274.592 360.75C282.872 370.15 293.138 378.244 303.605 385.084C306.685 387.097 309.525 382.163 306.472 380.163C296.405 373.577 286.592 365.777 278.618 356.723C276.192 353.963 272.178 358.004 274.592 360.75" fill="#C46B1A"/>
<path d="M243.445 426.71C251.112 439.79 264.712 449.777 276.872 458.444C279.205 460.097 282.312 456.857 280.765 454.55C280.392 453.977 280.005 453.404 279.632 452.844C277.605 449.804 272.685 452.644 274.725 455.71C275.099 456.284 275.472 456.844 275.859 457.417C277.152 456.124 278.445 454.817 279.752 453.524C268.432 445.484 255.499 436.004 248.352 423.844C246.499 420.684 241.579 423.537 243.445 426.71" fill="#C46B1A"/>
<path d="M234.258 393.737C244.578 384.19 256.725 375.737 262.285 362.337C263.698 358.95 258.192 357.483 256.805 360.83C251.738 373.03 239.632 381.03 230.245 389.71C227.538 392.203 231.565 396.217 234.258 393.737" fill="#C46B1A"/>
<path d="M245.632 435.243C257.485 422.617 267.312 408.377 278.045 394.83C287.579 382.763 297.965 371.323 304.645 357.323C306.219 354.043 301.325 351.15 299.738 354.457C293.005 368.563 282.485 380.097 272.872 392.243C262.538 405.323 253.045 419.03 241.618 431.23C239.112 433.897 243.125 437.923 245.632 435.243" fill="#C46B1A"/>
<path d="M259.846 471.07C273.299 456.617 288.672 444.084 300.099 427.844C302.219 424.844 297.285 422.004 295.192 424.977C284.059 440.79 268.926 452.977 255.832 467.057C253.339 469.737 257.352 473.764 259.846 471.07Z" fill="#C46B1A"/>
<path d="M400.579 305.284C397.765 308.27 381.405 370.204 343.059 386.084C304.699 401.964 260.619 398.15 256.539 410.764C249.045 433.897 318.005 455.844 364.739 454.617C427.405 452.964 455.432 427.79 455.432 427.79L446.072 337.124L400.579 305.284" fill="#494840"/>
<path d="M90.0855 299.59C93.3655 302.044 116.992 354.617 157.526 363.617C198.046 372.604 240.792 361.217 247.006 372.937C258.392 394.417 194.286 427.977 148.032 434.87C86.0324 444.097 54.0723 424.164 54.0723 424.164L57.0991 341.67L90.0855 299.59" fill="#494840"/>
<path d="M329.938 309.83C327.258 301.79 318.898 293.83 312.272 288.937C296.978 277.63 274.539 276.883 256.699 280.71C241.899 283.883 226.099 293.377 218.032 305.283C215.752 308.777 206.819 324.31 215.165 326.937C222.992 329.39 227.765 309.697 239.045 312.697C250.952 315.843 246.032 329.31 254.392 334.99C260.659 339.243 267.765 333.99 270.205 328.003C272.245 323.017 271.285 318.323 270.779 313.243C269.965 305.137 272.539 292.457 283.312 300.87C286.499 303.363 285.592 307.777 287.845 309.977C292.579 314.59 293.165 308.097 295.365 305.283C300.085 299.257 308.112 307.057 311.725 312.697C313.099 314.843 314.858 319.937 316.818 321.337C321.952 324.99 319.952 318.457 322.085 315.443C324.165 316.857 325.459 325.683 329.379 323.963C332.205 322.71 330.645 311.977 329.938 309.83" fill="#FFADA9"/>
<path d="M14.4455 284.804C14.3655 292.217 13.3254 299.484 12.2721 306.804C11.7521 310.39 17.232 311.937 17.752 308.31C18.8853 300.497 20.0587 292.724 20.1387 284.804C20.1654 281.137 14.4855 281.15 14.4455 284.804Z" fill="#605E55"/>
<path d="M39.4716 266.617C39.4582 273.203 39.4317 279.803 38.4317 286.323C37.8717 289.91 43.3517 291.457 43.9117 287.843C45.005 280.79 45.1515 273.737 45.1515 266.617C45.1515 262.95 39.4716 262.95 39.4716 266.617Z" fill="#605E55"/>
<path d="M45.1519 321.204C45.1519 330.324 45.2452 339.43 46.2852 348.497C46.7119 352.097 52.4053 352.137 51.9787 348.497C50.9253 339.43 50.8453 330.324 50.8453 321.204C50.8453 317.537 45.1519 317.537 45.1519 321.204Z" fill="#605E55"/>
<path d="M26.9521 349.644C26.9521 356.004 27.2056 362.284 28.1923 368.59C28.7656 372.204 34.2455 370.67 33.6855 367.084C32.7655 361.297 32.6456 355.484 32.6456 349.644C32.6456 345.977 26.9521 345.977 26.9521 349.644Z" fill="#605E55"/>
<path d="M17.8584 419.017C19.0851 428.163 21.1783 437.163 22.405 446.31C22.885 449.897 28.5785 449.937 28.0985 446.31C26.8718 437.163 24.765 428.163 23.5383 419.017C23.0583 415.443 17.3651 415.39 17.8584 419.017Z" fill="#605E55"/>
<path d="M50.9388 428.497C48.8321 437.07 50.6856 445.603 50.8456 454.27C50.9122 457.937 56.5922 457.95 56.5255 454.27C56.3788 446.19 54.4589 438.003 56.4323 430.003C57.2989 426.443 51.8188 424.937 50.9388 428.497" fill="#605E55"/>
<path d="M41.8451 491.43C45.0584 500.39 46.3651 509.67 47.4318 519.11C47.8318 522.71 53.5251 522.75 53.1117 519.11C52.0051 509.19 50.7117 499.35 47.325 489.91C46.0983 486.484 40.6051 487.964 41.8451 491.43Z" fill="#605E55"/>
<path d="M23.6456 500.524C25.819 508.137 27.9922 515.75 30.4722 523.27C31.6189 526.737 37.0988 525.257 35.9521 521.764C33.4721 514.244 31.3122 506.63 29.1256 499.017C28.1256 495.497 22.6323 496.99 23.6456 500.524Z" fill="#605E55"/>
<path d="M41.8452 563.084C43.2985 571.684 47.6186 579.31 52.3652 586.51C54.3786 589.55 59.2984 586.71 57.2717 583.63C52.7784 576.817 48.7118 569.724 47.3251 561.564C46.7118 557.964 41.2318 559.497 41.8452 563.084" fill="#605E55"/>
<path d="M64.4852 564.604C64.6852 573.177 68.5252 579.924 74.4185 585.95C76.9919 588.564 81.0054 584.55 78.4454 581.924C73.6054 576.977 70.3387 571.67 70.1787 564.604C70.0987 560.937 64.4052 560.924 64.4852 564.604Z" fill="#605E55"/>
<path d="M417.459 304.444C421.606 312.15 422.685 320.51 422.752 329.164C422.792 332.83 428.472 332.83 428.446 329.164C428.366 319.497 426.992 310.177 422.366 301.577C420.632 298.337 415.726 301.217 417.459 304.444" fill="#605E55"/>
<path d="M448.912 292.777C449.072 303.11 451.112 313.23 452.325 323.483C452.752 327.07 458.445 327.11 458.019 323.483C456.805 313.243 454.765 303.11 454.605 292.777C454.552 289.11 448.859 289.097 448.912 292.777Z" fill="#605E55"/>
<path d="M437.538 341.67C438.645 349.99 438.845 358.377 439.818 366.697C440.245 370.297 445.925 370.337 445.499 366.697C444.525 358.377 444.339 349.99 443.232 341.67C442.752 338.097 437.058 338.057 437.538 341.67" fill="#605E55"/>
<path d="M442.192 394.75C443.272 400.51 443.232 406.364 443.232 412.19C443.232 415.857 448.912 415.857 448.912 412.19C448.912 405.83 448.845 399.51 447.672 393.244C447.005 389.644 441.525 391.164 442.192 394.75" fill="#605E55"/>
<path d="M464.845 379.217C464.832 386.164 464.859 393.164 463.805 400.057C463.259 403.657 468.739 405.19 469.285 401.577C470.419 394.164 470.525 386.697 470.525 379.217C470.525 375.537 464.845 375.537 464.845 379.217Z" fill="#605E55"/>
<path d="M461.432 446.31C460.205 456.59 458.099 466.737 456.872 477.017C456.445 480.657 462.139 480.617 462.565 477.017C463.779 466.737 465.899 456.59 467.112 446.31C467.539 442.67 461.859 442.724 461.432 446.31Z" fill="#605E55"/>
<path d="M441.059 471.724C439.045 480.724 439.645 490.017 437.645 499.017C436.845 502.59 442.325 504.11 443.125 500.524C445.139 491.524 444.539 482.23 446.539 473.23C447.339 469.657 441.859 468.137 441.059 471.724Z" fill="#605E55"/>
<path d="M437.539 533.897C437.472 541.11 436.485 548.283 436.405 555.497C436.365 559.163 442.046 559.163 442.099 555.497C442.179 548.283 443.152 541.11 443.232 533.897C443.259 530.217 437.579 530.23 437.539 533.897Z" fill="#605E55"/>
<path d="M451.192 546.404C451.259 554.644 452.099 562.817 449.019 570.67C447.685 574.084 453.179 575.55 454.499 572.177C457.765 563.857 456.939 555.15 456.872 546.404C456.845 542.737 451.165 542.737 451.192 546.404Z" fill="#605E55"/>
<path d="M442.099 590.764C442.099 596.07 442.099 601.377 442.099 606.684C442.099 610.35 447.779 610.35 447.779 606.684C447.779 601.377 447.779 596.07 447.779 590.764C447.779 587.097 442.099 587.097 442.099 590.764Z" fill="#605E55"/>
<path d="M447.779 222.257C447.846 233.257 448.846 244.23 448.912 255.243C448.939 258.91 454.619 258.91 454.605 255.243C454.539 244.23 453.539 233.257 453.459 222.257C453.446 218.59 447.752 218.59 447.779 222.257" fill="#605E55"/>
<path d="M436.512 165.004C437.685 170.484 439.992 175.484 442.485 180.47C444.125 183.75 449.019 180.87 447.392 177.604C445.112 173.03 443.072 168.51 441.992 163.497C441.219 159.91 435.739 161.43 436.512 165.004Z" fill="#605E55"/>
<path d="M27.9923 220.737C30.499 209.897 30.4989 198.67 32.539 187.75C33.219 184.163 27.739 182.643 27.059 186.243C25.0057 197.15 25.0057 208.403 22.5124 219.23C21.6857 222.79 27.1657 224.31 27.9923 220.737Z" fill="#605E55"/>
<path d="M49.6056 214.67C47.7522 205.43 51.6857 196.244 51.979 187.004C52.099 183.324 46.4055 183.337 46.2855 187.004C45.9788 196.91 42.1257 206.217 44.1123 216.19C44.8323 219.777 50.3122 218.257 49.6056 214.67Z" fill="#605E55"/>
<path d="M49.1387 150.03C52.8053 150.03 52.8053 144.35 49.1387 144.35C45.472 144.35 45.472 150.03 49.1387 150.03Z" fill="#605E55"/>
<path d="M51.592 147.484C54.0187 143.79 55.9919 139.817 58.4186 136.11C60.4319 133.03 55.4988 130.19 53.4988 133.244C51.0854 136.95 49.0986 140.91 46.6852 144.617C44.6586 147.697 49.592 150.537 51.592 147.484Z" fill="#605E55"/>
<path d="M110.739 66.7367C113.899 62.63 118.112 59.47 122.219 56.3767C125.125 54.2033 122.285 49.27 119.352 51.47C114.392 55.19 109.632 58.9233 105.819 63.87C103.579 66.7633 108.525 69.59 110.739 66.7367Z" fill="#605E55"/>
<path d="M146.685 45.6968C147.059 45.3235 147.445 44.9368 147.819 44.5635C148.912 43.4702 148.912 41.6436 147.819 40.5369C146.725 39.4436 144.899 39.4436 143.805 40.5369C143.419 40.9236 143.046 41.2969 142.659 41.6836C141.566 42.7769 141.566 44.6035 142.659 45.6968C143.752 46.7902 145.592 46.7902 146.685 45.6968" fill="#605E55"/>
<path d="M154.525 44.1635C157.272 43.2968 160.005 43.1235 162.872 43.1235C166.539 43.1235 166.539 37.4302 162.872 37.4302C159.539 37.4435 156.219 37.6702 153.019 38.6702C149.525 39.7635 151.019 45.2568 154.525 44.1635" fill="#605E55"/>
<path d="M188.272 54.3902C195.165 55.6169 201.859 57.7102 208.752 58.9369C212.325 59.5769 213.859 54.0969 210.259 53.4569C203.365 52.2302 196.672 50.1369 189.792 48.9102C186.205 48.2702 184.672 53.7502 188.272 54.3902" fill="#605E55"/>
<path d="M199.272 21.51C202.938 21.51 202.938 15.83 199.272 15.83C195.592 15.83 195.592 21.51 199.272 21.51Z" fill="#605E55"/>
<path d="M198.512 21.4035C207.592 23.8435 215.925 28.2701 224.672 31.6435C228.099 32.9635 229.566 27.4701 226.179 26.1635C217.432 22.7901 209.112 18.3635 200.019 15.9235C196.472 14.9768 194.979 20.4568 198.512 21.4035Z" fill="#605E55"/>
<path d="M224.552 47.9768C228.192 51.5501 232.272 54.6702 236.499 57.5235C239.552 59.5768 242.392 54.6435 239.366 52.6035C235.539 50.0302 231.872 47.2035 228.579 43.9502C225.952 41.3768 221.939 45.4035 224.552 47.9768" fill="#605E55"/>
<path d="M245.712 81.5235C247.925 85.7769 251.525 90.4568 255.832 92.7768C259.059 94.5235 261.939 89.6035 258.712 87.8702C255.205 85.9769 252.419 82.0969 250.632 78.6569C248.939 75.3902 244.032 78.2702 245.712 81.5235" fill="#605E55"/>
<path d="M266.552 71.2835C271.099 64.4701 275.685 57.7101 280.885 51.3901C283.205 48.5768 279.205 44.5367 276.872 47.3634C271.352 54.0701 266.459 61.2035 261.646 68.4168C259.592 71.4701 264.525 74.3235 266.552 71.2835Z" fill="#605E55"/>
<path d="M262.285 45.5767C264.472 40.3767 268.779 36.5367 273.485 33.63C276.605 31.7233 273.752 26.8034 270.619 28.7234C264.512 32.4834 259.605 37.4034 256.805 44.07C255.379 47.4434 260.885 48.91 262.285 45.5767Z" fill="#605E55"/>
<path d="M249.312 15.8301C259.539 15.8301 269.779 15.8301 280.019 15.8301C283.685 15.8301 283.685 10.1368 280.019 10.1368C269.779 10.1368 259.539 10.1368 249.312 10.1368C245.645 10.1368 245.645 15.8301 249.312 15.8301Z" fill="#605E55"/>
<path d="M298.219 34.0168C301.885 34.0168 301.885 28.3368 298.219 28.3368C294.552 28.3368 294.552 34.0168 298.219 34.0168Z" fill="#605E55"/>
<path d="M298.979 33.9235C306.352 31.8702 314.299 35.2836 321.339 37.3369C324.872 38.3636 326.365 32.8702 322.859 31.8435C314.712 29.4835 305.992 26.0702 297.459 28.4435C293.925 29.4169 295.432 34.8969 298.979 33.9235" fill="#605E55"/>
<path d="M308.072 54.3903C314.605 53.3903 321.192 53.3636 327.792 53.3636C331.459 53.3503 331.459 47.6703 327.792 47.6703C320.659 47.6703 313.605 47.817 306.552 48.9103C302.939 49.4703 304.485 54.9503 308.072 54.3903" fill="#605E55"/>
<path d="M345.805 36.0302C352.539 46.0835 363.859 50.7635 374.125 56.3769C377.339 58.1502 380.205 53.2302 376.992 51.4702C367.765 46.4169 356.792 42.2302 350.712 33.1502C348.685 30.1236 343.752 32.9635 345.805 36.0302" fill="#605E55"/>
<path d="M145.805 45.3901C153.232 44.8701 160.965 42.5234 168.179 40.7501C171.739 39.8701 170.219 34.3901 166.659 35.2568C160.059 36.8834 152.165 39.2567 145.805 39.7101C142.179 39.9634 142.152 45.6568 145.805 45.3901" fill="#605E55"/>
<path d="M154.912 27.2035C161.739 27.0168 168.312 24.8701 175.005 23.6835C178.605 23.0435 177.072 17.5635 173.485 18.2035C167.312 19.2968 161.205 21.3368 154.912 21.5101C151.245 21.6168 151.245 27.2968 154.912 27.2035Z" fill="#605E55"/>
<path d="M77.2719 319.11C84.5919 324.177 90.4054 331.124 97.1654 336.87C99.9388 339.217 103.992 335.217 101.192 332.844C94.0453 326.777 87.8853 319.55 80.1386 314.204C77.1119 312.11 74.2719 317.044 77.2719 319.11Z" fill="#605E55"/>
<path d="M77.9518 364.897C84.5385 367.657 90.5252 371.604 97.2852 373.99C100.752 375.217 102.232 369.724 98.7919 368.51C92.0586 366.124 86.0453 362.164 79.4586 359.404C76.0853 357.99 74.6185 363.497 77.9518 364.897" fill="#605E55"/>
<path d="M72.2589 406.977C80.6989 409.204 89.4323 409.35 98.0457 410.484C101.672 410.964 101.619 405.27 98.0457 404.804C89.939 403.724 81.7257 403.59 73.779 401.497C70.2323 400.55 68.7256 406.03 72.2589 406.977Z" fill="#605E55"/>
<path d="M123.059 415.03C132.152 415.03 141.085 414.75 149.979 412.657C153.552 411.817 152.032 406.337 148.472 407.177C140.072 409.15 131.645 409.35 123.059 409.35C119.392 409.35 119.392 415.044 123.059 415.03" fill="#605E55"/>
<path d="M127.232 393.324C133.205 392.07 139.752 393.364 145.805 393.43C149.485 393.457 149.472 387.777 145.805 387.737C139.165 387.67 132.285 386.457 125.725 387.844C122.125 388.59 123.659 394.084 127.232 393.324" fill="#605E55"/>
<path d="M132.432 372.124C138.112 377.43 145.805 379.564 153.019 381.95C156.512 383.11 157.992 377.617 154.525 376.47C148.312 374.404 141.352 372.683 136.445 368.097C133.765 365.603 129.739 369.617 132.432 372.124" fill="#605E55"/>
<path d="M175.379 410.484C179.046 410.484 179.046 404.804 175.379 404.804C171.712 404.804 171.712 410.484 175.379 410.484Z" fill="#605E55"/>
<path d="M176.138 410.39C186.005 408.03 195.139 403.764 204.565 400.15C207.965 398.857 206.485 393.35 203.059 394.67C193.619 398.284 184.485 402.55 174.632 404.897C171.059 405.75 172.578 411.23 176.138 410.39" fill="#605E55"/>
<path d="M192.445 386.604C197.405 386.67 202.272 387.657 207.232 387.737C210.899 387.804 210.885 382.11 207.232 382.057C202.272 381.977 197.405 380.977 192.445 380.91C188.779 380.87 188.779 386.55 192.445 386.604" fill="#605E55"/>
<path d="M226.859 388.483C230.219 386.363 233.979 385.523 237.939 385.47C241.605 385.403 241.605 379.723 237.939 379.777C233.032 379.857 228.179 380.937 223.992 383.577C220.899 385.537 223.752 390.457 226.859 388.483Z" fill="#605E55"/>
<path d="M285.699 417.31C289.365 417.31 289.365 411.63 285.699 411.63C282.032 411.63 282.032 417.31 285.699 417.31Z" fill="#605E55"/>
<path d="M285.699 417.31C294.592 416.43 302.925 418.377 311.112 421.764C314.498 423.164 315.965 417.657 312.618 416.27C304.005 412.71 295.059 410.697 285.699 411.63C282.085 411.977 282.059 417.67 285.699 417.31" fill="#605E55"/>
<path d="M313.005 440.057C326.525 440.337 340.098 445.497 353.112 439.67C356.445 438.177 353.552 433.27 350.232 434.763C338.618 439.963 325.112 434.617 313.005 434.377C309.325 434.297 309.338 439.99 313.005 440.057" fill="#605E55"/>
<path d="M333.472 412.763C342.565 412.763 351.498 412.47 360.392 410.39C363.965 409.55 362.445 404.07 358.872 404.897C350.472 406.87 342.058 407.07 333.472 407.07C329.805 407.083 329.805 412.763 333.472 412.763Z" fill="#605E55"/>
<path d="M381.245 427.55C384.912 427.55 384.912 421.857 381.245 421.857C377.578 421.857 377.578 427.55 381.245 427.55Z" fill="#605E55"/>
<path d="M381.991 427.444C391.298 424.11 401.005 422.31 409.978 418.057C413.285 416.484 410.405 411.59 407.098 413.15C398.605 417.177 389.311 418.804 380.485 421.964C377.058 423.19 378.538 428.684 381.991 427.444" fill="#605E55"/>
<path d="M383.818 390.764C389.898 387.11 395.872 383.35 401.445 378.95C404.325 376.67 400.272 372.684 397.432 374.924C392.245 379.017 386.605 382.457 380.939 385.857C377.805 387.737 380.658 392.657 383.818 390.764Z" fill="#605E55"/>
<path d="M396.032 355.897C399.699 355.897 399.699 350.203 396.032 350.203C392.366 350.203 392.366 355.897 396.032 355.897Z" fill="#605E55"/>
<path d="M398.485 354.484C401.899 346.897 407.485 340.83 412.139 334.017C414.205 330.977 409.272 328.137 407.219 331.137C402.579 337.95 396.992 344.03 393.579 351.617C392.086 354.937 396.979 357.83 398.485 354.484Z" fill="#605E55"/>
<path d="M410.552 390.323C414.312 386.67 418.978 384.017 423.618 381.67C426.898 380.003 424.018 375.097 420.752 376.75C415.672 379.324 410.645 382.323 406.525 386.297C403.885 388.857 407.912 392.87 410.552 390.323" fill="#605E55"/>
<path d="M413.846 438.817C419.432 436.59 425.006 434.39 430.899 433.137C434.486 432.363 432.966 426.883 429.392 427.643C423.499 428.91 417.912 431.11 412.339 433.337C408.966 434.683 410.432 440.177 413.846 438.817Z" fill="#605E55"/>
<path d="M264.752 288.323C263.032 286.337 260.325 287.137 258.405 285.563L258.792 285.19C251.925 284.457 242.765 288.883 237.552 293.137C233.979 296.07 222.819 308.95 233.752 305.657C237.339 304.577 239.619 304.75 243.245 304.523C246.645 304.31 249.112 302.43 251.966 300.737C255.392 298.697 269.365 293.657 264.752 288.323" fill="#FFC6BD"/>
</svg>
