<?xml version="1.0" encoding="UTF-8"?><svg id="_레이어_1" xmlns="http://www.w3.org/2000/svg" viewBox="0 0 800 800"><defs><style>.cls-1{fill:#7b4799;stroke-width:0px;}</style></defs><path class="cls-1" d="m400,5C227.11,5,80.27,116.12,26.73,270.79c26.32-23.31,61.29-37.48,99.57-37.48h24.88c16.21-63.28,73.21-107.98,140.07-107.98s123.86,44.7,140.07,107.98h24.88c78.72,0,143.55,59.81,147.6,136.16,1.51,28.5-5.23,56.07-19.57,80.35,26.13,39.97,40.15,76.35,49.17,126.69,2.38,13.27-1.21,26.82-9.87,37.16-8.64,10.32-21.3,16.25-34.75,16.25H213.73v-29.99h375.06c6.22,0,10.03-3.44,11.75-5.49,2.94-3.52,4.16-8.12,3.35-12.63-8.94-49.86-22.47-83.28-49.93-123.3l-5.84-8.51,5.86-8.49c14.35-20.79,21.22-45.15,19.88-70.44-3.2-60.43-54.88-107.76-117.65-107.76h-49.78l-2.06-12.56c-9.09-55.29-56.66-95.42-113.11-95.42s-104.02,40.13-113.11,95.42l-2.07,12.56h-49.78c-62.77,0-116.91,47.27-120.12,107.69h0c-.7,9.61-1.18,19.21-1.18,29,0,218.15,176.85,395,395,395s395-176.85,395-395S618.15,5,400,5Z"/></svg>