<?xml version="1.0" encoding="UTF-8" standalone="no"?>
<!-- Created with Inkscape (http://www.inkscape.org/) -->

<svg
   version="1.1"
   id="svg2"
   width="1066.6667"
   height="1066.6667"
   viewBox="0 0 1066.6667 1066.6667"
   sodipodi:docname="main-logo.ai"
   xmlns:inkscape="http://www.inkscape.org/namespaces/inkscape"
   xmlns:sodipodi="http://sodipodi.sourceforge.net/DTD/sodipodi-0.dtd"
   xmlns="http://www.w3.org/2000/svg"
   xmlns:svg="http://www.w3.org/2000/svg">
  <defs
     id="defs6">
    <clipPath
       clipPathUnits="userSpaceOnUse"
       id="clipPath18">
      <path
         d="M 0,800 H 800 V 0 H 0 Z"
         id="path16" />
    </clipPath>
  </defs>
  <sodipodi:namedview
     id="namedview4"
     pagecolor="#ffffff"
     bordercolor="#000000"
     borderopacity="0.25"
     inkscape:showpageshadow="2"
     inkscape:pageopacity="0.0"
     inkscape:pagecheckerboard="0"
     inkscape:deskcolor="#d1d1d1" />
  <g
     id="g8"
     inkscape:groupmode="layer"
     inkscape:label="main-logo"
     transform="matrix(1.3333333,0,0,-1.3333333,0,1066.6667)">
    <path
       d="m 12.951,425.422 h 24.871 v 15.424 H 12.951 Z"
       style="fill:#7b4799;fill-opacity:1;fill-rule:nonzero;stroke:none"
       id="path10" />
    <g
       id="g12">
      <g
         id="g14"
         clip-path="url(#clipPath18)">
        <g
           id="g20"
           transform="translate(250.1129,204.084)">
          <path
             d="m 0,0 c 0,-5.725 -1.458,-9.913 -4.373,-12.562 -2.916,-2.65 -7.075,-3.975 -12.481,-3.975 -5.303,0 -9.33,1.376 -12.085,4.135 -2.758,2.754 -4.134,7.472 -4.134,14.151 V 6.201 L 0,6.201 Z M 0,43.568 V 21.784 H -33.073 V 43.568 H -51.2 V 0.796 c 0,-3.818 0.608,-7.714 1.828,-11.688 1.218,-3.976 3.205,-7.553 5.963,-10.733 2.649,-3.286 6.174,-5.937 10.575,-7.95 4.396,-2.015 9.723,-3.022 15.98,-3.022 6.782,0 12.427,1.114 16.934,3.34 4.504,2.226 8.029,5.034 10.573,8.427 2.649,3.391 4.505,7.021 5.566,10.892 1.059,3.869 1.589,7.394 1.589,10.574 v 42.932 z"
             style="fill:#000000;fill-opacity:1;fill-rule:nonzero;stroke:none"
             id="path22" />
        </g>
        <g
           id="g24"
           transform="translate(279.6882,249.0831)">
          <path
             d="m 0,0 v -79.185 h 17.809 v 32.437 h 19.716 v 15.424 H 17.809 l 0,31.324 z"
             style="fill:#000000;fill-opacity:1;fill-rule:nonzero;stroke:none"
             id="path26" />
        </g>
        <g
           id="g28"
           transform="translate(406.8918,249.0831)">
          <path
             d="m 0,0 v -103.673 l 17.809,-0.159 v 48.497 h 19.716 v 15.424 H 17.809 l 0,39.911 z"
             style="fill:#000000;fill-opacity:1;fill-rule:nonzero;stroke:none"
             id="path30" />
        </g>
        <g
           id="g32"
           transform="translate(342.8118,212.6705)">
          <path
             d="m 0,0 c 0.319,3.498 1.059,6.572 2.227,9.223 1.164,2.647 2.807,4.742 4.928,6.28 2.12,1.536 5.034,2.305 8.745,2.305 3.5,0 6.334,-0.794 8.508,-2.384 2.171,-1.59 3.84,-3.658 5.008,-6.201 1.166,-2.651 1.961,-5.725 2.386,-9.223 0.422,-3.498 0.636,-7.21 0.636,-11.131 0,-8.586 -1.114,-15.558 -3.339,-20.91 -2.227,-5.353 -6.627,-8.029 -13.199,-8.029 -3.179,0 -5.803,0.767 -7.87,2.306 -2.066,1.535 -3.737,3.577 -5.008,6.121 -1.273,2.649 -2.175,5.725 -2.703,9.223 -0.532,3.498 -0.795,7.259 -0.795,11.289 0,3.921 0.158,7.633 0.476,11.131 m 1.273,-52.71 c 4.238,-2.386 9.114,-3.579 14.627,-3.579 10.813,0 19.241,4.108 25.283,12.324 6.043,8.213 9.063,19.159 9.063,32.834 0,5.936 -0.61,11.633 -1.828,17.093 -1.221,5.459 -3.155,10.257 -5.804,14.39 -2.757,4.135 -6.308,7.42 -10.653,9.86 -4.348,2.437 -9.7,3.656 -16.061,3.656 -6.041,0 -11.209,-1.219 -15.502,-3.656 -4.294,-2.44 -7.819,-5.725 -10.575,-9.86 -2.757,-4.133 -4.769,-8.931 -6.042,-14.39 -1.272,-5.46 -1.908,-11.157 -1.908,-17.093 0,-6.149 0.741,-11.953 2.227,-17.411 1.483,-5.461 3.657,-10.256 6.518,-14.391 2.863,-4.133 6.413,-7.393 10.655,-9.777"
             style="fill:#000000;fill-opacity:1;fill-rule:nonzero;stroke:none"
             id="path34" />
        </g>
        <g
           id="g36"
           transform="translate(500.3857,240.1791)">
          <path
             d="M 0,0 V 7.155 H -18.127 V 0.159 c -0.107,-11.448 -2.837,-21.228 -8.189,-29.338 -5.354,-8.109 -13.436,-13.649 -24.248,-16.615 v -16.061 c 8.797,1.484 16.378,4.215 22.738,8.189 6.36,3.976 11.553,8.77 15.583,14.39 0.317,0.423 0.581,0.796 0.795,1.114 1.908,-0.636 3.55,-1.379 4.929,-2.226 2.755,-2.015 4.875,-4.189 6.36,-6.52 -2.758,-1.908 -5.83,-3.445 -9.223,-4.611 v -15.9 c 7.42,1.376 13.966,4.027 19.639,7.95 5.669,3.92 10.466,8.745 14.39,14.47 1.057,1.59 2.066,3.284 3.02,5.088 1.591,-0.636 2.967,-1.327 4.135,-2.068 2.754,-1.907 4.874,-4.029 6.36,-6.359 1.376,-2.44 2.278,-4.877 2.703,-7.315 0.422,-2.44 0.688,-4.507 0.795,-6.202 v -3.339 h 16.536 v 3.658 c -0.105,4.133 -0.69,8.293 -1.749,12.482 -1.061,4.187 -2.81,8.082 -5.247,11.687 -2.439,3.602 -5.672,6.678 -9.699,9.222 -2.332,1.376 -4.93,2.544 -7.791,3.498 1.907,7.101 2.861,14.629 2.861,22.579 V 7.155 H 18.444 v -8.904 c 0,-13.146 -2.332,-23.906 -6.996,-32.279 -1.378,1.694 -2.862,3.232 -4.452,4.612 -2.757,2.33 -5.723,4.133 -8.904,5.406 -0.636,0.21 -1.271,0.476 -1.908,0.795 0.211,0.739 0.477,1.535 0.795,2.385 C -1.113,-14.048 -0.107,-7.103 0,0"
             style="fill:#000000;fill-opacity:1;fill-rule:nonzero;stroke:none"
             id="path38" />
        </g>
        <path
           d="m 453.796,145.251 h 108.603 v 15.265 H 453.796 Z"
           style="fill:#000000;fill-opacity:1;fill-rule:nonzero;stroke:none"
           id="path40" />
        <path
           d="m 661.301,145.251 h 17.808 v 103.991 h -17.808 z"
           style="fill:#000000;fill-opacity:1;fill-rule:nonzero;stroke:none"
           id="path42" />
        <g
           id="g44"
           transform="translate(617.4949,197.4854)">
          <path
             d="m 0,0 c -2.6,-5.247 -6.018,-9.62 -10.257,-13.119 -4.24,-3.393 -9.143,-5.989 -14.707,-7.791 -5.566,-1.803 -11.265,-2.969 -17.093,-3.498 v -16.059 c 10.494,0.954 19.716,3.125 27.667,6.519 7.95,3.391 14.573,7.791 19.876,13.197 5.299,5.3 9.326,11.528 12.083,18.683 2.756,7.156 4.135,14.972 4.135,23.454 V 44.283 H -38.878 V 28.382 H 3.896 V 19.16 C 3.896,11.632 2.596,5.247 0,0"
             style="fill:#000000;fill-opacity:1;fill-rule:nonzero;stroke:none"
             id="path46" />
        </g>
        <g
           id="g48"
           transform="translate(285.8055,431.4648)">
          <path
             d="M 0,0 H 28.144 V 14.946 H 1.271 c -6.574,0 -11.794,0.661 -15.662,1.988 -3.87,1.325 -6.916,3.154 -9.143,5.486 L -32.119,10.336 C -28.093,6.413 -23.481,3.71 -18.287,2.227 -13.094,0.741 -6.997,0 0,0"
             style="fill:#000000;fill-opacity:1;fill-rule:nonzero;stroke:none"
             id="path50" />
        </g>
        <g
           id="g52"
           transform="translate(354.3375,446.4112)">
          <path
             d="M 0,0 H -17.968 V -94.45 H 0 v 45.794 h 19.716 v 15.741 l -19.716,0 z"
             style="fill:#000000;fill-opacity:1;fill-rule:nonzero;stroke:none"
             id="path54" />
        </g>
        <g
           id="g56"
           transform="translate(297.4925,384.4776)">
          <path
             d="m 0,0 c -2.385,-2.809 -5.91,-4.213 -10.574,-4.213 -4.03,0 -7.263,1.431 -9.7,4.293 -2.44,2.862 -3.658,6.623 -3.658,11.29 0,4.556 1.273,8.054 3.817,10.494 2.545,2.437 5.884,3.657 10.017,3.657 4.453,0 7.844,-1.326 10.177,-3.974 C 2.409,19.002 3.577,15.609 3.577,11.37 3.577,6.6 2.384,2.808 0,0 M 26.315,41.422 H -46.987 V 25.521 h 9.063 c -0.425,-0.742 -0.795,-1.486 -1.113,-2.225 -1.697,-3.394 -2.544,-7.316 -2.544,-11.768 0,-4.664 0.768,-8.852 2.306,-12.56 1.536,-3.713 3.736,-6.945 6.598,-9.7 2.756,-2.651 6.068,-4.691 9.938,-6.122 3.869,-1.432 8.082,-2.147 12.641,-2.147 4.453,0 8.611,0.715 12.482,2.147 3.869,1.431 7.181,3.471 9.938,6.122 2.863,2.755 5.113,5.987 6.759,9.7 1.642,3.708 2.464,7.896 2.464,12.56 0,4.452 -0.902,8.374 -2.703,11.768 l -1.273,2.225 h 8.746 z"
             style="fill:#000000;fill-opacity:1;fill-rule:nonzero;stroke:none"
             id="path58" />
        </g>
        <g
           id="g60"
           transform="translate(440.8352,316.9797)">
          <path
             d="m 0,0 c -5.832,0.318 -10.709,1.113 -14.629,2.385 -3.923,1.272 -5.883,3.021 -5.883,5.248 v 1.431 h 52.79 V 46.748 H -38.798 V 31.483 H 14.151 V 24.01 H -38.957 V 9.064 c 0,-3.712 0.767,-6.89 2.306,-9.54 1.534,-2.649 3.578,-4.93 6.121,-6.838 2.648,-1.802 5.749,-3.26 9.303,-4.373 3.549,-1.113 7.338,-1.933 11.368,-2.464 4.027,-0.53 8.162,-0.768 12.403,-0.717 4.238,0.056 8.427,0.346 12.561,0.876 4.028,0.424 7.896,1.033 11.607,1.829 3.71,0.794 6.998,1.723 9.859,2.781 V 5.725 C 31.269,3.498 25.307,1.935 18.683,1.034 12.056,0.134 5.828,-0.212 0,0"
             style="fill:#000000;fill-opacity:1;fill-rule:nonzero;stroke:none"
             id="path62" />
        </g>
        <g
           id="g64"
           transform="translate(92.7729,367.3848)">
          <path
             d="M 0,0 C 1.908,3.92 3.232,8.508 3.974,13.755 4.715,19.002 5.14,24.75 5.247,31.007 V 73.462 H -54.95 V 58.038 h 42.388 V 30.848 C -12.669,21.2 -13.782,13.25 -15.902,6.996 -17.916,0.954 -21.466,-3.179 -26.555,-5.406 H -87.773 V -20.83 H 20.83 V -5.406 H -3.498 C -2.122,-3.816 -0.954,-2.015 0,0"
             style="fill:#000000;fill-opacity:1;fill-rule:nonzero;stroke:none"
             id="path66" />
        </g>
        <g
           id="g68"
           transform="translate(318.72,323.4996)">
          <path
             d="m 0,0 c -5.195,0.74 -9.409,2.623 -12.642,5.645 -3.235,3.02 -4.85,7.234 -4.85,12.641 V 32.754 H -35.459 V 19.876 c 0,-5.62 0.767,-10.496 2.306,-14.629 1.535,-4.134 3.577,-7.632 6.121,-10.494 2.649,-2.968 5.749,-5.327 9.303,-7.076 3.549,-1.749 7.286,-2.994 11.209,-3.737 3.92,-0.74 7.95,-1.034 12.085,-0.874 2.739,0.105 5.428,0.376 8.074,0.784 V 0.458 C 8.689,-0.339 4.139,-0.497 0,0"
             style="fill:#000000;fill-opacity:1;fill-rule:nonzero;stroke:none"
             id="path70" />
        </g>
        <g
           id="g72"
           transform="translate(492.0354,389.1686)">
          <path
             d="m 0,0 h -19.717 c 1.376,1.483 2.437,3.126 3.18,4.93 0.847,2.012 1.431,4.186 1.749,6.519 0.318,2.331 0.501,4.875 0.557,7.632 0.051,2.756 0.131,5.725 0.239,8.905 v 29.257 h -86.659 V 41.82 h 69.008 V 26.872 c 0,-5.723 -0.318,-10.601 -0.954,-14.629 C -33.233,8.214 -35.195,4.134 -38.48,0 H -84.132 V -15.264 H 0 Z"
             style="fill:#000000;fill-opacity:1;fill-rule:nonzero;stroke:none"
             id="path74" />
        </g>
        <g
           id="g76"
           transform="translate(180.5445,369.929)">
          <path
             d="m 0,0 c 3.709,0.741 7.128,1.695 10.256,2.862 3.125,1.165 5.803,2.544 8.03,4.134 V 22.42 C 13.515,19.981 8.162,18.1 2.225,16.775 -3.712,15.449 -9.277,14.946 -14.47,15.265 c -5.194,0.318 -9.568,1.642 -13.117,3.975 -3.554,2.331 -5.328,5.883 -5.328,10.654 v 2.384 H 9.382 V 76.482 H -51.2 V 61.218 H -8.745 V 47.066 H -51.359 V 31.324 c -0.107,-4.876 0.608,-9.118 2.147,-12.72 1.535,-3.605 3.577,-6.626 6.121,-9.064 2.649,-2.544 5.669,-4.586 9.064,-6.121 3.391,-1.538 6.996,-2.678 10.812,-3.419 3.815,-0.742 7.711,-1.088 11.687,-1.034 C -7.553,-0.981 -3.712,-0.636 0,0"
             style="fill:#000000;fill-opacity:1;fill-rule:nonzero;stroke:none"
             id="path78" />
        </g>
        <g
           id="g80"
           transform="translate(212.1864,330.9722)">
          <path
             d="m 0,0 c 0,-4.135 -1.618,-7.155 -4.85,-9.063 -3.234,-1.908 -6.864,-2.863 -10.892,-2.863 h -3.656 c -4.135,0 -7.553,1.221 -10.256,3.658 -2.703,2.437 -4.056,5.406 -4.056,8.905 V 13.993 H 0 Z M -51.677,29.416 V 0.319 c 0,-3.817 0.796,-7.394 2.386,-10.733 1.589,-3.34 3.761,-6.282 6.518,-8.825 2.862,-2.545 6.147,-4.532 9.858,-5.963 3.71,-1.432 7.686,-2.147 11.926,-2.147 h 6.52 c 4.557,0 8.824,0.664 12.8,1.987 3.976,1.327 7.394,3.156 10.255,5.486 2.863,2.44 5.142,5.303 6.838,8.587 1.695,3.285 2.544,6.889 2.544,10.813 v 29.892 z"
             style="fill:#000000;fill-opacity:1;fill-rule:nonzero;stroke:none"
             id="path82" />
        </g>
        <path
           d="m 212.505,367.704 h 17.808 v 53.698 h -17.808 z"
           style="fill:#000000;fill-opacity:1;fill-rule:nonzero;stroke:none"
           id="path84" />
        <g
           id="g86"
           transform="translate(297.4975,147.4779)">
          <path
             d="M 0,0 V 15.742 H -71.076 V -3.181 c 0,-5.62 0.795,-10.469 2.384,-14.548 1.59,-4.083 3.71,-7.499 6.361,-10.257 2.755,-2.862 5.908,-5.113 9.461,-6.758 3.551,-1.642 7.339,-2.783 11.369,-3.418 2.15,-0.339 4.323,-0.575 6.519,-0.659 l 34.579,-0.059 v 16.374 h -27.223 l -7.356,-0.049 c -5.302,0.423 -9.648,1.909 -13.039,4.507 -3.393,2.597 -5.088,6.281 -5.088,11.052 V 0 Z"
             style="fill:#000000;fill-opacity:1;fill-rule:nonzero;stroke:none"
             id="path88" />
        </g>
        <path
           d="m 212.505,421.402 h 17.808 v 25.01 h -17.808 z"
           style="fill:#21c2cc;fill-opacity:1;fill-rule:nonzero;stroke:none"
           id="path90" />
        <path
           d="m 383.433,373.905 h 24.471 v 15.264 h -24.471 z"
           style="fill:#1db270;fill-opacity:1;fill-rule:nonzero;stroke:none"
           id="path92" />
        <g
           id="g94"
           transform="translate(347.5788,311.8913)">
          <path
             d="m 0,0 c 3.444,1.59 6.493,3.446 9.143,5.566 v 15.105 c -6.785,-3.712 -13.49,-6.308 -20.114,-7.791 -1.45,-0.325 -2.862,-0.59 -4.249,-0.814 V -4.542 c 1.347,0.208 2.687,0.44 4.011,0.726 C -7.182,-2.862 -3.445,-1.59 0,0"
             style="fill:#ffd110;fill-opacity:1;fill-rule:nonzero;stroke:none"
             id="path96" />
        </g>
        <g
           id="g98"
           transform="translate(794.8723,124.8956)">
          <path
             d="m 0,0 -0.01,0.076 c -8.315,62.549 -30.731,122.24 -66.091,175.252 19.002,29.57 28.033,63.688 26.159,99.039 -2.289,43.164 -21.529,83.305 -54.174,113.029 -32.276,29.387 -74.197,45.572 -118.04,45.572 l -39.012,-0.001 c -7.521,36.122 -27.009,69.012 -55.377,93.218 -30.483,26.009 -69.416,40.333 -109.628,40.333 -40.212,0 -79.145,-14.324 -109.627,-40.333 -28.369,-24.206 -47.857,-57.096 -55.378,-93.218 l -39.012,0.001 c -43.843,0 -85.764,-16.185 -118.04,-45.572 -17.336,-15.784 -30.892,-34.507 -40.136,-55.06 h 18.094 c 25.494,50.092 78.797,84.247 140.082,84.247 l 52.773,-0.002 1.129,6.864 c 12.066,73.408 75.199,126.688 150.115,126.688 74.916,0 138.049,-53.28 150.115,-126.688 l 1.129,-6.864 52.773,0.002 c 83.138,0 151.596,-62.851 155.852,-143.083 1.781,-33.588 -7.35,-65.939 -26.407,-93.556 l -3.201,-4.64 3.19,-4.648 C -49.305,121.957 -27.401,67.2 -18,9.673 -17.178,4.642 -21.087,0.076 -26.185,0.076 h -89.578 -258.77 -86.218 -34.24 -2.787 v -16.374 l 6.607,-0.011 h 33.471 80.105 33.628 228.204 101.145 0.331 C -5.574,-16.309 1.147,-8.637 0,0"
             style="fill:#fff;fill-opacity:1;fill-rule:nonzero;stroke:none"
             id="path100" />
        </g>
      </g>
    </g>
  </g>
</svg>
