<svg xmlns="http://www.w3.org/2000/svg" xmlns:xlink="http://www.w3.org/1999/xlink" id="visual" viewBox="0 0 675 900" version="1.1">
  <rect x="0" y="0" width="675" height="900" fill="#b8dbd9"/>
  <defs>
    <linearGradient id="grad1_0" x1="0%" y1="100%" x2="100%" y2="0%">
      <stop offset="30%" stop-color="#b8dbd9" stop-opacity="1"/>
      <stop offset="70%" stop-color="#b8dbd9" stop-opacity="1"/>
    </linearGradient>
  </defs>
  <defs>
    <linearGradient id="grad2_0" x1="0%" y1="100%" x2="100%" y2="0%">
      <stop offset="30%" stop-color="#b8dbd9" stop-opacity="1"/>
      <stop offset="70%" stop-color="#b8dbd9" stop-opacity="1"/>
    </linearGradient>
  </defs>
  <g transform="translate(675, 900)">
    <path d="M-253.1 0C-252.7 -28.1 -252.2 -56.2 -240.7 -78.2C-229.3 -100.3 -206.9 -116.2 -190.1 -138.1C-173.4 -160 -162.2 -187.8 -140.5 -193.4C-118.7 -198.9 -86.4 -182.1 -61.2 -188.3C-36 -194.6 -18 -223.8 0 -253.1L0 0Z" fill="#00a7be"/>
  </g>
  <g transform="translate(0, 0)">
    <path d="M253.1 0C252.7 27.3 252.2 54.7 240.7 78.2C229.3 101.8 206.8 121.5 182.8 132.8C158.8 144.2 133.3 147.2 114.6 157.8C95.9 168.3 84.1 186.4 66.1 203.5C48.2 220.7 24.1 236.9 0 253.1L0 0Z" fill="#00a7be"/>
  </g>
</svg>