<svg width="100%" height="100%" viewBox="0 0 834 355" fill="none" xmlns="http://www.w3.org/2000/svg">
<path d="M833.132 167.934L734.632 354.28C494.425 354.067 257.103 348.48 16.8826 348.254C18.7186 245.227 16.7666 141.787 18.5892 38.7602C245.751 39.3069 472.913 39.8537 700.075 40.4003C744.612 81.2937 788.595 127.027 833.132 167.934" fill="#CCCCCC"/>
<path d="M820.204 133.027L721.704 319.374C481.497 319.16 244.173 313.573 3.95459 313.347C5.79059 210.32 3.83858 106.88 5.66125 3.8535C232.823 4.40017 459.985 4.94668 687.147 5.49335C731.684 46.3867 775.666 92.12 820.204 133.027" fill="#FEEDE6"/>
<path d="M7.24395 310.12C126.151 310.253 246.26 311.72 362.441 313.133C479.32 314.547 600.167 316.027 719.757 316.133L816.183 133.72C794.475 113.707 772.592 92.2933 751.411 71.56C729.972 50.5867 707.812 28.8935 685.884 8.72017L8.8373 7.09335C7.9853 57.4667 8.01462 108.72 8.04529 158.333C8.07462 208.107 8.10529 259.547 7.24395 310.12V310.12ZM721.704 322.6C721.703 322.6 721.701 322.6 721.701 322.6C601.435 322.507 479.897 321.027 362.361 319.587C245.125 318.16 123.899 316.694 3.95196 316.574C3.08396 316.574 2.25462 316.227 1.64796 315.613C1.04129 314.987 0.707966 314.16 0.722632 313.293C1.64263 261.72 1.61062 209.16 1.58129 158.333C1.55062 107.653 1.51996 55.2534 2.42929 3.80012C2.45996 2.04012 3.89862 0.626679 5.66129 0.626679C5.66395 0.626679 5.66663 0.626679 5.66796 0.626679L687.155 2.2535C687.961 2.2535 688.739 2.56022 689.333 3.10689C711.639 23.6002 734.156 45.6267 755.932 66.9467C777.675 88.2267 800.159 110.227 822.391 130.64C823.472 131.64 823.748 133.24 823.061 134.533L724.56 320.88C724.001 321.947 722.901 322.6 721.704 322.6Z" fill="#454E5F"/>
<path d="M713.919 309.667C713.917 309.667 713.917 309.667 713.916 309.667H710.683C708.897 309.667 707.453 308.214 707.455 306.427C707.456 304.64 708.904 303.2 710.687 303.2C710.688 303.2 710.689 303.2 710.691 303.2H711.972L712.572 302.067C713.407 300.494 715.364 299.894 716.94 300.72C718.519 301.56 719.121 303.507 718.287 305.094L716.776 307.947C716.217 309 715.116 309.667 713.919 309.667" fill="#454E5F"/>
<path d="M39.6721 303.72C39.6694 303.72 39.6667 303.72 39.664 303.72L33.2107 303.707C31.4254 303.707 29.9827 302.253 29.9881 300.467C29.9921 298.68 31.4387 297.24 33.2201 297.24C33.2227 297.24 33.2254 297.24 33.228 297.24L39.664 297.253C41.448 297.267 42.9 298.72 42.8947 300.507C42.8907 302.28 41.4534 303.72 39.6721 303.72V303.72ZM59.0334 303.787C59.028 303.787 59.024 303.787 59.02 303.787L52.592 303.773L52.58 300.533L52.592 297.307L59.0467 297.333C60.832 297.333 62.2734 298.787 62.2654 300.573C62.2574 302.36 60.812 303.787 59.0334 303.787V303.787ZM78.392 303.88C78.3867 303.88 78.3814 303.88 78.376 303.88L71.9227 303.853C70.1387 303.84 68.6974 302.387 68.7067 300.6C68.7161 298.813 70.1814 297.387 71.9534 297.387L78.376 297.413C80.1614 297.427 81.6174 298.88 81.6081 300.667C81.5987 302.44 80.1694 303.88 78.392 303.88V303.88ZM97.7494 303.987C97.7427 303.987 97.736 303.987 97.728 303.987L91.2787 303.947C89.4947 303.947 88.0547 302.48 88.064 300.707C88.0747 298.92 89.4734 297.48 91.3147 297.493L97.768 297.52C99.5534 297.533 100.992 298.987 100.981 300.773C100.971 302.56 99.5254 303.987 97.7494 303.987V303.987ZM117.105 304.12C117.097 304.12 117.089 304.12 117.083 304.12L110.631 304.067C108.845 304.053 107.408 302.6 107.42 300.813C107.432 299.04 108.877 297.613 110.652 297.613C110.66 297.613 110.667 297.613 110.675 297.613L117.127 297.653C118.912 297.667 120.348 299.12 120.336 300.907C120.325 302.68 118.88 304.12 117.105 304.12V304.12ZM136.459 304.253C136.449 304.253 136.443 304.253 136.433 304.253L129.984 304.213C128.199 304.2 126.763 302.733 126.776 300.947C126.788 299.16 128.221 297.667 130.031 297.747L136.483 297.787C138.268 297.8 139.704 299.267 139.691 301.053C139.676 302.827 138.232 304.253 136.459 304.253ZM155.812 304.413C155.803 304.413 155.793 304.413 155.784 304.413L149.335 304.36C147.549 304.347 146.115 302.88 146.129 301.093C146.144 299.32 147.549 297.893 149.388 297.893L155.839 297.947C157.624 297.96 159.059 299.427 159.044 301.213C159.028 302.987 157.584 304.413 155.812 304.413V304.413ZM175.164 304.587C175.153 304.587 175.143 304.587 175.133 304.587L168.685 304.52C166.9 304.507 165.465 303.04 165.481 301.267C165.497 299.48 166.993 298.053 168.741 298.053L175.193 298.12C176.977 298.133 178.412 299.587 178.395 301.373C178.379 303.147 176.935 304.587 175.164 304.587V304.587ZM194.515 304.76C194.503 304.76 194.493 304.76 194.481 304.76L188.035 304.693C186.249 304.68 184.816 303.227 184.833 301.44C184.849 299.667 186.293 298.24 188.064 298.24C188.075 298.24 188.084 298.24 188.095 298.24L194.545 298.293C196.329 298.32 197.763 299.773 197.745 301.56C197.728 303.333 196.284 304.76 194.515 304.76ZM213.863 304.96C213.852 304.96 213.84 304.96 213.829 304.96L207.381 304.893C205.596 304.867 204.164 303.413 204.181 301.627C204.2 299.84 205.656 298.427 207.445 298.427L213.896 298.493C215.68 298.507 217.112 299.973 217.095 301.76C217.076 303.533 215.632 304.96 213.863 304.96ZM233.209 305.16C233.199 305.16 233.187 305.16 233.175 305.16L226.727 305.093C224.943 305.067 223.511 303.613 223.529 301.827C223.549 300.04 225 298.613 226.796 298.627L233.244 298.693C235.028 298.707 236.46 300.173 236.441 301.96C236.423 303.733 234.979 305.16 233.209 305.16ZM252.556 305.36C252.544 305.36 252.531 305.36 252.519 305.36L246.073 305.293C244.288 305.28 242.857 303.813 242.876 302.027C242.895 300.253 244.337 298.827 246.108 298.827C246.119 298.827 246.131 298.827 246.141 298.827L252.591 298.907C254.376 298.92 255.807 300.387 255.787 302.173C255.767 303.947 254.324 305.36 252.556 305.36V305.36ZM271.9 305.587C271.888 305.587 271.875 305.587 271.863 305.587L265.416 305.507C263.632 305.493 262.201 304.027 262.221 302.24C262.243 300.467 263.685 299.04 265.452 299.04C265.465 299.04 265.477 299.04 265.491 299.04L271.937 299.12C273.721 299.147 275.152 300.6 275.132 302.387C275.111 304.16 273.668 305.587 271.9 305.587ZM291.244 305.813C291.231 305.813 291.217 305.813 291.205 305.813L284.76 305.733C282.975 305.707 281.545 304.253 281.565 302.467C281.585 300.68 283.039 299.227 284.835 299.267L291.28 299.347C293.065 299.36 294.496 300.827 294.475 302.613C294.455 304.387 293.011 305.813 291.244 305.813ZM310.585 306.04C310.572 306.04 310.559 306.04 310.545 306.04L304.1 305.96C302.316 305.933 300.887 304.48 300.908 302.693C300.929 300.907 302.411 299.507 304.179 299.493L310.624 299.573C312.408 299.6 313.839 301.053 313.817 302.84C313.796 304.613 312.352 306.04 310.585 306.04ZM329.925 306.267C329.913 306.267 329.9 306.267 329.887 306.267L323.441 306.187C321.657 306.173 320.227 304.707 320.249 302.92C320.271 301.133 321.737 299.76 323.52 299.72L329.964 299.8C331.749 299.827 333.179 301.293 333.157 303.08C333.136 304.853 331.693 306.267 329.925 306.267ZM349.265 306.507C349.251 306.507 349.239 306.507 349.224 306.507L342.78 306.427C340.996 306.4 339.565 304.933 339.588 303.147C339.611 301.373 341.056 299.973 342.86 299.96L349.304 300.04C351.088 300.053 352.517 301.52 352.496 303.307C352.475 305.08 351.031 306.507 349.265 306.507ZM368.611 306.733C368.597 306.733 368.584 306.733 368.571 306.733L362.128 306.653C360.343 306.64 358.909 305.187 358.927 303.4C358.944 301.627 360.388 300.2 362.159 300.2C362.168 300.2 362.179 300.2 362.189 300.2L368.649 300.28C370.435 300.293 371.864 301.76 371.843 303.547C371.82 305.32 370.377 306.733 368.611 306.733V306.733ZM387.981 306.973C387.969 306.973 387.956 306.973 387.943 306.973L381.481 306.893C379.696 306.867 378.268 305.413 378.289 303.627C378.311 301.853 379.755 300.427 381.521 300.427C381.533 300.427 381.548 300.427 381.561 300.427L388.02 300.507C389.805 300.533 391.235 302 391.213 303.773C391.192 305.547 389.749 306.973 387.981 306.973ZM407.355 307.213C407.34 307.213 407.328 307.213 407.315 307.213L400.855 307.133C399.069 307.107 397.64 305.64 397.661 303.853C397.683 302.08 399.127 300.667 400.893 300.667C400.907 300.667 400.919 300.667 400.933 300.667L407.392 300.747C409.177 300.76 410.607 302.227 410.585 304.013C410.564 305.787 409.121 307.213 407.355 307.213ZM426.724 307.44C426.712 307.44 426.699 307.44 426.685 307.44L420.225 307.36C418.441 307.347 417.012 305.88 417.033 304.093C417.055 302.32 418.497 300.893 420.264 300.893C420.277 300.893 420.291 300.893 420.304 300.893L426.761 300.973C428.547 301 429.976 302.453 429.956 304.24C429.935 306.013 428.492 307.44 426.724 307.44V307.44ZM446.093 307.667C446.081 307.667 446.068 307.667 446.056 307.667L439.597 307.587C437.812 307.573 436.381 306.107 436.403 304.32C436.423 302.533 437.824 301.107 439.671 301.12L446.129 301.2C447.915 301.213 449.345 302.68 449.325 304.467C449.305 306.24 447.861 307.667 446.093 307.667V307.667ZM465.461 307.88C465.448 307.88 465.436 307.88 465.424 307.88L458.965 307.813C457.179 307.787 455.749 306.32 455.771 304.547C455.791 302.76 457.227 301.28 459.04 301.347L465.496 301.413C467.281 301.44 468.712 302.907 468.692 304.693C468.672 306.467 467.229 307.88 465.461 307.88V307.88ZM484.828 308.093C484.816 308.093 484.804 308.093 484.792 308.093L478.333 308.027C476.549 308.013 475.119 306.547 475.139 304.76C475.159 302.987 476.601 301.56 478.369 301.56C478.381 301.56 478.393 301.56 478.407 301.56L484.861 301.64C486.647 301.653 488.079 303.12 488.059 304.907C488.04 306.68 486.597 308.093 484.828 308.093V308.093ZM504.195 308.307C504.183 308.307 504.171 308.307 504.16 308.307L497.703 308.24C495.917 308.213 494.485 306.76 494.504 304.973C494.524 303.187 496.021 301.773 497.771 301.773L504.227 301.84C506.011 301.853 507.444 303.32 507.425 305.107C507.407 306.88 505.963 308.307 504.195 308.307ZM523.559 308.493C523.548 308.493 523.536 308.493 523.525 308.493L517.069 308.44C515.284 308.413 513.852 306.96 513.869 305.173C513.888 303.4 515.332 301.973 517.101 301.973C517.112 301.973 517.123 301.973 517.135 301.973L523.589 302.04C525.375 302.053 526.807 303.52 526.789 305.293C526.772 307.08 525.328 308.493 523.559 308.493ZM542.921 308.68C542.911 308.68 542.901 308.68 542.889 308.68L536.435 308.627C534.649 308.613 533.217 307.147 533.233 305.36C533.251 303.573 534.696 302.16 536.496 302.16L542.951 302.227C544.736 302.24 546.168 303.693 546.152 305.48C546.136 307.253 544.692 308.68 542.921 308.68V308.68ZM562.283 308.853C562.273 308.853 562.264 308.853 562.255 308.853L555.8 308.8C554.015 308.787 552.58 307.32 552.596 305.547C552.611 303.76 554.056 302.333 555.827 302.333C555.836 302.333 555.847 302.333 555.856 302.333L562.309 302.4C564.095 302.413 565.529 303.867 565.515 305.653C565.5 307.427 564.055 308.853 562.283 308.853ZM581.644 309.013C581.635 309.013 581.627 309.013 581.617 309.013L575.163 308.96C573.377 308.947 571.943 307.493 571.957 305.707C571.972 303.92 573.436 302.48 575.216 302.507L581.669 302.56C583.453 302.573 584.889 304.027 584.875 305.813C584.861 307.587 583.417 309.013 581.644 309.013ZM601.003 309.16C600.996 309.16 600.988 309.16 600.98 309.16L594.525 309.12C592.741 309.107 591.304 307.653 591.317 305.867C591.331 304.08 592.788 302.6 594.573 302.653L601.025 302.707C602.811 302.707 604.248 304.173 604.235 305.96C604.223 307.733 602.777 309.16 601.003 309.16V309.16ZM620.361 309.293C620.355 309.293 620.348 309.293 620.34 309.293L613.888 309.253C612.103 309.24 610.665 307.787 610.676 306C610.688 304.227 612.132 302.787 613.908 302.787C613.916 302.787 613.921 302.787 613.929 302.787L620.383 302.827C622.167 302.84 623.605 304.293 623.593 306.08C623.583 307.867 622.137 309.293 620.361 309.293V309.293ZM639.72 309.413C639.713 309.413 639.707 309.413 639.701 309.413L633.248 309.373C631.463 309.36 630.024 307.907 630.035 306.12C630.045 304.347 631.491 302.907 633.265 302.907C633.273 302.907 633.279 302.907 633.285 302.907L639.736 302.947C641.521 302.96 642.96 304.413 642.951 306.2C642.941 307.973 641.496 309.413 639.72 309.413V309.413ZM659.075 309.507C659.069 309.507 659.065 309.507 659.06 309.507L652.605 309.48C650.821 309.467 649.381 308.013 649.389 306.227C649.4 304.44 650.904 302.987 652.639 303.013L659.088 303.04C660.873 303.053 662.313 304.507 662.307 306.293C662.299 308.067 660.853 309.507 659.075 309.507V309.507ZM678.429 309.587C678.425 309.587 678.421 309.587 678.417 309.587L671.965 309.56C670.181 309.547 668.739 308.093 668.747 306.32C668.752 304.533 670.199 303.093 671.977 303.093C671.981 303.093 671.987 303.093 671.989 303.093L678.44 303.12C680.225 303.12 681.667 304.573 681.661 306.36C681.655 308.147 680.209 309.587 678.429 309.587V309.587ZM697.783 309.64C697.78 309.64 697.777 309.64 697.775 309.64L691.324 309.627C689.539 309.613 688.096 308.16 688.1 306.387C688.105 304.6 689.551 303.16 691.332 303.16C691.335 303.16 691.337 303.16 691.341 303.16L697.791 303.173C699.576 303.173 701.019 304.627 701.015 306.413C701.011 308.2 699.564 309.64 697.783 309.64" fill="#454E5F"/>
<path d="M20.3279 303.68C20.3252 303.68 20.3239 303.68 20.3212 303.68L17.0893 303.667C16.2253 303.667 15.3973 303.32 14.7906 302.707C14.1853 302.094 13.8506 301.254 13.8639 300.387L13.9106 297.16C13.9346 295.387 15.3773 293.974 17.1413 293.974C17.1559 293.974 17.1706 293.974 17.1879 293.974C18.9586 294 20.3773 295.44 20.3733 297.214C22.1399 297.24 23.5626 298.68 23.5586 300.454C23.5559 302.227 22.1106 303.68 20.3279 303.68" fill="#454E5F"/>
<path d="M18.1068 42.1737C18.0948 42.1737 18.0841 42.1737 18.0734 42.1737C16.2881 42.1603 14.8561 40.6936 14.8734 38.9203L14.9428 32.6135C14.9641 30.8269 16.3721 29.3602 18.2121 29.4135C19.9974 29.4402 21.4281 30.9069 21.4068 32.6802L21.3374 38.9737C21.3201 40.7603 19.8761 42.1737 18.1068 42.1737ZM17.9428 61.0802C17.9348 61.0802 17.9268 61.0802 17.9188 61.0802C16.1334 61.0669 14.6974 59.6002 14.7094 57.8135L14.7574 51.5203C14.7721 49.747 16.2161 48.307 17.9894 48.307C17.9988 48.307 18.0068 48.307 18.0161 48.307C19.8014 48.3337 21.2361 49.787 21.2228 51.5737L21.1734 57.8669C21.1614 59.6402 19.7161 61.0802 17.9428 61.0802ZM17.8334 79.9737C17.8281 79.9737 17.8228 79.9737 17.8174 79.9737C16.0321 79.9603 14.5921 78.507 14.6001 76.7203L14.6321 70.4268C14.6401 68.6401 16.0868 67.2135 17.8628 67.2135C17.8694 67.2135 17.8748 67.2135 17.8814 67.2135C19.6654 67.2135 21.1054 68.6803 21.0961 70.4536L21.0641 76.7601C21.0561 78.5335 19.6108 79.9737 17.8334 79.9737V79.9737ZM17.7681 98.8669C17.7654 98.8669 17.7628 98.8669 17.7601 98.8669C15.9748 98.8669 14.5321 97.4135 14.5361 95.6268L14.5534 89.3336C14.5588 87.5469 16.0041 86.107 17.7854 86.107C17.7881 86.107 17.7921 86.107 17.7948 86.107C19.5801 86.107 21.0228 87.5602 21.0174 89.3469L21.0001 95.6403C20.9961 97.427 19.5494 98.8669 17.7681 98.8669ZM17.7374 117.774C17.7361 117.774 17.7348 117.774 17.7334 117.774C15.9494 117.76 14.5028 116.32 14.5054 114.534L14.5121 108.254C14.5134 106.467 15.9614 105.014 17.7441 105.014C17.7454 105.014 17.7468 105.014 17.7481 105.014C19.5334 105.014 20.9774 106.454 20.9761 108.24L20.9694 114.534C20.9681 116.32 19.5201 117.774 17.7374 117.774V117.774ZM17.7308 136.667C15.9441 136.667 14.4988 135.213 14.4988 133.427V127.134C14.4988 125.347 15.9441 123.907 17.7308 123.907C19.5161 123.907 20.9628 125.347 20.9628 127.134V133.427C20.9628 135.213 19.5161 136.667 17.7308 136.667ZM17.7374 155.56C15.9521 155.56 14.5068 154.12 14.5054 152.334L14.5014 146.027C14.5001 144.24 15.9454 142.8 17.7321 142.8C17.7321 142.8 17.7321 142.8 17.7334 142.8C19.5188 142.8 20.9641 144.24 20.9654 146.027L20.9694 152.32C20.9708 154.107 19.5241 155.56 17.7388 155.56H17.7374ZM17.7481 174.454C15.9641 174.454 14.5174 173.013 14.5161 171.227L14.5121 164.934C14.5108 163.147 15.9574 161.693 17.7428 161.693H17.7441C19.5281 161.693 20.9748 163.134 20.9761 164.92L20.9801 171.227C20.9814 173.013 19.5348 174.454 17.7508 174.454C17.7494 174.454 17.7494 174.454 17.7481 174.454ZM17.7521 193.36C15.9668 193.36 14.5201 191.907 14.5201 190.12V183.827C14.5201 182.04 15.9668 180.587 17.7521 180.587C19.5374 180.587 20.9841 182.04 20.9841 183.827V190.12C20.9841 191.907 19.5374 193.36 17.7521 193.36ZM17.7374 212.254C17.7361 212.254 17.7348 212.254 17.7321 212.254C15.9481 212.254 14.5028 210.8 14.5054 209.014L14.5134 202.72C14.5148 200.934 15.9628 199.493 17.7454 199.493C17.7468 199.493 17.7481 199.493 17.7494 199.493C19.5334 199.493 20.9788 200.934 20.9774 202.72L20.9708 209.027C20.9681 210.813 19.5201 212.254 17.7374 212.254ZM17.6948 231.147C17.6921 231.147 17.6894 231.147 17.6868 231.147C15.9014 231.147 14.4588 229.694 14.4641 227.907L14.4814 221.627L17.7134 221.614L20.9454 221.627L20.9281 227.92C20.9228 229.707 19.4761 231.147 17.6948 231.147V231.147ZM17.6161 250.04C17.6094 250.04 17.6041 250.04 17.5974 250.04C15.8134 250.04 14.3734 248.587 14.3841 246.8L14.4148 240.507C14.4228 238.72 15.8681 237.28 17.6468 237.28C17.6508 237.28 17.6561 237.28 17.6614 237.28C19.4468 237.294 20.8881 238.747 20.8788 240.534L20.8481 246.827C20.8374 248.613 19.3921 250.04 17.6161 250.04ZM17.4894 268.947C17.4801 268.947 17.4721 268.947 17.4614 268.947C15.6774 268.934 14.2414 267.467 14.2561 265.68L14.3054 259.387C14.3174 257.614 15.7628 256.174 17.5361 256.174C17.5441 256.174 17.5521 256.174 17.5601 256.174C19.3454 256.187 20.7814 257.654 20.7694 259.44L20.7214 265.734C20.7054 267.52 19.2614 268.947 17.4894 268.947ZM17.3041 287.84C17.2908 287.84 17.2788 287.84 17.2654 287.84C15.4814 287.814 14.0508 286.36 14.0708 284.574L14.1388 278.28C14.1588 276.507 15.6014 275.08 17.3708 275.08C17.3828 275.08 17.3934 275.08 17.4054 275.08C19.1908 275.094 20.6214 276.56 20.6041 278.347L20.5348 284.64C20.5148 286.414 19.0721 287.84 17.3041 287.84Z" fill="#454E5F"/>
<path d="M18.3346 23.2803C18.32 23.2803 18.3053 23.2803 18.2893 23.2803C16.504 23.2669 15.0773 21.7869 15.1026 20.0136L15.1493 16.7738C15.176 15.0004 16.6146 13.587 18.3813 13.587C18.384 13.587 18.3866 13.587 18.3893 13.587L21.62 13.6003C23.4053 13.6003 24.8493 15.0536 24.8453 16.8269C24.84 18.6136 23.3946 20.0537 21.6133 20.0537C21.6106 20.0537 21.608 20.0537 21.6053 20.0537L21.5666 20.0936C21.5413 21.8669 20.1 23.2803 18.3346 23.2803Z" fill="#454E5F"/>
<path d="M40.9852 20.1069C40.9826 20.1069 40.9799 20.1069 40.9786 20.1069L34.5199 20.0934C32.7346 20.0801 31.2919 18.6402 31.2959 16.8536C31.2999 15.0669 32.7866 13.6534 34.5359 13.6267L40.9932 13.6403C42.7786 13.6403 44.2226 15.0935 44.2186 16.8801C44.2132 18.6668 42.7679 20.1069 40.9852 20.1069ZM60.3586 20.1468C60.3559 20.1468 60.3532 20.1468 60.3506 20.1468L53.8919 20.1335C52.1079 20.1335 50.6639 18.6801 50.6679 16.8934C50.6732 15.1067 52.1186 13.6668 53.9012 13.6668C53.9039 13.6668 53.9053 13.6668 53.9079 13.6668L60.3652 13.6801C62.1506 13.6935 63.5946 15.1468 63.5892 16.9335C63.5852 18.7068 62.1386 20.1468 60.3586 20.1468ZM79.7306 20.2002C79.7279 20.2002 79.7252 20.2002 79.7226 20.2002L73.2652 20.1869C71.4799 20.1736 70.0359 18.7201 70.0412 16.9468C70.0452 15.1601 71.4919 13.7202 73.2732 13.7202C73.2759 13.7202 73.2772 13.7202 73.2799 13.7202L79.7386 13.7335C81.5239 13.7335 82.9679 15.1869 82.9626 16.9736C82.9586 18.7603 81.5119 20.2002 79.7306 20.2002ZM99.1039 20.2403C99.1012 20.2403 99.0986 20.2403 99.0946 20.2403L92.6372 20.2267C90.8532 20.2267 89.4092 18.7736 89.4132 16.9869C89.4172 15.2002 90.8639 13.7601 92.6452 13.7601C92.6479 13.7601 92.6506 13.7601 92.6532 13.7601L99.1119 13.7736C100.896 13.7869 102.34 15.2401 102.335 17.0135C102.332 18.8001 100.885 20.2403 99.1039 20.2403V20.2403ZM118.476 20.2934C118.473 20.2934 118.471 20.2934 118.468 20.2934L112.011 20.2801C110.225 20.2668 108.781 18.8136 108.787 17.0403C108.791 15.2536 110.237 13.8135 112.019 13.8135C112.021 13.8135 112.024 13.8135 112.027 13.8135L118.484 13.8267C120.268 13.8267 121.712 15.2802 121.708 17.0668C121.703 18.8535 120.257 20.2934 118.476 20.2934ZM137.848 20.3335C137.845 20.3335 137.843 20.3335 137.841 20.3335L131.383 20.3202C129.597 20.3202 128.155 18.8668 128.159 17.0801C128.163 15.2935 129.609 13.8536 131.391 13.8536C131.393 13.8536 131.396 13.8536 131.399 13.8536L137.856 13.8668C139.641 13.8802 141.084 15.3203 141.081 17.1069C141.076 18.8936 139.629 20.3335 137.848 20.3335V20.3335ZM157.221 20.3869C157.219 20.3869 157.216 20.3869 157.212 20.3869L150.756 20.3601C148.971 20.3601 147.527 18.9069 147.531 17.1202C147.536 15.3469 148.981 13.9069 150.764 13.9069C150.765 13.9069 150.768 13.9069 150.772 13.9069L157.228 13.9202C159.013 13.9202 160.457 15.3734 160.452 17.1601C160.448 18.9467 159.001 20.3869 157.221 20.3869V20.3869ZM176.593 20.4267C176.591 20.4267 176.588 20.4267 176.585 20.4267L170.128 20.4135C168.343 20.4135 166.9 18.9603 166.904 17.1736C166.908 15.3869 168.355 13.9468 170.136 13.9468C170.139 13.9468 170.141 13.9468 170.144 13.9468L176.601 13.9601C178.387 13.9734 179.831 15.4135 179.825 17.2002C179.821 18.9868 178.375 20.4267 176.593 20.4267ZM195.967 20.4801C195.964 20.4801 195.961 20.4801 195.959 20.4801L189.5 20.4536C187.716 20.4536 186.272 19.0001 186.276 17.2135C186.28 15.4401 187.727 14.0002 189.508 14.0002C189.511 14.0002 189.513 14.0002 189.516 14.0002L195.973 14.0135C197.759 14.0135 199.203 15.4669 199.197 17.2536C199.195 19.0269 197.748 20.4801 195.967 20.4801V20.4801ZM215.339 20.5202C215.336 20.5202 215.333 20.5202 215.331 20.5202L208.873 20.5069C207.088 20.5069 205.644 19.0535 205.649 17.2668C205.653 15.4802 207.1 14.0403 208.881 14.0403C208.884 14.0403 208.887 14.0403 208.889 14.0403L215.345 14.0536C217.131 14.0669 218.575 15.5067 218.571 17.2934C218.565 19.0801 217.12 20.5202 215.339 20.5202V20.5202ZM234.711 20.5601C234.708 20.5601 234.705 20.5601 234.703 20.5601L228.247 20.5468C226.461 20.5468 225.017 19.0936 225.021 17.3069C225.027 15.5336 226.472 14.0934 228.253 14.0934C228.256 14.0934 228.259 14.0934 228.261 14.0934L234.719 14.1069C236.504 14.1069 237.947 15.5601 237.944 17.3468C237.939 19.1201 236.492 20.5601 234.711 20.5601V20.5601ZM254.084 20.6135C254.081 20.6135 254.079 20.6135 254.076 20.6135L247.619 20.6002C245.833 20.5868 244.389 19.1467 244.393 17.3601C244.399 15.5734 245.844 14.1335 247.625 14.1335C247.628 14.1335 247.631 14.1335 247.633 14.1335L254.091 14.1468C255.876 14.1601 257.32 15.6002 257.316 17.3869C257.311 19.1736 255.865 20.6135 254.084 20.6135ZM273.456 20.6536C273.453 20.6536 273.451 20.6536 273.448 20.6536L266.991 20.6403C265.205 20.6403 263.763 19.1868 263.767 17.4002C263.771 15.6268 265.217 14.1869 266.999 14.1869C267.001 14.1869 267.004 14.1869 267.007 14.1869L273.464 14.2002C275.249 14.2002 276.692 15.6536 276.688 17.4403C276.684 19.2136 275.237 20.6536 273.456 20.6536ZM292.829 20.7069C292.827 20.7069 292.824 20.7069 292.821 20.7069L286.363 20.6934C284.579 20.6801 283.135 19.2402 283.139 17.4536C283.143 15.6669 284.589 14.2267 286.371 14.2267C286.373 14.2267 286.376 14.2267 286.379 14.2267L292.836 14.2403C294.621 14.2536 296.065 15.6935 296.06 17.4801C296.056 19.2668 294.611 20.7069 292.829 20.7069V20.7069ZM312.201 20.7468C312.199 20.7468 312.196 20.7468 312.195 20.7468L305.736 20.7335C303.951 20.7335 302.507 19.2801 302.512 17.4934C302.516 15.7201 303.963 14.2668 305.744 14.2668C305.747 14.2668 305.749 14.2668 305.751 14.2668L312.209 14.2934C313.995 14.2934 315.439 15.7468 315.433 17.5335C315.429 19.3068 313.983 20.7468 312.201 20.7468ZM331.573 20.8002C331.571 20.8002 331.568 20.8002 331.565 20.8002L325.109 20.7869C323.324 20.7736 321.88 19.3335 321.884 17.5468C321.889 15.7601 323.335 14.3202 325.116 14.3202C325.119 14.3202 325.121 14.3202 325.124 14.3202L331.583 14.3335C333.367 14.3335 334.809 15.7869 334.805 17.5736C334.801 19.3603 333.355 20.8002 331.573 20.8002ZM350.947 20.8403C350.944 20.8403 350.941 20.8403 350.939 20.8403L344.481 20.8267C342.696 20.8267 341.252 19.3736 341.256 17.5869C341.261 15.8136 342.707 14.3601 344.488 14.3601C344.491 14.3601 344.493 14.3601 344.496 14.3601L350.953 14.3869C352.739 14.3869 354.183 15.8401 354.179 17.6135C354.173 19.4001 352.728 20.8403 350.947 20.8403V20.8403ZM370.319 20.8934C370.316 20.8934 370.313 20.8934 370.312 20.8934L363.853 20.8801C362.068 20.8668 360.625 19.4269 360.629 17.6403C360.633 15.8536 362.08 14.4135 363.861 14.4135C363.864 14.4135 363.867 14.4135 363.869 14.4135L370.327 14.4267C372.112 14.4267 373.556 15.8802 373.552 17.6668C373.547 19.4535 372.1 20.8934 370.319 20.8934V20.8934ZM389.692 20.9335C389.689 20.9335 389.687 20.9335 389.683 20.9335L383.225 20.9202C381.441 20.9202 379.997 19.4668 380.001 17.6801C380.007 15.8935 381.452 14.4536 383.235 14.4536C383.236 14.4536 383.239 14.4536 383.243 14.4536L389.699 14.4801C391.484 14.4801 392.928 15.9336 392.923 17.7069C392.919 19.4936 391.472 20.9335 389.692 20.9335V20.9335ZM409.064 20.9869C409.061 20.9869 409.059 20.9869 409.056 20.9869L402.599 20.9736C400.813 20.9603 399.369 19.5202 399.375 17.7335C399.379 15.9468 400.825 14.5069 402.607 14.5069C402.609 14.5069 402.611 14.5069 402.613 14.5069L409.072 14.5202C410.857 14.5202 412.301 15.9734 412.296 17.7601C412.292 19.5467 410.845 20.9869 409.064 20.9869V20.9869ZM428.436 21.0267C428.433 21.0267 428.431 21.0267 428.428 21.0267L421.971 21.0135C420.187 21.0135 418.743 19.5603 418.747 17.7736C418.751 15.9869 420.197 14.5468 421.979 14.5468C421.981 14.5468 421.984 14.5468 421.987 14.5468L428.444 14.5601C430.229 14.5734 431.672 16.0268 431.668 17.8002C431.664 19.5868 430.217 21.0267 428.436 21.0267ZM447.808 21.0801C447.807 21.0801 447.804 21.0801 447.801 21.0801L441.344 21.0668C439.559 21.0535 438.115 19.6134 438.12 17.8267C438.124 16.0401 439.528 14.5468 441.36 14.6002L447.816 14.6135C449.601 14.6135 451.045 16.0669 451.041 17.8536C451.036 19.6402 449.591 21.0801 447.808 21.0801V21.0801ZM467.183 21.1202C467.179 21.1202 467.176 21.1202 467.173 21.1202L460.716 21.1069C458.931 21.1069 457.488 19.6535 457.492 17.8668C457.496 16.0802 458.943 14.6403 460.724 14.6403C460.727 14.6403 460.729 14.6403 460.731 14.6403L467.189 14.6536C468.975 14.6669 470.417 16.1067 470.415 17.8934C470.409 19.6801 468.963 21.1202 467.183 21.1202V21.1202ZM486.555 21.1736C486.552 21.1736 486.549 21.1736 486.547 21.1736L480.089 21.1468C478.304 21.1468 476.86 19.6936 476.864 17.9069C476.869 16.1336 478.315 14.6934 480.096 14.6934C480.099 14.6934 480.101 14.6934 480.104 14.6934L486.561 14.7069C488.347 14.7069 489.791 16.1601 489.785 17.9468C489.781 19.7335 488.335 21.1736 486.555 21.1736V21.1736ZM505.927 21.2135C505.924 21.2135 505.921 21.2135 505.919 21.2135L499.461 21.2002C497.676 21.2002 496.232 19.7467 496.237 17.9601C496.241 16.1734 497.688 14.7335 499.469 14.7335C499.472 14.7335 499.473 14.7335 499.476 14.7335L505.935 14.7468C507.72 14.7601 509.163 16.2002 509.159 17.9869C509.155 19.7736 507.708 21.2135 505.927 21.2135V21.2135ZM525.3 21.2668C525.297 21.2668 525.295 21.2668 525.292 21.2668L518.833 21.2403C517.049 21.2403 515.605 19.7868 515.609 18.0135C515.613 16.2268 517.06 14.7869 518.841 14.7869C518.844 14.7869 518.847 14.7869 518.849 14.7869L525.307 14.8002C527.092 14.8002 528.536 16.2536 528.531 18.0403C528.527 19.8136 527.081 21.2668 525.3 21.2668V21.2668ZM544.671 21.3069C544.669 21.3069 544.667 21.3069 544.664 21.3069L538.207 21.2934C536.421 21.2934 534.977 19.8402 534.983 18.0536C534.987 16.2669 536.433 14.8267 538.215 14.8267C538.217 14.8267 538.22 14.8267 538.223 14.8267L544.68 14.8403C546.464 14.8536 547.908 16.2935 547.904 18.0801C547.899 19.8668 546.453 21.3069 544.671 21.3069ZM564.044 21.3601C564.041 21.3601 564.039 21.3601 564.036 21.3601L557.579 21.3335C555.793 21.3335 554.351 19.8801 554.355 18.0934C554.359 16.3201 555.805 14.8801 557.587 14.8801C557.589 14.8801 557.592 14.8801 557.593 14.8801L564.052 14.8934C565.837 14.8934 567.28 16.3468 567.276 18.1335C567.272 19.9068 565.825 21.3601 564.044 21.3601V21.3601ZM583.417 21.4002C583.415 21.4002 583.412 21.4002 583.409 21.4002L576.952 21.3869C575.167 21.3869 573.723 19.9335 573.727 18.1468C573.732 16.3601 575.177 14.9202 576.959 14.9202C576.961 14.9202 576.964 14.9202 576.967 14.9202L583.424 14.9335C585.209 14.9468 586.653 16.3869 586.649 18.1736C586.644 19.9603 585.199 21.4002 583.417 21.4002ZM602.789 21.4403C602.787 21.4403 602.784 21.4403 602.781 21.4403L596.324 21.4267C594.539 21.4267 593.096 19.9736 593.1 18.1869C593.104 16.4136 594.551 14.9736 596.332 14.9736C596.335 14.9736 596.337 14.9736 596.34 14.9736L602.797 14.9869C604.583 14.9869 606.025 16.4401 606.021 18.2267C606.017 20.0001 604.571 21.4403 602.789 21.4403ZM622.163 21.4934C622.16 21.4934 622.157 21.4934 622.155 21.4934L615.696 21.4801C613.912 21.4801 612.468 20.0269 612.472 18.2403C612.476 16.4536 613.909 15.0001 615.712 15.0135L622.169 15.0267C623.955 15.0401 625.399 16.4802 625.393 18.2668C625.389 20.0535 623.944 21.4934 622.163 21.4934V21.4934ZM641.533 21.5468C641.531 21.5468 641.529 21.5468 641.527 21.5468L635.069 21.5202C633.284 21.5202 631.84 20.0668 631.845 18.2801C631.849 16.5068 633.296 15.0536 635.077 15.0536C635.08 15.0536 635.083 15.0536 635.084 15.0536L641.541 15.0801C643.327 15.0801 644.771 16.5336 644.767 18.3202C644.761 20.0936 643.316 21.5468 641.533 21.5468V21.5468ZM660.907 21.5869C660.904 21.5869 660.901 21.5869 660.899 21.5869L654.441 21.5736C652.657 21.5603 651.213 20.1202 651.217 18.3335C651.223 16.5468 652.668 15.1069 654.449 15.1069C654.452 15.1069 654.455 15.1069 654.457 15.1069L660.916 15.1202C662.7 15.1202 664.143 16.5734 664.139 18.3601C664.135 20.1467 662.688 21.5869 660.907 21.5869V21.5869ZM680.279 21.6267C680.277 21.6267 680.275 21.6267 680.272 21.6267L673.815 21.6135C672.029 21.6135 670.585 20.1603 670.589 18.3736C670.595 16.6003 672.04 15.1468 673.821 15.1468C673.824 15.1468 673.827 15.1468 673.829 15.1468L680.287 15.1736C682.072 15.1736 683.516 16.6268 683.512 18.4135C683.507 20.1868 682.061 21.6267 680.279 21.6267ZM694.913 33.6403C694.116 33.6403 693.319 33.3468 692.693 32.7468C691.129 31.2801 689.565 29.8002 688.001 28.3335C686.7 27.1202 686.635 25.0667 687.856 23.7601C689.077 22.4667 691.124 22.4001 692.424 23.6267C693.995 25.0934 695.565 26.5736 697.135 28.0536C698.432 29.2802 698.489 31.3334 697.263 32.6267C696.627 33.2934 695.771 33.6403 694.913 33.6403V33.6403ZM708.935 47.0002C708.129 47.0002 707.323 46.7069 706.695 46.1069C705.144 44.6136 703.592 43.1203 702.04 41.6403C700.751 40.4003 700.704 38.3602 701.939 37.0668C703.172 35.7735 705.217 35.7336 706.508 36.9736C708.064 38.4536 709.62 39.9469 711.175 41.4403C712.463 42.6803 712.503 44.7201 711.265 46.0134C710.631 46.6668 709.783 47.0002 708.935 47.0002V47.0002ZM722.861 60.4668C722.051 60.4668 721.239 60.1601 720.611 59.5601L715.979 55.0668C714.696 53.8135 714.665 51.7734 715.907 50.4934C717.149 49.2134 719.195 49.1734 720.477 50.4134L725.115 54.9202C726.395 56.1602 726.424 58.2134 725.181 59.4934C724.548 60.1467 723.705 60.4668 722.861 60.4668ZM736.732 74.0002C735.917 74.0002 735.101 73.6934 734.472 73.0801L729.856 68.5601C728.579 67.3201 728.555 65.2802 729.801 64.0002C731.049 62.7202 733.095 62.6934 734.372 63.9468L738.995 68.4536C740.269 69.7069 740.291 71.7601 739.043 73.0267C738.409 73.6801 737.571 74.0002 736.732 74.0002V74.0002ZM750.579 87.5468C749.763 87.5468 748.947 87.2401 748.319 86.6267L743.703 82.1069C742.427 80.8536 742.405 78.8135 743.653 77.5335C744.903 76.2668 746.949 76.2401 748.224 77.4934L752.839 82.0002C754.115 83.2535 754.139 85.2936 752.889 86.5736C752.256 87.2269 751.417 87.5468 750.579 87.5468V87.5468ZM764.441 101.08C763.628 101.08 762.815 100.773 762.187 100.16L757.56 95.6536C756.281 94.4136 756.256 92.3601 757.503 91.0801C758.749 89.8001 760.795 89.7734 762.073 91.0267L766.695 95.5335C767.975 96.7735 768.001 98.8269 766.757 100.107C766.124 100.747 765.283 101.08 764.441 101.08V101.08ZM778.357 114.56C777.551 114.56 776.743 114.254 776.116 113.654C774.563 112.16 773.012 110.667 771.464 109.16C770.18 107.92 770.145 105.88 771.387 104.587C772.627 103.307 774.672 103.28 775.956 104.52C777.501 106.014 779.051 107.507 780.599 109C781.885 110.24 781.923 112.28 780.685 113.56C780.051 114.227 779.204 114.56 778.357 114.56V114.56ZM792.363 127.947C791.564 127.947 790.765 127.654 790.14 127.054C788.576 125.574 787.013 124.093 785.451 122.6C784.16 121.373 784.111 119.32 785.343 118.027C786.573 116.747 788.62 116.694 789.912 117.92C791.469 119.414 793.028 120.893 794.587 122.36C795.881 123.6 795.937 125.64 794.709 126.933C794.073 127.613 793.219 127.947 792.363 127.947" fill="#454E5F"/>
<path d="M802.617 141.854C802.108 141.854 801.59 141.733 801.109 141.48C799.53 140.653 798.928 138.694 799.763 137.12L800.117 136.44L799.56 135.92C798.256 134.707 798.187 132.667 799.405 131.36C800.624 130.053 802.669 129.987 803.973 131.2L806.333 133.4C807.403 134.4 807.671 135.987 806.988 137.28L805.477 140.133C804.897 141.24 803.776 141.854 802.617 141.854" fill="#454E5F"/>
<path d="M793.597 158.92C793.088 158.92 792.572 158.8 792.089 158.547C790.512 157.72 789.909 155.76 790.743 154.174L793.749 148.494C794.584 146.907 796.539 146.307 798.117 147.147C799.696 147.974 800.299 149.934 799.465 151.507L796.459 157.2C795.879 158.294 794.757 158.92 793.597 158.92V158.92ZM784.579 175.987C784.069 175.987 783.552 175.867 783.071 175.614C781.492 174.774 780.889 172.827 781.724 171.24L784.731 165.56C785.565 163.974 787.521 163.374 789.099 164.214C790.676 165.04 791.279 167 790.444 168.574L787.439 174.267C786.859 175.36 785.737 175.987 784.579 175.987V175.987ZM775.559 193.054C775.049 193.054 774.532 192.934 774.051 192.68C772.472 191.84 771.869 189.88 772.703 188.307L775.709 182.614C776.545 181.04 778.5 180.44 780.079 181.28C781.656 182.107 782.259 184.067 781.425 185.64L778.419 191.334C777.839 192.427 776.719 193.054 775.559 193.054V193.054ZM766.539 210.12C766.029 210.12 765.512 210 765.031 209.747C763.452 208.907 762.849 206.947 763.684 205.374L766.691 199.68C767.525 198.107 769.483 197.507 771.059 198.334C772.637 199.174 773.24 201.134 772.405 202.707L769.399 208.387C768.819 209.494 767.697 210.12 766.539 210.12ZM757.519 227.174C757.009 227.174 756.492 227.054 756.011 226.8C754.432 225.974 753.829 224.014 754.664 222.44L757.671 216.747C758.504 215.174 760.46 214.56 762.039 215.4C763.616 216.24 764.22 218.187 763.387 219.774L760.379 225.454C759.799 226.56 758.679 227.174 757.519 227.174V227.174ZM748.5 244.24C747.991 244.24 747.472 244.12 746.992 243.867C745.413 243.027 744.811 241.08 745.644 239.494L748.652 233.814C749.487 232.24 751.443 231.627 753.019 232.467C754.597 233.294 755.2 235.254 754.365 236.827L751.359 242.52C750.779 243.614 749.659 244.24 748.5 244.24V244.24ZM739.479 261.307C738.971 261.307 738.453 261.187 737.972 260.934C736.393 260.094 735.791 258.147 736.624 256.56L739.631 250.88C740.467 249.294 742.421 248.694 744 249.534C745.577 250.36 746.18 252.32 745.347 253.894L742.339 259.587C741.759 260.68 740.639 261.307 739.479 261.307V261.307ZM730.46 278.374C729.951 278.374 729.433 278.254 728.952 278C727.373 277.16 726.771 275.2 727.605 273.627L730.612 267.947C731.447 266.36 733.403 265.76 734.98 266.587C736.557 267.427 737.161 269.387 736.327 270.96L733.32 276.654C732.74 277.747 731.619 278.374 730.46 278.374V278.374ZM721.44 295.44C720.931 295.44 720.415 295.32 719.933 295.054C718.355 294.227 717.751 292.267 718.585 290.694L721.591 285C722.425 283.427 724.381 282.827 725.959 283.654C727.537 284.494 728.14 286.44 727.307 288.027L724.301 293.707C723.721 294.814 722.6 295.44 721.44 295.44" fill="#454E5F"/>
<path d="M665.479 90.48H52.6799C51.9666 90.48 51.3879 89.8934 51.3879 89.1868C51.3879 88.4668 51.9666 87.8933 52.6799 87.8933H665.479C666.193 87.8933 666.772 88.4668 666.772 89.1868C666.772 89.8934 666.193 90.48 665.479 90.48Z" fill="#808080"/>
<path d="M666.048 176.613H53.2506C52.5359 176.613 51.9573 176.04 51.9573 175.32C51.9573 174.613 52.5359 174.027 53.2506 174.027H666.048C666.761 174.027 667.34 174.613 667.34 175.32C667.34 176.04 666.761 176.613 666.048 176.613Z" fill="#808080"/>
<path d="M666.617 254.76H53.82C53.1053 254.76 52.5266 254.187 52.5266 253.467C52.5266 252.76 53.1053 252.173 53.82 252.173H666.617C667.332 252.173 667.911 252.76 667.911 253.467C667.911 254.187 667.332 254.76 666.617 254.76" fill="#808080"/>
</svg>
