<svg width="556" height="637" viewBox="0 0 556 637" fill="none" xmlns="http://www.w3.org/2000/svg">
<path d="M551.948 636.147L19.6025 636.12C21.9812 444.2 24.3599 252.294 26.7385 60.3869C203.713 63.5469 378.076 66.7202 555.05 69.8935C555.425 260.08 551.573 445.96 551.948 636.147" fill="#CCCCCC"/>
<path d="M536.435 605.547L4.08789 605.52C6.46789 413.6 8.84656 221.693 11.2239 29.7868C188.199 32.9468 362.563 36.1201 539.536 39.2934C539.912 229.48 536.059 415.36 536.435 605.547" fill="#E0F0FF"/>
<path d="M7.36123 602.293L533.196 602.32C533.035 508.28 533.908 413.8 534.753 322.413C535.599 231 536.472 136.507 536.311 42.4668C457.725 41.0535 379.653 39.6535 301.629 38.2401C206.092 36.5201 110.639 34.7868 14.4159 33.0801L7.36123 602.293ZM536.433 608.773L4.08791 608.747C3.22391 608.747 2.39591 608.414 1.78924 607.787C1.18124 607.174 0.845244 606.347 0.857244 605.48L7.9919 29.7468C8.00256 28.8934 8.35724 28.0668 8.97324 27.4668C9.59058 26.8668 10.4266 26.5469 11.2812 26.5602C108.604 28.2935 205.136 30.0268 301.747 31.7735C380.817 33.2001 459.941 34.6269 539.595 36.0535C541.355 36.0935 542.765 37.5201 542.769 39.2801C542.956 134.4 542.072 230.013 541.217 322.467C540.363 414.893 539.479 510.467 539.665 605.547C539.667 606.4 539.328 607.227 538.721 607.827C538.115 608.44 537.292 608.773 536.433 608.773" fill="#454E5F"/>
<path d="M179.615 11.4935C184.657 62.5335 189.789 111.827 194.832 162.854C169.415 150.08 146.26 141.6 120.856 128.827C95.6585 144.787 72.6466 159.2 47.4492 175.16C48.0052 117.96 48.5746 60.7602 49.1306 3.56017C93.6679 10.4002 134.612 13.8402 179.615 11.4935Z" fill="white"/>
<path d="M375.827 162.854C350.409 150.08 327.255 141.6 301.852 128.827C276.655 144.787 253.641 159.2 228.444 175.16C229 117.96 229.569 60.7602 230.125 3.56017C274.664 10.4002 315.607 13.8402 360.611 11.4935C365.652 62.5335 370.784 111.827 375.827 162.854Z" fill="white"/>
<path d="M52.3267 7.3068L50.74 169.254C62.0053 162.134 72.884 155.28 83.7787 148.413C95.3813 141.093 107.001 133.774 119.127 126.094C120.085 125.494 121.293 125.427 122.308 125.947C134.943 132.293 147.256 137.68 159.164 142.894C169.488 147.414 180.115 152.067 191.041 157.373C188.709 133.867 186.332 110.427 184.027 87.6935C181.619 63.9468 179.132 39.4401 176.7 14.8801C137.827 16.6801 99.1733 14.3201 52.3267 7.3068V7.3068ZM47.4493 178.4C46.9093 178.4 46.368 178.267 45.8787 177.987C44.844 177.414 44.2067 176.32 44.2187 175.133L45.8987 3.52021C45.908 2.58688 46.3227 1.69339 47.0373 1.09339C47.7507 0.480053 48.6933 0.22672 49.6213 0.360053C98.9307 7.93339 138.969 10.3735 179.447 8.26682C181.167 8.17349 182.661 9.45346 182.831 11.1735C185.359 36.7601 187.951 62.3201 190.457 87.0401C192.952 111.64 195.532 137.08 198.048 162.547C198.164 163.707 197.633 164.854 196.663 165.52C195.691 166.187 194.433 166.28 193.38 165.747C180.759 159.4 168.463 154.027 156.572 148.813C145.099 143.8 133.252 138.613 121.043 132.533C109.468 139.867 98.3373 146.88 87.2253 153.88C74.724 161.747 62.2467 169.614 49.18 177.894C48.6533 178.227 48.052 178.4 47.4493 178.4" fill="#454E5F"/>
<path d="M233.321 7.3068L231.735 169.254C243 162.134 253.88 155.28 264.775 148.413C276.376 141.093 287.997 133.774 300.123 126.094C301.081 125.494 302.288 125.427 303.304 125.947C315.939 132.293 328.251 137.68 340.159 142.894C350.483 147.414 361.111 152.067 372.037 157.373C369.704 133.867 367.327 110.427 365.021 87.6935C362.613 63.9468 360.128 39.4401 357.696 14.8801C318.823 16.6801 280.168 14.3201 233.321 7.3068V7.3068ZM228.445 178.4C227.904 178.4 227.363 178.267 226.873 177.987C225.839 177.414 225.201 176.32 225.213 175.133L226.893 3.52021C226.903 2.58688 227.319 1.69339 228.033 1.09339C228.747 0.480053 229.691 0.22672 230.616 0.360053C279.925 7.93339 319.964 10.3735 360.443 8.26682C362.16 8.17349 363.656 9.45346 363.827 11.1735C366.353 36.7601 368.945 62.3201 371.452 87.0401C373.948 111.64 376.528 137.08 379.043 162.547C379.16 163.707 378.628 164.854 377.657 165.52C376.685 166.187 375.428 166.28 374.376 165.747C361.753 159.4 349.457 154.027 337.567 148.813C326.095 143.8 314.248 138.613 302.039 132.533C290.464 139.867 279.333 146.88 268.22 153.88C255.72 161.747 243.241 169.614 230.176 177.894C229.648 178.227 229.048 178.4 228.445 178.4" fill="#454E5F"/>
<path d="M478.511 253.213H48.6C48.2427 253.213 47.9534 252.92 47.9534 252.56C47.9534 252.2 48.2427 251.92 48.6 251.92H478.511C478.868 251.92 479.157 252.2 479.157 252.56C479.157 252.92 478.868 253.213 478.511 253.213Z" fill="#454E5F"/>
<path d="M478.511 325.613H48.6C48.2427 325.613 47.9534 325.32 47.9534 324.96C47.9534 324.6 48.2427 324.307 48.6 324.307H478.511C478.868 324.307 479.157 324.6 479.157 324.96C479.157 325.32 478.868 325.613 478.511 325.613Z" fill="#454E5F"/>
<path d="M478.511 398H48.6C48.2427 398 47.9534 397.72 47.9534 397.36C47.9534 397 48.2427 396.707 48.6 396.707H478.511C478.868 396.707 479.157 397 479.157 397.36C479.157 397.72 478.868 398 478.511 398Z" fill="#454E5F"/>
<path d="M478.511 470.4H48.6C48.2427 470.4 47.9534 470.107 47.9534 469.76C47.9534 469.4 48.2427 469.107 48.6 469.107H478.511C478.868 469.107 479.157 469.4 479.157 469.76C479.157 470.107 478.868 470.4 478.511 470.4Z" fill="#454E5F"/>
<path d="M478.511 542.8H48.6C48.2427 542.8 47.9534 542.507 47.9534 542.16C47.9534 541.8 48.2427 541.507 48.6 541.507H478.511C478.868 541.507 479.157 541.8 479.157 542.16C479.157 542.507 478.868 542.8 478.511 542.8Z" fill="#454E5F"/>
</svg>
