<svg width="30" height="30" viewBox="0 0 30 30" fill="none" xmlns="http://www.w3.org/2000/svg">
<path fill-rule="evenodd" clip-rule="evenodd" d="M15 4.6875C9.30456 4.6875 4.6875 9.30456 4.6875 15C4.6875 20.6954 9.30456 25.3125 15 25.3125C20.6954 25.3125 25.3125 20.6954 25.3125 15C25.3125 9.30456 20.6954 4.6875 15 4.6875ZM2.8125 15C2.8125 8.26903 8.26903 2.8125 15 2.8125C21.731 2.8125 27.1875 8.26903 27.1875 15C27.1875 21.731 21.731 27.1875 15 27.1875C8.26903 27.1875 2.8125 21.731 2.8125 15Z" fill="#DF2424"/>
<path d="M10.7812 14.0625C11.5579 14.0625 12.1875 13.4329 12.1875 12.6562C12.1875 11.8796 11.5579 11.25 10.7812 11.25C10.0046 11.25 9.375 11.8796 9.375 12.6562C9.375 13.4329 10.0046 14.0625 10.7812 14.0625Z" fill="#DF2424"/>
<path d="M19.2188 14.0625C19.9954 14.0625 20.625 13.4329 20.625 12.6562C20.625 11.8796 19.9954 11.25 19.2188 11.25C18.4421 11.25 17.8125 11.8796 17.8125 12.6562C17.8125 13.4329 18.4421 14.0625 19.2188 14.0625Z" fill="#DF2424"/>
<path d="M10.7812 14.0625C11.5579 14.0625 12.1875 13.4329 12.1875 12.6562C12.1875 11.8796 11.5579 11.25 10.7812 11.25C10.0046 11.25 9.375 11.8796 9.375 12.6562C9.375 13.4329 10.0046 14.0625 10.7812 14.0625Z" fill="#DF2424"/>
<path d="M19.2188 14.0625C19.9954 14.0625 20.625 13.4329 20.625 12.6562C20.625 11.8796 19.9954 11.25 19.2188 11.25C18.4421 11.25 17.8125 11.8796 17.8125 12.6562C17.8125 13.4329 18.4421 14.0625 19.2188 14.0625Z" fill="#DF2424"/>
<path fill-rule="evenodd" clip-rule="evenodd" d="M11.7196 17.7573C12.7175 17.1828 13.8487 16.8804 15.0002 16.8804C16.1516 16.8804 17.2828 17.1828 18.2807 17.7573C19.2785 18.3319 20.1079 19.1585 20.686 20.1543C20.9459 20.6021 20.7936 21.1758 20.3458 21.4357C19.898 21.6957 19.3243 21.5434 19.0643 21.0956C18.6512 20.3837 18.0583 19.7929 17.345 19.3822C16.6318 18.9715 15.8232 18.7554 15.0002 18.7554C14.1771 18.7554 13.3685 18.9715 12.6553 19.3822C11.942 19.7929 11.3491 20.3837 10.936 21.0956C10.676 21.5434 10.1023 21.6957 9.65453 21.4357C9.20673 21.1758 9.05442 20.6021 9.31434 20.1543C9.89237 19.1585 10.7218 18.3319 11.7196 17.7573Z" fill="#DF2424"/>
</svg>
